<svg version="1.1" id="Layer_1" xmlns="http://www.w3.org/2000/svg" xmlns:xlink="http://www.w3.org/1999/xlink" x="0px" y="0px"
	 width="100%" viewBox="0 0 2221 360" enable-background="new 0 0 2221 360" xml:space="preserve">
<path fill="#FFFFFF" opacity="1.000000" stroke="none" 
	d="
M1616.000000,361.000000 
	C1077.385376,361.000000 539.270752,361.000000 1.078044,361.000000 
	C1.078044,241.063675 1.078044,121.127281 1.078044,1.095446 
	C741.333313,1.095446 1481.666626,1.095446 2221.970215,1.095446 
	C2221.970215,121.062897 2221.970215,241.031448 2221.970215,361.000000 
	C2020.126953,361.000000 1818.313477,361.000000 1616.000000,361.000000 
M1109.223022,222.488220 
	C1109.608398,222.463089 1109.993652,222.437958 1110.379028,222.412796 
	C1109.944092,222.249695 1109.509155,222.086594 1108.874268,221.171387 
	C1106.887939,220.782425 1104.901489,220.393463 1102.517090,219.480560 
	C1100.994873,218.683167 1099.472778,217.885773 1097.365723,216.531555 
	C1098.316772,216.199371 1099.323853,215.475708 1100.209473,215.602066 
	C1104.257568,216.179749 1108.262085,217.508408 1112.300903,217.585648 
	C1116.549805,217.666885 1120.820068,216.633057 1125.703613,216.057709 
	C1125.924683,215.720840 1126.145752,215.383957 1126.985718,214.936310 
	C1130.143677,211.249039 1130.503662,210.039627 1129.257568,207.400940 
	C1134.239868,206.731964 1130.980347,202.013748 1132.841431,199.695740 
	C1133.092529,199.383011 1130.985718,197.177063 1130.041382,195.143845 
	C1128.364624,194.094177 1126.687744,193.044495 1124.173706,192.054749 
	C1123.016357,191.228470 1121.858887,190.402191 1120.701416,189.575912 
	C1120.315918,190.186752 1119.930420,190.797607 1119.544922,191.408447 
	C1121.709351,192.669891 1123.873779,193.931335 1126.336060,195.762207 
	C1127.462402,196.185898 1128.588745,196.609589 1129.921509,197.782242 
	C1128.839844,201.222549 1127.758301,204.662842 1126.121216,208.294983 
	C1125.028320,209.149872 1123.935425,210.004761 1122.336670,210.989273 
	C1121.836548,211.420242 1121.336304,211.851196 1120.678711,212.698135 
	C1120.678711,212.698135 1120.247681,212.807953 1119.572998,212.865631 
	C1118.225830,212.466049 1116.878540,212.066467 1114.857422,211.467010 
	C1117.480713,209.723679 1119.197632,208.582718 1120.914551,207.441757 
	C1118.599854,207.275940 1116.893921,208.293137 1115.058594,208.656418 
	C1113.376709,208.989319 1111.555298,208.616302 1110.377808,208.212952 
	C1112.247925,207.153336 1114.117920,206.093719 1115.630005,204.514114 
	C1115.031250,204.368851 1114.432617,204.223587 1113.131592,204.074310 
	C1111.291016,204.994232 1109.450317,205.914154 1107.093140,206.284607 
	C1106.879761,206.151947 1106.666260,206.019287 1105.648560,205.946884 
	C1105.111816,205.931564 1104.575195,205.916245 1104.057861,205.385742 
	C1104.619873,204.780670 1105.181763,204.175598 1105.937744,202.812531 
	C1104.773071,202.089676 1103.608398,201.366806 1102.332642,199.922485 
	C1102.921509,198.619705 1103.510498,197.316940 1104.730347,196.125916 
	C1105.772461,196.841980 1106.814453,197.558029 1107.856567,198.274078 
	C1108.128906,197.924652 1108.401123,197.575226 1108.673462,197.225800 
	C1107.837646,196.139404 1107.001831,195.053024 1106.166016,193.966644 
	C1106.366333,193.626282 1106.566650,193.285904 1106.766968,192.945541 
	C1107.995850,193.457825 1109.224731,193.970093 1110.513916,194.507492 
	C1111.679199,192.513687 1112.870728,190.474747 1114.844727,188.495499 
	C1116.090820,189.045807 1117.336914,189.596100 1119.176636,190.408585 
	C1113.859375,183.126480 1108.816040,183.387970 1101.786377,190.247879 
	C1100.908813,189.211670 1099.982666,188.118057 1098.445557,187.017212 
	C1098.241943,187.021774 1098.038330,187.026352 1097.598511,186.972336 
	C1097.598511,186.972336 1097.466553,186.767853 1097.755981,186.029495 
	C1097.755981,183.919769 1097.755981,181.810043 1097.755981,179.532822 
	C1095.574829,179.753082 1094.281616,179.883682 1092.999878,179.488861 
	C1092.995483,179.313736 1092.991089,179.138596 1093.048706,178.241425 
	C1088.164551,172.150467 1082.700806,171.487411 1077.654541,176.914825 
	C1075.613037,179.110550 1074.633179,182.293198 1072.856201,185.793381 
	C1072.455322,186.566833 1072.054443,187.340286 1071.653442,188.113724 
	C1071.177979,188.022125 1070.702393,187.930511 1070.226807,187.838913 
	C1070.631104,183.092514 1069.425537,177.166092 1071.829956,173.885849 
	C1075.150879,169.355240 1078.462402,162.672668 1086.410400,163.828308 
	C1087.156250,163.936768 1088.113892,162.587891 1089.697632,161.947968 
	C1090.920532,161.345825 1092.143555,160.743668 1093.995361,159.854507 
	C1096.619141,157.164642 1099.456909,154.499008 1094.567017,150.602921 
	C1093.391357,151.772171 1092.215698,152.941437 1090.210938,153.975708 
	C1089.085205,154.527084 1087.742065,154.847473 1086.869873,155.668213 
	C1082.058716,160.195358 1077.362549,164.844681 1071.844971,170.212921 
	C1071.596313,161.562637 1073.538086,154.898041 1076.929565,148.497849 
	C1080.436890,141.878799 1085.731079,138.367905 1093.216919,137.967270 
	C1096.200928,137.807556 1099.166992,137.293106 1102.135742,136.899185 
	C1102.363159,136.869019 1102.547119,136.512436 1102.964478,136.093781 
	C1102.258667,135.568314 1101.584717,135.066574 1100.878540,134.540802 
	C1102.948730,133.167999 1104.927002,131.856064 1106.905396,130.544128 
	C1106.611694,130.068954 1106.317993,129.593781 1106.024292,129.118607 
	C1101.483032,131.617493 1096.941772,134.116379 1092.073364,136.795349 
	C1092.431519,131.866455 1093.030884,127.964645 1092.886597,124.090523 
	C1092.789307,121.478226 1092.406616,118.998878 1088.344604,118.332283 
	C1084.644897,117.725121 1082.936279,114.058723 1083.120361,109.717331 
	C1102.715454,109.717331 1121.859497,109.692696 1141.003174,109.778915 
	C1142.143311,109.784050 1143.806885,110.351715 1144.336426,111.208191 
	C1149.795044,120.035080 1157.158081,125.077370 1168.210205,123.064995 
	C1168.934448,130.001511 1171.797974,134.360855 1178.739746,134.800705 
	C1179.291260,134.835648 1180.071289,135.368149 1180.293579,135.869537 
	C1182.998657,141.972702 1187.814087,144.930878 1195.834717,145.094910 
	C1193.164185,149.151886 1191.213623,152.311386 1189.067993,155.332169 
	C1185.025024,161.023849 1181.048462,166.780457 1176.659790,172.198456 
	C1175.210205,173.987839 1172.713989,175.220520 1170.452393,175.993546 
	C1166.939941,177.194183 1163.218384,177.783279 1159.585449,178.631607 
	C1162.161133,180.198807 1165.685913,179.672852 1166.739624,181.044815 
	C1170.258911,185.626678 1173.656860,182.748489 1176.068481,180.936951 
	C1184.197144,174.830704 1191.786133,168.058899 1196.855347,158.959412 
	C1198.066895,156.784378 1199.682617,154.834488 1201.112427,152.781052 
	C1201.664185,153.101578 1202.216064,153.422119 1202.767944,153.742661 
	C1200.746948,157.814896 1198.982300,162.041199 1196.647461,165.924774 
	C1192.732300,172.437515 1190.527222,179.441391 1191.527710,186.892395 
	C1192.871582,196.900955 1195.040771,206.798996 1196.869263,216.741989 
	C1197.257935,218.855453 1198.145142,220.977951 1198.051758,223.062714 
	C1197.522705,234.894943 1199.854858,246.260452 1203.379639,257.428528 
	C1206.083496,265.995728 1209.738159,274.444336 1204.861938,283.421661 
	C1204.708862,283.703430 1204.531982,284.174438 1204.657593,284.374359 
	C1206.057983,286.603821 1207.515625,288.797302 1208.957886,291.000488 
	C1210.394287,289.464630 1212.042236,288.068817 1213.186523,286.339691 
	C1213.858398,285.324341 1213.987793,283.765320 1213.920044,282.473999 
	C1213.356323,271.719910 1212.676758,260.971985 1212.068237,250.220123 
	C1211.971313,248.508163 1212.054688,246.785995 1212.054688,243.958771 
	C1213.490723,245.282379 1214.091553,245.595047 1214.319214,246.082214 
	C1218.196533,254.375610 1221.998779,262.704315 1225.901733,270.985535 
	C1226.454712,272.158813 1227.448608,273.124268 1228.238403,274.185944 
	C1228.903198,272.814667 1230.126221,271.444489 1230.128906,270.071899 
	C1230.137329,265.761902 1229.810791,261.437653 1229.348267,257.147522 
	C1229.178955,255.578613 1228.663330,253.197968 1227.616333,252.729797 
	C1224.290894,251.242981 1225.091797,248.492310 1224.643188,245.986450 
	C1223.389893,238.986115 1223.098999,231.517761 1220.287842,225.184052 
	C1217.968018,219.956848 1218.234131,216.565475 1221.165771,212.158951 
	C1228.196411,201.591278 1232.308228,190.205185 1229.338745,177.207596 
	C1229.156616,176.409912 1229.475098,175.081329 1230.057129,174.599426 
	C1232.285522,172.754242 1232.188965,171.413345 1230.093628,169.364197 
	C1227.166626,166.501923 1227.487915,163.974335 1231.637451,162.209991 
	C1234.527466,160.981171 1237.395264,159.503967 1239.925415,157.660507 
	C1248.990845,151.055603 1249.172241,150.183609 1245.902588,141.167709 
	C1251.294922,140.348557 1255.640137,138.013641 1258.080078,132.822433 
	C1258.459229,132.015701 1259.862549,131.342178 1260.860107,131.234329 
	C1265.219482,130.762970 1268.138184,128.506851 1270.383789,124.820969 
	C1271.215576,123.455757 1272.932373,122.019089 1274.434570,121.773888 
	C1282.942627,120.385269 1287.560913,114.782570 1290.053223,107.293488 
	C1293.668213,96.431305 1296.577881,85.300125 1306.668457,77.197014 
	C1294.015137,77.272636 1271.691040,85.446159 1259.238525,94.180115 
	C1248.531250,101.690079 1238.959473,110.391212 1231.215088,121.004189 
	C1229.621094,123.188690 1222.156982,124.999321 1220.208008,123.337280 
	C1216.457520,120.138832 1220.444946,117.729240 1221.604614,115.207069 
	C1222.733765,112.750839 1225.633911,110.653687 1225.765991,108.287788 
	C1226.052490,103.154488 1225.068726,97.950287 1224.533325,91.984276 
	C1225.849487,89.388496 1227.678467,85.781471 1229.449585,82.288429 
	C1228.759277,82.204376 1227.716431,82.077377 1226.249634,81.898750 
	C1231.327515,76.975449 1225.559937,73.496368 1225.198608,69.325729 
	C1226.535522,68.574059 1227.737305,67.898315 1229.059082,67.155113 
	C1223.890625,63.156433 1219.040894,64.053482 1215.241821,69.306175 
	C1214.201904,70.744072 1213.222656,72.863014 1211.805908,73.281105 
	C1205.601196,75.112038 1202.402100,78.668701 1203.870728,84.951111 
	C1201.328003,85.955605 1199.326660,86.746231 1197.325317,87.536850 
	C1197.416626,87.905861 1197.507812,88.274872 1197.599121,88.643875 
	C1199.434326,88.773041 1201.269531,88.902214 1203.812134,89.081169 
	C1199.457153,94.458000 1194.428833,99.100685 1198.989380,106.417610 
	C1202.357422,111.821136 1201.031494,120.044212 1210.158936,122.567978 
	C1207.893555,124.457924 1206.501953,125.618912 1205.335693,126.591949 
	C1201.708496,122.018845 1198.678223,117.652740 1195.104126,113.790001 
	C1182.025024,99.654854 1165.647217,90.624084 1147.869019,83.834419 
	C1144.815308,82.668152 1141.774414,81.433006 1138.838257,80.002457 
	C1134.193481,77.739433 1129.651489,80.084702 1125.064575,80.081444 
	C1072.580811,80.044174 1020.097168,80.057732 967.613464,80.057732 
	C965.832153,80.057732 964.050781,80.057732 962.162598,80.057732 
	C962.162598,90.120995 962.162598,99.697220 962.162598,110.046814 
	C978.236267,110.046814 994.073853,110.046814 1009.386963,110.046814 
	C1009.592224,112.155159 1009.713318,113.398483 1009.834412,114.641808 
	C1011.196838,114.053383 1012.559265,113.464958 1015.236694,112.308563 
	C1014.443054,114.559341 1013.786499,116.103958 1013.361206,117.709816 
	C1012.855957,119.616989 1011.918091,121.717819 1012.311340,123.479462 
	C1012.846558,125.877190 1014.463867,128.033386 1016.074524,131.189285 
	C1013.396606,130.758728 1011.831848,130.409210 1010.249390,130.284973 
	C1009.072266,130.192520 1007.872253,130.391998 1006.682434,130.461456 
	C1007.597229,131.124680 1008.479858,131.840149 1009.439941,132.429626 
	C1009.940918,132.737244 1010.578003,132.823120 1010.385254,132.760834 
	C1008.326843,134.959274 1006.192444,137.238846 1004.058044,139.518402 
	C1004.359863,139.979218 1004.661682,140.440018 1004.963562,140.900833 
	C1008.287415,141.330811 1011.611328,141.760788 1014.909180,142.187393 
	C1015.229858,139.182861 1015.461853,136.749680 1015.755127,134.323898 
	C1016.162659,130.953506 1018.256897,130.016403 1021.049316,131.341187 
	C1022.875183,132.207413 1024.319336,133.878174 1025.831665,135.568909 
	C1025.927002,135.937317 1026.022339,136.305725 1026.617920,137.312790 
	C1024.107788,137.533981 1021.597595,137.755188 1019.462097,137.943375 
	C1018.291199,140.341873 1017.171082,142.636444 1016.374390,144.268402 
	C1018.273132,145.904968 1019.731323,147.161819 1021.403198,148.602814 
	C1022.764343,147.700363 1024.497803,146.551041 1026.226440,145.404984 
	C1028.634155,148.952728 1028.082642,153.670715 1025.228149,153.574982 
	C1019.813416,153.393417 1018.774109,157.227539 1017.025757,160.806839 
	C1012.999268,155.700989 1005.046570,157.650101 1004.979675,163.322159 
	C1004.914978,168.810577 1009.050293,168.106003 1012.865112,168.177551 
	C1011.523804,169.132278 1010.614380,169.779617 1010.280151,170.017502 
	C1014.078430,174.030914 1017.585999,177.737213 1020.340271,180.647568 
	C1018.845032,183.858627 1017.056396,186.062210 1016.965210,188.333969 
	C1016.864197,190.848404 1017.845581,193.562881 1014.947327,194.759430 
	C1012.841614,195.628754 1010.354736,195.574509 1008.002380,195.937531 
	C1006.934570,197.980453 1005.699585,200.343307 1004.523743,202.593079 
	C1006.051941,205.112839 1007.683716,207.803452 1009.639587,211.028427 
	C1010.112366,210.087921 1010.776184,208.767319 1011.866699,207.870773 
	C1012.010071,208.011032 1012.153381,208.151291 1012.209045,209.016434 
	C1013.187256,209.973373 1014.165466,210.930313 1014.721069,211.473831 
	C1014.617249,212.511459 1014.505920,213.624069 1014.424316,214.439972 
	C1018.443665,213.135422 1021.722778,212.071167 1025.098267,211.709869 
	C1027.653198,214.147186 1030.208008,216.584503 1033.173340,219.809845 
	C1033.675537,221.471283 1034.534912,223.116577 1034.610840,224.797256 
	C1034.813721,229.286011 1034.679932,233.789993 1034.679932,238.287918 
	C1034.679932,253.091614 1034.680054,267.895294 1034.680054,282.690857 
	C1046.789429,282.690857 1058.510864,282.690857 1070.671875,282.690857 
	C1070.671875,266.975433 1070.671875,251.573425 1070.671875,236.648010 
	C1075.342529,233.528030 1081.288208,241.016586 1084.544312,233.817749 
	C1086.168213,234.244843 1087.585083,234.617462 1089.502930,235.255844 
	C1090.051147,235.251419 1090.599365,235.246994 1091.695068,235.485703 
	C1092.088867,235.443344 1092.482666,235.400986 1093.705933,235.762711 
	C1097.645752,235.587570 1102.108276,237.650604 1105.859741,233.107529 
	C1112.135010,232.828796 1113.626099,231.834412 1114.807983,226.652115 
	C1113.500732,227.673630 1112.648193,228.816925 1111.576294,229.086075 
	C1108.607544,229.831451 1105.311523,231.922485 1102.982300,227.349762 
	C1103.237915,226.748215 1103.493652,226.146667 1104.060669,224.843765 
	C1105.689453,223.920441 1107.318359,222.997116 1109.223022,222.488220 
M169.179962,142.166641 
	C169.179962,142.166641 169.525665,142.461731 169.389755,143.232071 
	C167.308029,150.625885 165.992218,158.081451 167.408981,166.352478 
	C172.302612,166.352478 177.031448,166.352478 182.236069,166.352478 
	C182.236069,175.452118 182.236069,184.354340 182.236069,193.896027 
	C204.684937,193.896027 226.648148,193.597275 248.598785,193.993637 
	C265.188416,194.293167 276.853912,206.075058 277.680573,222.263428 
	C278.534698,238.989105 267.913300,252.582794 251.187576,254.012329 
	C238.149597,255.126678 224.940231,254.235397 211.775391,254.235397 
	C210.775879,240.514160 206.607025,234.597183 195.619141,232.158997 
	C196.151138,233.212799 196.546692,234.034515 196.974869,234.838852 
	C205.183868,250.259720 198.665512,263.871918 181.292236,266.100769 
	C174.159943,267.015747 166.662781,266.356659 159.478439,265.357544 
	C137.903580,262.357178 116.484459,258.018372 94.840393,255.812622 
	C80.895523,254.391495 66.531677,254.665833 52.593525,256.260193 
	C38.073666,257.921112 28.328239,268.028320 26.327314,280.127808 
	C27.139841,279.605988 27.833815,279.224396 28.457525,278.750336 
	C41.512890,268.827820 56.351665,264.116333 72.632057,264.119965 
	C94.216888,264.124817 115.319695,268.096680 136.370270,272.389313 
	C159.965439,277.200806 183.287628,283.720123 207.726868,283.086975 
	C228.513718,282.548431 249.360733,283.121796 270.084137,281.744171 
	C285.470978,280.721344 299.695557,274.873718 307.649536,260.512024 
	C317.090118,243.466187 319.038391,225.101059 312.395691,206.532608 
	C307.088959,191.698502 296.156769,182.129807 281.027985,176.669754 
	C295.453278,168.654877 303.764313,156.903458 306.466614,140.880920 
	C311.934052,108.463211 290.365631,81.099846 257.613373,80.606812 
	C220.967728,80.055168 184.307083,80.497559 147.652985,80.526749 
	C147.186752,80.527122 146.720734,80.782997 146.336914,80.895485 
	C146.336914,94.186066 146.336914,107.376556 146.336914,121.161766 
	C155.429840,110.445694 166.963882,108.518288 179.429047,109.034294 
	C173.506348,114.083946 167.345108,118.583023 162.096741,123.971291 
	C151.716690,134.628021 152.684845,150.884979 163.203140,160.707138 
	C165.019379,154.639877 166.932343,148.249481 169.179962,142.166641 
M1542.018799,257.483124 
	C1553.086182,242.228333 1554.741943,225.207123 1550.393188,207.548111 
	C1546.153198,190.330460 1535.220947,178.562622 1517.913330,172.337387 
	C1518.712769,171.767685 1519.090454,171.441254 1519.517334,171.202988 
	C1541.694458,158.824005 1548.458252,131.595718 1541.012207,108.960892 
	C1534.421387,88.925827 1515.373047,76.168770 1491.790161,76.094872 
	C1456.642944,75.984734 1421.495239,76.062881 1386.347656,76.082321 
	C1385.256592,76.082924 1384.165649,76.320496 1383.343750,76.416252 
	C1383.343750,144.155609 1383.343750,211.529144 1383.343750,278.941467 
	C1421.995850,278.941467 1460.304321,279.199097 1498.606567,278.825012 
	C1515.906616,278.656067 1530.616211,271.928223 1542.018799,257.483124 
M1970.893188,261.397034 
	C1972.186646,260.349884 1973.412842,259.203278 1974.785889,258.273621 
	C1979.531738,255.060638 1981.363403,251.025726 1981.256104,244.949677 
	C1980.820923,220.299179 1981.075073,195.636505 1981.075073,170.978333 
	C1981.075073,168.855148 1981.075195,166.731964 1981.075195,164.477112 
	C1952.597290,164.477112 1924.556030,164.477112 1896.437622,164.477112 
	C1896.437622,174.373657 1896.437622,183.950424 1896.437622,194.002716 
	C1912.774536,194.002716 1928.841309,194.002716 1945.157837,194.002716 
	C1945.157837,208.782196 1945.237061,223.085022 1945.029907,237.383743 
	C1945.010132,238.740005 1943.476318,240.517166 1942.168213,241.340317 
	C1933.268799,246.940384 1923.386719,249.801010 1912.987793,250.543091 
	C1885.160156,252.528870 1862.043091,243.702835 1846.597656,219.545731 
	C1833.299561,198.747482 1831.888428,175.879364 1838.809570,152.811844 
	C1846.496826,127.191292 1863.658447,110.548309 1890.415894,105.750961 
	C1916.557983,101.063896 1940.219971,107.123596 1960.693604,125.121094 
	C1967.414185,117.993950 1974.215942,110.780632 1981.797241,102.740623 
	C1974.101318,97.340790 1967.118896,91.639122 1959.413452,87.189232 
	C1938.344116,75.021561 1915.220459,72.130508 1891.406372,74.072006 
	C1861.087769,76.543816 1835.778198,88.918968 1817.025024,113.397682 
	C1800.714355,134.688385 1795.729858,159.268112 1797.149048,185.377930 
	C1798.868164,217.002884 1811.843994,242.838333 1837.465942,262.173096 
	C1871.009155,287.485474 1933.735474,289.811035 1970.893188,261.397034 
M399.500000,283.006165 
	C433.938751,283.006165 468.377502,283.006165 502.828430,283.006165 
	C502.828430,272.889618 502.828430,263.303375 502.828430,253.102737 
	C464.551117,253.102737 426.519440,253.102737 388.562103,253.102737 
	C388.562103,233.379578 388.562103,214.275833 388.562103,194.669571 
	C422.878876,194.669571 456.951813,194.669571 491.269226,194.669571 
	C491.269226,184.574539 491.269226,174.983780 491.269226,164.856262 
	C456.880585,164.856262 422.679504,164.856262 388.631531,164.856262 
	C388.631531,146.239853 388.631531,128.160751 388.631531,109.560959 
	C426.006012,109.560959 463.066254,109.560959 500.204681,109.560959 
	C500.204681,99.449631 500.204681,89.867371 500.204681,80.374023 
	C450.805695,80.374023 401.721649,80.374023 352.652649,80.374023 
	C352.652649,148.065033 352.652649,215.443466 352.652649,283.006165 
	C368.178741,283.006165 383.339386,283.006165 399.500000,283.006165 
M598.503662,238.305145 
	C625.333862,238.305145 652.164307,238.358109 678.993958,238.236328 
	C682.249634,238.221558 683.937622,239.005203 685.283081,242.248291 
	C690.561829,254.971970 696.207092,267.545288 701.867737,280.106171 
	C702.411865,281.313660 703.992371,282.857697 705.115295,282.877014 
	C716.872131,283.079102 728.633850,283.001770 740.876160,283.001770 
	C740.231506,281.410309 739.834900,280.348328 739.377258,279.313293 
	C710.520142,214.050842 681.644470,148.796570 652.844971,83.508698 
	C651.655334,80.811752 650.114319,79.927551 647.192749,79.993073 
	C638.198303,80.194801 629.177002,80.419136 620.205627,79.921608 
	C615.544861,79.663147 613.642578,81.456657 611.906128,85.402069 
	C589.714478,135.824249 567.366150,186.177444 545.067261,236.552414 
	C538.306396,251.825592 531.574890,267.111725 524.561646,282.999664 
	C536.944885,282.999664 548.707764,283.079956 560.465454,282.870605 
	C561.592712,282.850555 563.162598,281.241333 563.722046,280.005402 
	C567.824768,270.943390 571.687012,261.772919 575.698730,252.669067 
	C577.763672,247.983185 578.818909,241.597656 582.452637,239.210251 
	C586.096008,236.816528 592.379822,238.441498 598.503662,238.305145 
M899.924866,91.517990 
	C899.893005,127.832535 900.280945,164.153793 899.700745,200.459564 
	C899.208557,231.260696 881.261780,251.362442 851.888489,254.483551 
	C831.770020,256.621277 814.336609,250.692841 801.787048,233.873032 
	C793.342346,222.554779 791.093384,209.380249 791.083862,195.657349 
	C791.058411,159.008591 791.075195,122.359810 791.075195,85.711044 
	C791.075195,83.937607 791.075195,82.164169 791.075195,80.404823 
	C778.830994,80.404823 767.116760,80.404823 755.477661,80.404823 
	C755.329102,81.055870 755.194824,81.369637 755.194763,81.683441 
	C755.182556,121.330330 754.811096,160.981796 755.302490,200.622559 
	C755.651550,228.780487 766.171692,252.416779 789.670410,269.230133 
	C807.172913,281.753204 827.063416,285.921936 848.161133,285.492798 
	C876.135559,284.923798 900.279541,275.822296 918.186279,253.333298 
	C930.865479,237.409622 935.658936,218.776779 935.773438,198.865173 
	C935.991699,160.884979 935.836670,122.902634 935.836670,84.921181 
	C935.836670,83.466293 935.836731,82.011398 935.836731,80.338135 
	C923.644958,80.338135 911.930176,80.338135 899.924805,80.338135 
	C899.924805,83.913231 899.924805,87.218834 899.924866,91.517990 
M1621.234619,206.952988 
	C1620.848145,199.810959 1620.151733,192.669968 1620.127686,185.526718 
	C1620.011230,150.873795 1620.075073,116.220268 1620.075073,81.566956 
	C1620.075073,79.809158 1620.075073,78.051361 1620.075073,76.458984 
	C1607.723022,76.458984 1596.009399,76.458984 1584.159668,76.458984 
	C1584.159668,78.511086 1584.158813,80.170189 1584.160034,81.829292 
	C1584.186279,120.480392 1583.880127,159.135696 1584.369385,197.780945 
	C1584.643066,219.391220 1591.666748,238.694290 1606.680054,254.957886 
	C1636.300415,287.045319 1690.831909,287.192780 1720.615234,271.257172 
	C1751.177124,254.905029 1764.416992,228.272446 1764.750244,194.656189 
	C1765.126831,156.674545 1764.839844,118.686317 1764.825928,80.700966 
	C1764.825317,79.259018 1764.661499,77.817139 1764.576172,76.413124 
	C1752.485962,76.413124 1740.764526,76.413124 1728.924927,76.413124 
	C1728.924927,78.590462 1728.924927,80.421005 1728.924927,82.251541 
	C1728.924927,118.737480 1728.938110,155.223419 1728.917236,191.709366 
	C1728.910522,203.492706 1727.323242,214.985291 1721.313721,225.373077 
	C1709.886963,245.124786 1688.666260,254.013947 1663.220093,249.918961 
	C1641.913208,246.490051 1626.099243,230.521347 1621.234619,206.952988 
M2067.500000,279.003906 
	C2104.590576,279.003906 2141.681396,279.003906 2178.747559,279.003906 
	C2178.747559,268.856415 2178.747559,259.271637 2178.747559,249.258835 
	C2139.442139,249.258835 2100.389893,249.258835 2060.493652,249.258835 
	C2062.012207,247.160110 2063.018066,245.721725 2064.072266,244.319595 
	C2099.848633,196.744339 2135.378174,148.979248 2171.643066,101.779381 
	C2178.134277,93.330849 2176.794678,85.097252 2176.878906,76.335678 
	C2121.612793,76.335678 2066.860840,76.335678 2012.133545,76.335678 
	C2012.133545,86.182945 2012.133545,95.756027 2012.133545,105.756165 
	C2050.151123,105.756165 2087.865723,105.756165 2126.365723,105.756165 
	C2125.157715,107.434677 2124.438232,108.474648 2123.678711,109.484131 
	C2087.888184,157.044403 2052.369873,204.814453 2016.053467,251.969849 
	C2009.278564,260.766754 2009.829590,269.362518 2010.204712,279.003906 
	C2029.207642,279.003906 2047.853760,279.003906 2067.500000,279.003906 
M180.566711,218.948502 
	C176.739899,214.142120 172.891846,209.352463 169.090424,204.526108 
	C159.235764,192.014374 148.883652,179.849640 139.753998,166.828522 
	C134.298157,159.047150 131.420334,149.674271 134.103531,139.855377 
	C135.220032,135.769714 137.512131,132.005325 139.269653,128.094849 
	C136.071289,129.419281 133.168060,131.273438 131.021667,133.776596 
	C124.358749,141.546982 122.740913,150.984955 123.130539,160.847961 
	C123.255821,164.019379 123.565758,166.777817 118.290924,166.042130 
	C125.716553,171.347641 125.672142,172.296463 118.643311,177.915588 
	C117.344711,178.953735 115.949104,179.879379 114.713989,180.986099 
	C112.584236,182.894394 110.545326,184.904099 108.176880,187.147247 
	C109.345932,188.040421 109.713959,188.395340 110.146240,188.633789 
	C110.725029,188.953064 111.344078,189.206665 111.962212,189.446213 
	C121.098167,192.986618 121.098816,192.984955 115.560066,200.584183 
	C116.947380,201.585358 118.332962,202.585266 119.929733,203.737595 
	C118.637810,204.792999 117.520096,205.706085 116.171158,206.808060 
	C119.887436,210.046829 119.265823,213.878571 118.427460,217.930847 
	C117.378670,223.000168 119.182884,225.262558 124.300301,225.373795 
	C126.925255,225.430862 129.574051,224.874603 132.196396,224.488846 
	C147.324463,222.263489 161.190613,224.873703 172.095993,236.274902 
	C178.633667,243.109833 184.315109,250.763733 190.430328,258.108337 
	C193.500870,244.012100 188.357559,231.524216 180.566711,218.948502 
M151.224411,122.731285 
	C141.521835,133.623886 137.926117,145.783524 144.750717,159.393906 
	C148.601471,167.073517 152.898102,174.661301 157.985641,181.558975 
	C166.191437,192.684402 175.216278,203.205734 183.895142,213.982239 
	C184.455399,213.614319 185.015640,213.246414 185.575897,212.878510 
	C183.554382,208.777176 181.813828,204.506256 179.459412,200.605881 
	C171.995071,188.240189 164.168411,176.092850 156.728867,163.712646 
	C146.418808,146.555588 148.865036,129.035751 163.251694,115.317764 
	C164.214081,114.400116 165.396149,113.712860 166.476044,112.918457 
	C165.955093,112.377541 165.434143,111.836632 164.913193,111.295715 
	C160.514984,114.938980 156.116760,118.582245 151.224411,122.731285 
M145.993820,256.128357 
	C146.485397,257.543976 146.588043,259.809021 147.530228,260.240387 
	C154.863052,263.597595 162.561615,264.852753 170.840332,263.477570 
	C170.840332,255.771027 170.902740,248.466553 170.777573,241.165298 
	C170.757233,239.978165 170.222992,238.473129 169.389221,237.678574 
	C162.965866,231.557281 155.570679,227.667130 145.993820,228.062317 
	C145.993820,237.309052 145.993820,246.256882 145.993820,256.128357 
M1259.238159,186.908295 
	C1260.366577,185.649338 1261.495117,184.390396 1262.267822,183.528229 
	C1260.674561,181.427383 1259.126343,179.385895 1257.645264,177.433075 
	C1256.331665,179.499741 1255.004272,181.588013 1254.094238,183.019592 
	C1255.424805,185.637634 1256.620972,187.991287 1257.987427,190.679840 
	C1258.380249,189.610641 1258.744385,188.619781 1259.238159,186.908295 
M1281.666138,197.965347 
	C1282.480103,199.946320 1283.294067,201.927277 1284.382324,204.576004 
	C1285.854614,202.128723 1286.902344,200.387222 1287.923828,198.689163 
	C1286.765381,197.113312 1285.734741,195.711197 1284.494385,194.023880 
	C1283.556274,195.377914 1282.835083,196.419022 1281.666138,197.965347 
M1161.818848,206.164612 
	C1160.345337,207.599335 1158.871826,209.034058 1157.864868,210.014511 
	C1159.010376,212.113586 1159.937744,213.812866 1160.778320,215.353104 
	C1162.723267,212.967361 1163.727539,211.735443 1164.604004,210.660217 
	C1163.779297,209.389297 1162.931641,208.083267 1161.818848,206.164612 
M1110.614746,199.286087 
	C1110.203857,199.902451 1109.793091,200.518829 1109.382202,201.135193 
	C1109.783569,201.280945 1110.185059,201.426697 1110.586426,201.572449 
	C1110.804443,200.824905 1111.022461,200.077347 1110.614746,199.286087 
M1115.881348,193.065704 
	C1115.345825,193.289658 1114.810181,193.513626 1114.274658,193.737595 
	C1114.401001,194.005554 1114.527344,194.273529 1114.653687,194.541534 
	C1115.082397,194.241257 1115.511108,193.940994 1115.881348,193.065704 
M1112.364136,197.214462 
	C1112.732422,197.263763 1113.100830,197.313065 1113.468994,197.362366 
	C1113.471680,197.098221 1113.474365,196.834091 1113.477051,196.569931 
	C1113.107666,196.611420 1112.738403,196.652893 1112.364136,197.214462 
M1107.694092,227.014709 
	C1107.064209,227.104156 1106.434326,227.193588 1105.804443,227.283020 
	C1105.861206,227.514343 1105.918091,227.745667 1105.974854,227.976990 
	C1106.502441,227.822479 1107.029907,227.667984 1107.694092,227.014709 
M1116.350342,222.890686 
	C1116.091675,222.531342 1115.833008,222.171997 1115.574341,221.812622 
	C1115.422485,222.160477 1115.270752,222.508331 1115.119019,222.856186 
	C1115.545898,223.038910 1115.972900,223.221619 1116.350342,222.890686 
M1118.055420,203.663467 
	C1117.908081,203.910980 1117.760742,204.158478 1117.613403,204.406021 
	C1117.867188,204.496597 1118.121094,204.587173 1118.375000,204.677765 
	C1118.415894,204.309814 1118.456909,203.941864 1118.055420,203.663467 
z"/>
<path fill="#060606" opacity="1.000000" stroke="none" 
	d="
M1089.001831,234.990051 
	C1087.585083,234.617462 1086.168213,234.244843 1084.544312,233.817749 
	C1081.288208,241.016586 1075.342529,233.528030 1070.671875,236.648010 
	C1070.671875,251.573425 1070.671875,266.975433 1070.671875,282.690857 
	C1058.510864,282.690857 1046.789429,282.690857 1034.680054,282.690857 
	C1034.680054,267.895294 1034.679932,253.091614 1034.679932,238.287918 
	C1034.679932,233.789993 1034.813721,229.286011 1034.610840,224.797256 
	C1034.534912,223.116577 1033.675537,221.471283 1033.151367,219.069962 
	C1035.648071,213.053528 1028.544556,212.832687 1028.782227,209.076904 
	C1029.122192,206.024826 1029.462036,202.972748 1029.779297,200.123764 
	C1027.059204,198.674820 1024.518188,197.321274 1021.814392,195.881058 
	C1021.292664,197.961197 1020.700439,200.322403 1020.173767,202.422058 
	C1021.807251,202.813553 1023.371521,203.188477 1024.935791,203.563385 
	C1024.873413,203.914780 1024.811035,204.266174 1024.748657,204.617569 
	C1023.436829,205.061569 1022.124939,205.505585 1022.053162,205.529877 
	C1023.192810,207.646759 1024.097290,209.326843 1025.001831,211.006912 
	C1021.722778,212.071167 1018.443665,213.135422 1014.424316,214.439972 
	C1014.505920,213.624069 1014.617249,212.511459 1014.721069,211.473831 
	C1014.165466,210.930313 1013.187256,209.973373 1012.542969,208.479584 
	C1013.275452,207.044785 1013.674011,206.146820 1014.072571,205.248871 
	C1013.856079,205.130341 1013.639587,205.011810 1013.423035,204.893280 
	C1012.762024,205.744415 1012.100952,206.595551 1011.439941,207.446701 
	C1010.776184,208.767319 1010.112366,210.087921 1009.639587,211.028427 
	C1007.683716,207.803452 1006.051941,205.112839 1004.523743,202.593079 
	C1005.699585,200.343307 1006.934570,197.980453 1008.002380,195.937531 
	C1010.354736,195.574509 1012.841614,195.628754 1014.947327,194.759430 
	C1017.845581,193.562881 1016.864197,190.848404 1016.965210,188.333969 
	C1017.056396,186.062210 1018.845032,183.858627 1020.340271,180.647568 
	C1017.585999,177.737213 1014.078430,174.030914 1010.280151,170.017502 
	C1010.614380,169.779617 1011.523804,169.132278 1012.865112,168.177551 
	C1009.050293,168.106003 1004.914978,168.810577 1004.979675,163.322159 
	C1005.046570,157.650101 1012.999268,155.700989 1017.025757,160.806839 
	C1018.774109,157.227539 1019.813416,153.393417 1025.228149,153.574982 
	C1028.082642,153.670715 1028.634155,148.952728 1026.226440,145.404984 
	C1024.497803,146.551041 1022.764343,147.700363 1021.403198,148.602814 
	C1019.731323,147.161819 1018.273132,145.904968 1016.374390,144.268402 
	C1017.171082,142.636444 1018.291199,140.341873 1019.462097,137.943375 
	C1021.597595,137.755188 1024.107788,137.533981 1026.775513,136.753830 
	C1028.334839,137.233612 1029.736572,138.272354 1031.138306,139.311096 
	C1031.702393,139.145508 1032.266357,138.979919 1032.830322,138.814346 
	C1032.491333,135.975143 1032.056152,133.143188 1031.842407,130.294601 
	C1031.653931,127.781120 1030.656372,123.981453 1031.868042,122.971481 
	C1035.045776,120.322632 1034.867676,117.276321 1034.697388,114.037636 
	C1034.511963,110.510468 1030.351929,108.088150 1028.418457,110.555122 
	C1025.782593,113.918228 1023.107361,112.126198 1020.344971,112.393616 
	C1019.059998,112.517998 1017.457153,113.482445 1016.776855,114.558304 
	C1016.111694,115.610229 1015.968689,117.472992 1016.432617,118.650352 
	C1017.210510,120.624489 1018.707153,122.304909 1019.797302,124.169754 
	C1020.703857,125.720543 1021.460876,127.358772 1022.284058,128.958282 
	C1022.689636,128.789810 1023.095154,128.621338 1023.500732,128.452881 
	C1022.820251,125.660095 1022.139771,122.867325 1021.501587,120.247894 
	C1022.419006,119.433685 1023.352295,118.532982 1024.361694,117.727600 
	C1025.677856,116.677567 1026.906128,114.089851 1028.622559,117.312393 
	C1028.598999,117.301964 1028.568237,117.328033 1028.330566,117.602463 
	C1029.929565,119.517395 1030.320312,120.645691 1028.796875,123.367317 
	C1026.889771,126.774323 1026.805542,131.201691 1025.934326,135.188599 
	C1024.319336,133.878174 1022.875183,132.207413 1021.049316,131.341187 
	C1018.256897,130.016403 1016.162659,130.953506 1015.755127,134.323898 
	C1015.461853,136.749680 1015.229858,139.182861 1014.909180,142.187393 
	C1011.611328,141.760788 1008.287415,141.330811 1004.963562,140.900833 
	C1004.661682,140.440018 1004.359863,139.979218 1004.058044,139.518402 
	C1006.192444,137.238846 1008.326843,134.959274 1010.385254,132.760834 
	C1010.578003,132.823120 1009.940918,132.737244 1009.439941,132.429626 
	C1008.479858,131.840149 1007.597229,131.124680 1006.682434,130.461456 
	C1007.872253,130.391998 1009.072266,130.192520 1010.249390,130.284973 
	C1011.831848,130.409210 1013.396606,130.758728 1016.074524,131.189285 
	C1014.463867,128.033386 1012.846558,125.877190 1012.311340,123.479462 
	C1011.918091,121.717819 1012.855957,119.616989 1013.361206,117.709816 
	C1013.786499,116.103958 1014.443054,114.559341 1015.236694,112.308563 
	C1012.559265,113.464958 1011.196838,114.053383 1009.834351,114.641800 
	C1009.713318,113.398483 1009.592224,112.155159 1009.386963,110.046814 
	C994.073853,110.046814 978.236267,110.046814 962.162598,110.046814 
	C962.162598,99.697220 962.162598,90.120995 962.162598,80.057732 
	C964.050781,80.057732 965.832153,80.057732 967.613464,80.057732 
	C1020.097168,80.057732 1072.580811,80.044174 1125.064575,80.081444 
	C1129.651489,80.084702 1134.193481,77.739433 1138.838257,80.002457 
	C1141.774414,81.433006 1144.815308,82.668152 1147.869019,83.834419 
	C1165.647217,90.624084 1182.025024,99.654854 1195.104126,113.790001 
	C1198.678223,117.652740 1201.708496,122.018845 1205.335693,126.591949 
	C1206.501953,125.618912 1207.893555,124.457924 1210.158936,122.567978 
	C1201.031494,120.044212 1202.357422,111.821136 1198.989380,106.417610 
	C1194.428833,99.100685 1199.457153,94.458000 1203.812134,89.081169 
	C1201.269531,88.902214 1199.434326,88.773041 1197.599121,88.643875 
	C1197.507812,88.274872 1197.416626,87.905861 1197.325317,87.536850 
	C1199.326660,86.746231 1201.328003,85.955605 1203.870728,84.951111 
	C1202.402100,78.668701 1205.601196,75.112038 1211.805908,73.281105 
	C1213.222656,72.863014 1214.201904,70.744072 1215.241821,69.306175 
	C1219.040894,64.053482 1223.890625,63.156433 1229.059082,67.155113 
	C1227.737305,67.898315 1226.535522,68.574059 1225.198608,69.325729 
	C1225.559937,73.496368 1231.327515,76.975449 1226.249634,81.898750 
	C1227.716431,82.077377 1228.759277,82.204376 1229.449585,82.288429 
	C1227.678467,85.781471 1225.849487,89.388496 1224.533325,91.984276 
	C1225.068726,97.950287 1226.052490,103.154488 1225.765991,108.287788 
	C1225.633911,110.653687 1222.733765,112.750839 1221.604614,115.207069 
	C1220.444946,117.729240 1216.457520,120.138832 1220.208008,123.337280 
	C1222.156982,124.999321 1229.621094,123.188690 1231.215088,121.004189 
	C1238.959473,110.391212 1248.531250,101.690079 1259.238525,94.180115 
	C1271.691040,85.446159 1294.015137,77.272636 1306.668457,77.197014 
	C1296.577881,85.300125 1293.668213,96.431305 1290.053223,107.293488 
	C1287.560913,114.782570 1282.942627,120.385269 1274.434570,121.773888 
	C1272.932373,122.019089 1271.215576,123.455757 1270.383789,124.820969 
	C1268.138184,128.506851 1265.219482,130.762970 1260.860107,131.234329 
	C1259.862549,131.342178 1258.459229,132.015701 1258.080078,132.822433 
	C1255.640137,138.013641 1251.294922,140.348557 1245.902588,141.167709 
	C1249.172241,150.183609 1248.990845,151.055603 1239.925415,157.660507 
	C1237.395264,159.503967 1234.527466,160.981171 1231.637451,162.209991 
	C1227.487915,163.974335 1227.166626,166.501923 1230.093628,169.364197 
	C1232.188965,171.413345 1232.285522,172.754242 1230.057129,174.599426 
	C1229.475098,175.081329 1229.156616,176.409912 1229.338745,177.207596 
	C1232.308228,190.205185 1228.196411,201.591278 1221.165771,212.158951 
	C1218.234131,216.565475 1217.968018,219.956848 1220.287842,225.184052 
	C1223.098999,231.517761 1223.389893,238.986115 1224.643188,245.986450 
	C1225.091797,248.492310 1224.290894,251.242981 1227.616333,252.729797 
	C1228.663330,253.197968 1229.178955,255.578613 1229.348267,257.147522 
	C1229.810791,261.437653 1230.137329,265.761902 1230.128906,270.071899 
	C1230.126221,271.444489 1228.903198,272.814667 1228.238403,274.185913 
	C1227.448608,273.124268 1226.454712,272.158813 1225.901733,270.985535 
	C1221.998779,262.704315 1218.196533,254.375610 1214.319214,246.082214 
	C1214.091553,245.595047 1213.490723,245.282379 1212.054688,243.958771 
	C1212.054688,246.785995 1211.971313,248.508163 1212.068237,250.220123 
	C1212.676758,260.971985 1213.356323,271.719910 1213.920044,282.473999 
	C1213.987793,283.765320 1213.858398,285.324341 1213.186523,286.339691 
	C1212.042236,288.068817 1210.394287,289.464630 1208.957886,291.000488 
	C1207.515625,288.797302 1206.057983,286.603821 1204.657593,284.374359 
	C1204.531982,284.174438 1204.708862,283.703430 1204.861938,283.421661 
	C1209.738159,274.444336 1206.083496,265.995728 1203.379639,257.428528 
	C1199.854858,246.260452 1197.522705,234.894943 1198.051758,223.062714 
	C1198.145142,220.977951 1197.257935,218.855453 1196.869263,216.741989 
	C1195.040771,206.798996 1192.871582,196.900955 1191.527710,186.892395 
	C1190.527222,179.441391 1192.732300,172.437515 1196.647461,165.924774 
	C1198.982300,162.041199 1200.746948,157.814896 1202.767944,153.742661 
	C1202.216064,153.422119 1201.664185,153.101578 1201.112427,152.781052 
	C1199.682617,154.834488 1198.066895,156.784378 1196.855347,158.959412 
	C1191.786133,168.058899 1184.197144,174.830704 1176.068481,180.936951 
	C1173.656860,182.748489 1170.258911,185.626678 1166.739624,181.044815 
	C1165.685913,179.672852 1162.161133,180.198807 1159.585449,178.631607 
	C1163.218384,177.783279 1166.939941,177.194183 1170.452393,175.993546 
	C1172.713989,175.220520 1175.210205,173.987839 1176.659790,172.198456 
	C1181.048462,166.780457 1185.025024,161.023849 1189.067993,155.332169 
	C1191.213623,152.311386 1193.164185,149.151886 1195.834717,145.094910 
	C1187.814087,144.930878 1182.998657,141.972702 1180.293579,135.869537 
	C1180.071289,135.368149 1179.291260,134.835648 1178.739746,134.800705 
	C1171.797974,134.360855 1168.934448,130.001511 1168.210205,123.064995 
	C1157.158081,125.077370 1149.795044,120.035080 1144.336426,111.208191 
	C1143.806885,110.351715 1142.143311,109.784050 1141.003174,109.778915 
	C1121.859497,109.692696 1102.715454,109.717331 1083.120361,109.717331 
	C1082.936279,114.058723 1084.644897,117.725121 1088.344604,118.332283 
	C1092.406616,118.998878 1092.789307,121.478226 1092.886597,124.090523 
	C1093.030884,127.964645 1092.431519,131.866455 1092.073364,136.795349 
	C1096.941772,134.116379 1101.483032,131.617493 1106.024292,129.118607 
	C1106.317993,129.593781 1106.611694,130.068954 1106.905396,130.544128 
	C1104.927002,131.856064 1102.948730,133.167999 1100.878540,134.540802 
	C1101.584717,135.066574 1102.258667,135.568314 1102.964478,136.093781 
	C1102.547119,136.512436 1102.363159,136.869019 1102.135742,136.899185 
	C1099.166992,137.293106 1096.200928,137.807556 1093.216919,137.967270 
	C1085.731079,138.367905 1080.436890,141.878799 1076.929565,148.497849 
	C1073.538086,154.898041 1071.596313,161.562637 1071.844971,170.212921 
	C1077.362549,164.844681 1082.058716,160.195358 1086.869873,155.668213 
	C1087.742065,154.847473 1089.085205,154.527084 1090.845093,154.282043 
	C1092.652222,153.394455 1093.825073,152.200531 1094.997925,151.006607 
	C1099.456909,154.499008 1096.619141,157.164642 1093.330566,159.930954 
	C1091.660156,159.485550 1090.654419,158.963684 1089.263916,158.242126 
	C1089.140869,159.797272 1089.057007,160.856445 1088.973267,161.915634 
	C1088.113892,162.587891 1087.156250,163.936768 1086.410400,163.828308 
	C1078.462402,162.672668 1075.150879,169.355240 1071.829956,173.885849 
	C1069.425537,177.166092 1070.631104,183.092514 1070.226807,187.838913 
	C1070.702393,187.930511 1071.177979,188.022125 1071.653442,188.113724 
	C1072.054443,187.340286 1072.455322,186.566833 1073.237061,185.428711 
	C1073.617920,185.064041 1074.064209,185.011826 1074.062744,185.427597 
	C1073.450684,192.484283 1078.858765,196.540756 1081.027832,202.373779 
	C1081.554932,204.028152 1082.053345,205.309189 1082.646973,206.834717 
	C1083.163696,203.340927 1083.629517,200.190323 1084.429688,197.026215 
	C1086.220581,197.253540 1087.677368,197.494385 1089.116699,198.158691 
	C1087.589111,202.611191 1092.205933,202.904739 1093.170288,205.686584 
	C1093.740356,206.685349 1094.384033,207.377777 1095.018433,208.037842 
	C1095.009033,208.005478 1094.984863,208.068207 1094.894409,208.297729 
	C1094.803955,208.527267 1094.541016,208.944794 1094.275024,209.120483 
	C1091.406006,210.679321 1091.856689,212.268967 1094.333618,212.604584 
	C1099.858521,213.353195 1105.456543,213.561279 1111.364258,214.118744 
	C1115.618774,216.710266 1117.787354,216.344788 1120.247681,212.807953 
	C1120.247681,212.807953 1120.678711,212.698135 1121.096924,212.671326 
	C1122.013672,212.750961 1122.512207,212.857422 1123.051514,213.183380 
	C1123.225586,213.740707 1123.468140,213.864563 1124.137207,213.850006 
	C1124.671753,213.915024 1124.889038,213.904495 1125.066406,213.950012 
	C1125.026489,214.006073 1125.120972,213.904312 1125.171387,214.267517 
	C1125.174805,215.115967 1125.127808,215.601212 1125.080933,216.086456 
	C1120.820068,216.633057 1116.549805,217.666885 1112.300903,217.585648 
	C1108.262085,217.508408 1104.257568,216.179749 1100.209473,215.602066 
	C1099.323853,215.475708 1098.316772,216.199371 1097.442627,217.049911 
	C1093.549683,216.705856 1090.421875,218.057053 1087.622314,221.215164 
	C1085.835815,222.940598 1084.401733,224.649017 1082.967773,226.357452 
	C1085.466431,227.865341 1087.902100,229.496933 1090.495850,230.818085 
	C1091.484497,231.321594 1092.835938,231.112946 1093.968262,231.537582 
	C1093.568359,233.017075 1093.222412,234.187836 1092.876465,235.358612 
	C1092.482666,235.400986 1092.088867,235.443344 1091.390625,235.117905 
	C1090.391357,234.830093 1089.696655,234.910080 1089.001831,234.990051 
M1082.015503,231.030426 
	C1082.015503,231.030426 1082.055908,231.094513 1081.650513,230.474701 
	C1080.664795,228.510010 1079.679077,226.545303 1078.808350,224.809860 
	C1075.732056,226.343567 1073.328247,227.541992 1070.744385,228.830200 
	C1070.321167,233.438080 1074.210693,235.798416 1079.300781,233.481384 
	C1080.351196,233.003220 1081.084595,231.828461 1082.015503,231.030426 
M1028.731079,157.263138 
	C1021.935974,154.933014 1021.295105,155.240707 1021.274292,161.180664 
	C1022.454163,161.180664 1023.661682,161.180664 1025.036743,161.180664 
	C1025.036743,162.665283 1025.036743,163.810654 1024.785889,165.318665 
	C1024.710083,165.645416 1024.506470,165.834167 1024.079224,165.126953 
	C1022.543396,164.594421 1021.007507,164.061905 1019.471680,163.529373 
	C1020.004578,164.899689 1020.355774,166.384064 1021.123413,167.607025 
	C1021.838867,168.746857 1022.997253,169.608612 1024.242920,171.317871 
	C1026.835205,171.574905 1029.791138,174.362946 1031.841553,170.557999 
	C1034.532471,165.564545 1033.683472,162.075882 1028.731079,157.263138 
M1070.490723,111.625694 
	C1071.760254,123.613708 1067.803223,136.068542 1073.775146,147.975220 
	C1074.849487,146.978088 1076.017334,146.244080 1076.703735,145.195053 
	C1079.328369,141.183609 1082.242798,137.891708 1086.835327,135.625061 
	C1092.097412,133.027893 1092.401489,124.813103 1087.650024,121.299858 
	C1083.640869,118.335403 1079.863770,115.614723 1080.915283,109.134590 
	C1076.820312,109.771538 1073.691895,110.258141 1070.490723,111.625694 
M1070.413696,204.324860 
	C1070.413696,206.453644 1070.413696,208.582428 1070.413696,211.229950 
	C1073.400391,211.229950 1076.078735,211.229950 1079.126831,211.229950 
	C1078.559814,207.548630 1078.660767,204.036621 1077.402466,201.108841 
	C1075.894287,197.599625 1073.226440,194.588882 1070.413696,190.398117 
	C1070.413696,195.313858 1070.413696,199.345963 1070.413696,204.324860 
M1225.105591,151.530060 
	C1220.215210,160.455017 1220.215210,160.455017 1222.219360,163.968124 
	C1227.008423,157.951233 1231.732178,152.016342 1236.415039,146.132843 
	C1231.041138,140.519318 1229.727295,140.739166 1227.137451,147.251190 
	C1226.646606,148.485489 1226.048828,149.677246 1225.105591,151.530060 
M1034.673828,183.287292 
	C1034.673828,182.007126 1034.673828,180.726974 1034.673828,178.921707 
	C1031.730591,179.332001 1029.110107,179.697296 1026.693481,180.034164 
	C1027.280151,185.023102 1030.632690,184.523956 1034.673828,183.287292 
M1082.517944,222.562515 
	C1082.517944,222.562515 1082.533691,222.489182 1082.517944,222.562515 
z"/>
<path fill="#020202" opacity="1.000000" stroke="none" 
	d="
M1541.796875,257.764709 
	C1530.616211,271.928223 1515.906616,278.656067 1498.606567,278.825012 
	C1460.304321,279.199097 1421.995850,278.941467 1383.343750,278.941467 
	C1383.343750,211.529144 1383.343750,144.155609 1383.343750,76.416252 
	C1384.165649,76.320496 1385.256592,76.082924 1386.347656,76.082321 
	C1421.495239,76.062881 1456.642944,75.984734 1491.790161,76.094872 
	C1515.373047,76.168770 1534.421387,88.925827 1541.012207,108.960892 
	C1548.458252,131.595718 1541.694458,158.824005 1519.517334,171.202988 
	C1519.090454,171.441254 1518.712769,171.767685 1517.913330,172.337387 
	C1535.220947,178.562622 1546.153198,190.330460 1550.393188,207.548111 
	C1554.741943,225.207123 1553.086182,242.228333 1541.796875,257.764709 
M1507.263916,239.725372 
	C1514.108643,231.761490 1515.434692,222.349960 1513.517212,212.542068 
	C1510.697510,198.118988 1498.870728,189.287216 1482.481079,189.126282 
	C1463.349487,188.938416 1444.214722,189.076996 1425.081421,189.074020 
	C1423.139160,189.073715 1421.196899,189.073975 1419.186035,189.073975 
	C1419.186035,209.806488 1419.186035,230.028717 1419.186035,250.411011 
	C1441.216309,250.411011 1462.993164,250.560501 1484.766235,250.337128 
	C1493.421265,250.248337 1500.885132,246.777557 1507.263916,239.725372 
M1486.954224,158.803146 
	C1501.435669,154.328690 1508.505859,143.590363 1506.902344,128.505066 
	C1505.440552,114.752327 1495.448730,105.335274 1480.698608,104.724648 
	C1468.557129,104.222008 1456.381470,104.533302 1444.220947,104.504517 
	C1435.921509,104.484871 1427.622070,104.500771 1419.134277,104.500771 
	C1419.134277,123.029236 1419.134277,141.114944 1419.134277,158.962479 
	C1441.604980,158.962479 1463.867920,158.962479 1486.954224,158.803146 
z"/>
<path fill="#030303" opacity="1.000000" stroke="none" 
	d="
M168.845306,141.859085 
	C166.932343,148.249481 165.019379,154.639877 163.203140,160.707138 
	C152.684845,150.884979 151.716690,134.628021 162.096741,123.971291 
	C167.345108,118.583023 173.506348,114.083946 179.429047,109.034294 
	C166.963882,108.518288 155.429840,110.445694 146.336914,121.161766 
	C146.336914,107.376556 146.336914,94.186066 146.336914,80.895485 
	C146.720734,80.782997 147.186752,80.527122 147.652985,80.526749 
	C184.307083,80.497559 220.967728,80.055168 257.613373,80.606812 
	C290.365631,81.099846 311.934052,108.463211 306.466614,140.880920 
	C303.764313,156.903458 295.453278,168.654877 281.027985,176.669754 
	C296.156769,182.129807 307.088959,191.698502 312.395691,206.532608 
	C319.038391,225.101059 317.090118,243.466187 307.649536,260.512024 
	C299.695557,274.873718 285.470978,280.721344 270.084137,281.744171 
	C249.360733,283.121796 228.513718,282.548431 207.726868,283.086975 
	C183.287628,283.720123 159.965439,277.200806 136.370270,272.389313 
	C115.319695,268.096680 94.216888,264.124817 72.632057,264.119965 
	C56.351665,264.116333 41.512890,268.827820 28.457525,278.750336 
	C27.833815,279.224396 27.139841,279.605988 26.327314,280.127808 
	C28.328239,268.028320 38.073666,257.921112 52.593525,256.260193 
	C66.531677,254.665833 80.895523,254.391495 94.840393,255.812622 
	C116.484459,258.018372 137.903580,262.357178 159.478439,265.357544 
	C166.662781,266.356659 174.159943,267.015747 181.292236,266.100769 
	C198.665512,263.871918 205.183868,250.259720 196.974869,234.838852 
	C196.546692,234.034515 196.151138,233.212799 195.619141,232.158997 
	C206.607025,234.597183 210.775879,240.514160 211.775391,254.235397 
	C224.940231,254.235397 238.149597,255.126678 251.187576,254.012329 
	C267.913300,252.582794 278.534698,238.989105 277.680573,222.263428 
	C276.853912,206.075058 265.188416,194.293167 248.598785,193.993637 
	C226.648148,193.597275 204.684937,193.896027 182.236069,193.896027 
	C182.236069,184.354340 182.236069,175.452118 182.236069,166.352478 
	C177.031448,166.352478 172.302612,166.352478 167.408981,166.352478 
	C165.992218,158.081451 167.308029,150.625885 169.642685,142.589600 
	C169.858597,141.359695 169.821594,140.772263 169.694870,138.760590 
	C169.159576,140.712891 169.002441,141.285995 168.845306,141.859085 
M226.499390,108.837494 
	C219.843460,108.869209 213.184448,108.802422 206.534119,109.011978 
	C205.127472,109.056297 203.168060,109.716209 202.458893,110.765404 
	C198.138763,117.156883 194.988388,123.997017 194.895157,131.992630 
	C194.769226,142.793060 195.477448,153.816711 187.357773,163.925781 
	C206.499893,163.925781 224.462418,164.169006 242.413528,163.821701 
	C251.200424,163.651703 259.803040,161.696518 265.218414,153.752594 
	C271.766418,144.147125 271.944427,133.530441 267.415436,123.332924 
	C263.198639,113.838379 254.578125,109.771019 244.465744,109.127914 
	C238.826889,108.769302 233.155792,108.917625 226.499390,108.837494 
z"/>
<path fill="#020202" opacity="1.000000" stroke="none" 
	d="
M1970.614746,261.624115 
	C1933.735474,289.811035 1871.009155,287.485474 1837.465942,262.173096 
	C1811.843994,242.838333 1798.868164,217.002884 1797.149048,185.377930 
	C1795.729858,159.268112 1800.714355,134.688385 1817.025024,113.397682 
	C1835.778198,88.918968 1861.087769,76.543816 1891.406372,74.072006 
	C1915.220459,72.130508 1938.344116,75.021561 1959.413452,87.189232 
	C1967.118896,91.639122 1974.101318,97.340790 1981.797241,102.740623 
	C1974.215942,110.780632 1967.414185,117.993950 1960.693604,125.121094 
	C1940.219971,107.123596 1916.557983,101.063896 1890.415894,105.750961 
	C1863.658447,110.548309 1846.496826,127.191292 1838.809570,152.811844 
	C1831.888428,175.879364 1833.299561,198.747482 1846.597656,219.545731 
	C1862.043091,243.702835 1885.160156,252.528870 1912.987793,250.543091 
	C1923.386719,249.801010 1933.268799,246.940384 1942.168213,241.340317 
	C1943.476318,240.517166 1945.010132,238.740005 1945.029907,237.383743 
	C1945.237061,223.085022 1945.157837,208.782196 1945.157837,194.002716 
	C1928.841309,194.002716 1912.774536,194.002716 1896.437622,194.002716 
	C1896.437622,183.950424 1896.437622,174.373657 1896.437622,164.477112 
	C1924.556030,164.477112 1952.597290,164.477112 1981.075195,164.477112 
	C1981.075195,166.731964 1981.075073,168.855148 1981.075073,170.978333 
	C1981.075073,195.636505 1980.820923,220.299179 1981.256104,244.949677 
	C1981.363403,251.025726 1979.531738,255.060638 1974.785889,258.273621 
	C1973.412842,259.203278 1972.186646,260.349884 1970.614746,261.624115 
z"/>
<path fill="#040404" opacity="1.000000" stroke="none" 
	d="
M399.000000,283.006165 
	C383.339386,283.006165 368.178741,283.006165 352.652649,283.006165 
	C352.652649,215.443466 352.652649,148.065033 352.652649,80.374023 
	C401.721649,80.374023 450.805695,80.374023 500.204681,80.374023 
	C500.204681,89.867371 500.204681,99.449631 500.204681,109.560959 
	C463.066254,109.560959 426.006012,109.560959 388.631531,109.560959 
	C388.631531,128.160751 388.631531,146.239853 388.631531,164.856262 
	C422.679504,164.856262 456.880585,164.856262 491.269226,164.856262 
	C491.269226,174.983780 491.269226,184.574539 491.269226,194.669571 
	C456.951813,194.669571 422.878876,194.669571 388.562103,194.669571 
	C388.562103,214.275833 388.562103,233.379578 388.562103,253.102737 
	C426.519440,253.102737 464.551117,253.102737 502.828430,253.102737 
	C502.828430,263.303375 502.828430,272.889618 502.828430,283.006165 
	C468.377502,283.006165 433.938751,283.006165 399.000000,283.006165 
z"/>
<path fill="#020202" opacity="1.000000" stroke="none" 
	d="
M598.005005,238.305145 
	C592.379822,238.441498 586.096008,236.816528 582.452637,239.210251 
	C578.818909,241.597656 577.763672,247.983185 575.698730,252.669067 
	C571.687012,261.772919 567.824768,270.943390 563.722046,280.005402 
	C563.162598,281.241333 561.592712,282.850555 560.465454,282.870605 
	C548.707764,283.079956 536.944885,282.999664 524.561646,282.999664 
	C531.574890,267.111725 538.306396,251.825592 545.067261,236.552414 
	C567.366150,186.177444 589.714478,135.824249 611.906128,85.402069 
	C613.642578,81.456657 615.544861,79.663147 620.205627,79.921608 
	C629.177002,80.419136 638.198303,80.194801 647.192749,79.993073 
	C650.114319,79.927551 651.655334,80.811752 652.844971,83.508698 
	C681.644470,148.796570 710.520142,214.050842 739.377258,279.313293 
	C739.834900,280.348328 740.231506,281.410309 740.876160,283.001770 
	C728.633850,283.001770 716.872131,283.079102 705.115295,282.877014 
	C703.992371,282.857697 702.411865,281.313660 701.867737,280.106171 
	C696.207092,267.545288 690.561829,254.971970 685.283081,242.248291 
	C683.937622,239.005203 682.249634,238.221558 678.993958,238.236328 
	C652.164307,238.358109 625.333862,238.305145 598.005005,238.305145 
M650.499390,208.704803 
	C657.045166,208.704803 663.590942,208.704803 670.889893,208.704803 
	C658.101868,179.265427 645.722778,150.767441 632.912537,121.276955 
	C620.059509,150.874939 607.640381,179.473724 594.946655,208.704803 
	C613.623657,208.704803 631.561646,208.704803 650.499390,208.704803 
z"/>
<path fill="#020202" opacity="1.000000" stroke="none" 
	d="
M899.924805,91.021210 
	C899.924805,87.218834 899.924805,83.913231 899.924805,80.338135 
	C911.930176,80.338135 923.644958,80.338135 935.836731,80.338135 
	C935.836731,82.011398 935.836670,83.466293 935.836670,84.921181 
	C935.836670,122.902634 935.991699,160.884979 935.773438,198.865173 
	C935.658936,218.776779 930.865479,237.409622 918.186279,253.333298 
	C900.279541,275.822296 876.135559,284.923798 848.161133,285.492798 
	C827.063416,285.921936 807.172913,281.753204 789.670410,269.230133 
	C766.171692,252.416779 755.651550,228.780487 755.302490,200.622559 
	C754.811096,160.981796 755.182556,121.330330 755.194763,81.683441 
	C755.194824,81.369637 755.329102,81.055870 755.477661,80.404823 
	C767.116760,80.404823 778.830994,80.404823 791.075195,80.404823 
	C791.075195,82.164169 791.075195,83.937607 791.075195,85.711044 
	C791.075195,122.359810 791.058411,159.008591 791.083862,195.657349 
	C791.093384,209.380249 793.342346,222.554779 801.787048,233.873032 
	C814.336609,250.692841 831.770020,256.621277 851.888489,254.483551 
	C881.261780,251.362442 899.208557,231.260696 899.700745,200.459564 
	C900.280945,164.153793 899.893005,127.832535 899.924805,91.021210 
z"/>
<path fill="#020202" opacity="1.000000" stroke="none" 
	d="
M1621.360107,207.364563 
	C1626.099243,230.521347 1641.913208,246.490051 1663.220093,249.918961 
	C1688.666260,254.013947 1709.886963,245.124786 1721.313721,225.373077 
	C1727.323242,214.985291 1728.910522,203.492706 1728.917236,191.709366 
	C1728.938110,155.223419 1728.924927,118.737480 1728.924927,82.251541 
	C1728.924927,80.421005 1728.924927,78.590462 1728.924927,76.413124 
	C1740.764526,76.413124 1752.485962,76.413124 1764.576172,76.413124 
	C1764.661499,77.817139 1764.825317,79.259018 1764.825928,80.700966 
	C1764.839844,118.686317 1765.126831,156.674545 1764.750244,194.656189 
	C1764.416992,228.272446 1751.177124,254.905029 1720.615234,271.257172 
	C1690.831909,287.192780 1636.300415,287.045319 1606.680054,254.957886 
	C1591.666748,238.694290 1584.643066,219.391220 1584.369385,197.780945 
	C1583.880127,159.135696 1584.186279,120.480392 1584.160034,81.829292 
	C1584.158813,80.170189 1584.159668,78.511086 1584.159668,76.458984 
	C1596.009399,76.458984 1607.723022,76.458984 1620.075073,76.458984 
	C1620.075073,78.051361 1620.075073,79.809158 1620.075073,81.566956 
	C1620.075073,116.220268 1620.011230,150.873795 1620.127686,185.526718 
	C1620.151733,192.669968 1620.848145,199.810959 1621.360107,207.364563 
z"/>
<path fill="#020202" opacity="1.000000" stroke="none" 
	d="
M2067.000000,279.003906 
	C2047.853760,279.003906 2029.207642,279.003906 2010.204712,279.003906 
	C2009.829590,269.362518 2009.278564,260.766754 2016.053467,251.969849 
	C2052.369873,204.814453 2087.888184,157.044403 2123.678711,109.484131 
	C2124.438232,108.474648 2125.157715,107.434677 2126.365723,105.756165 
	C2087.865723,105.756165 2050.151123,105.756165 2012.133545,105.756165 
	C2012.133545,95.756027 2012.133545,86.182945 2012.133545,76.335678 
	C2066.860840,76.335678 2121.612793,76.335678 2176.878906,76.335678 
	C2176.794678,85.097252 2178.134277,93.330849 2171.643066,101.779381 
	C2135.378174,148.979248 2099.848633,196.744339 2064.072266,244.319595 
	C2063.018066,245.721725 2062.012207,247.160110 2060.493652,249.258835 
	C2100.389893,249.258835 2139.442139,249.258835 2178.747559,249.258835 
	C2178.747559,259.271637 2178.747559,268.856415 2178.747559,279.003906 
	C2141.681396,279.003906 2104.590576,279.003906 2067.000000,279.003906 
z"/>
<path fill="#030303" opacity="1.000000" stroke="none" 
	d="
M180.773148,219.246887 
	C188.357559,231.524216 193.500870,244.012100 190.430328,258.108337 
	C184.315109,250.763733 178.633667,243.109833 172.095993,236.274902 
	C161.190613,224.873703 147.324463,222.263489 132.196396,224.488846 
	C129.574051,224.874603 126.925255,225.430862 124.300301,225.373795 
	C119.182884,225.262558 117.378670,223.000168 118.427460,217.930847 
	C119.265823,213.878571 119.887436,210.046829 116.171158,206.808060 
	C117.520096,205.706085 118.637810,204.792999 119.929733,203.737595 
	C118.332962,202.585266 116.947380,201.585358 115.560066,200.584183 
	C121.098816,192.984955 121.098167,192.986618 111.962212,189.446213 
	C111.344078,189.206665 110.725029,188.953064 110.146240,188.633789 
	C109.713959,188.395340 109.345932,188.040421 108.176880,187.147247 
	C110.545326,184.904099 112.584236,182.894394 114.713989,180.986099 
	C115.949104,179.879379 117.344711,178.953735 118.643311,177.915588 
	C125.672142,172.296463 125.716553,171.347641 118.290924,166.042130 
	C123.565758,166.777817 123.255821,164.019379 123.130539,160.847961 
	C122.740913,150.984955 124.358749,141.546982 131.021667,133.776596 
	C133.168060,131.273438 136.071289,129.419281 139.269653,128.094849 
	C137.512131,132.005325 135.220032,135.769714 134.103531,139.855377 
	C131.420334,149.674271 134.298157,159.047150 139.753998,166.828522 
	C148.883652,179.849640 159.235764,192.014374 169.090424,204.526108 
	C172.891846,209.352463 176.739899,214.142120 180.773148,219.246887 
z"/>
<path fill="#0B0B0B" opacity="1.000000" stroke="none" 
	d="
M151.471481,122.478394 
	C156.116760,118.582245 160.514984,114.938980 164.913193,111.295715 
	C165.434143,111.836632 165.955093,112.377541 166.476044,112.918457 
	C165.396149,113.712860 164.214081,114.400116 163.251694,115.317764 
	C148.865036,129.035751 146.418808,146.555588 156.728867,163.712646 
	C164.168411,176.092850 171.995071,188.240189 179.459412,200.605881 
	C181.813828,204.506256 183.554382,208.777176 185.575897,212.878510 
	C185.015640,213.246414 184.455399,213.614319 183.895142,213.982239 
	C175.216278,203.205734 166.191437,192.684402 157.985641,181.558975 
	C152.898102,174.661301 148.601471,167.073517 144.750717,159.393906 
	C137.926117,145.783524 141.521835,133.623886 151.471481,122.478394 
z"/>
<path fill="#040404" opacity="1.000000" stroke="none" 
	d="
M145.993820,255.666534 
	C145.993820,246.256882 145.993820,237.309052 145.993820,228.062317 
	C155.570679,227.667130 162.965866,231.557281 169.389221,237.678574 
	C170.222992,238.473129 170.757233,239.978165 170.777573,241.165298 
	C170.902740,248.466553 170.840332,255.771027 170.840332,263.477570 
	C162.561615,264.852753 154.863052,263.597595 147.530228,260.240387 
	C146.588043,259.809021 146.485397,257.543976 145.993820,255.666534 
z"/>
<path fill="#F4F4F4" opacity="1.000000" stroke="none" 
	d="
M1089.134155,197.735214 
	C1087.677368,197.494385 1086.220581,197.253540 1084.058960,197.057587 
	C1082.569214,198.735107 1081.784180,200.367783 1080.999146,202.000458 
	C1078.858765,196.540756 1073.450684,192.484283 1074.322021,185.300232 
	C1075.042969,184.166275 1075.503052,183.575424 1076.244873,182.996063 
	C1076.713623,183.024323 1076.900757,183.041092 1077.117676,183.368942 
	C1077.163086,184.303772 1077.178589,184.927505 1077.152832,186.004517 
	C1077.126953,186.760834 1077.142334,187.063873 1077.135986,187.711548 
	C1078.304810,190.171066 1079.495361,192.285980 1080.685913,194.400894 
	C1081.170410,194.146286 1081.654785,193.891678 1082.139160,193.637070 
	C1081.064697,189.876389 1081.027344,185.693314 1077.046143,182.828125 
	C1077.022827,182.353333 1077.006104,182.164337 1077.086060,181.637726 
	C1077.930542,180.442200 1078.611938,179.513428 1079.438354,178.739243 
	C1082.311890,176.047119 1087.808594,175.361786 1089.049927,177.926880 
	C1090.279419,180.467667 1091.691040,178.711884 1092.986694,178.963470 
	C1092.991089,179.138596 1092.995483,179.313736 1092.748047,179.865433 
	C1092.271851,180.714996 1092.047729,181.187973 1091.823486,181.660950 
	C1092.545776,181.437576 1093.267944,181.214233 1093.994507,181.248642 
	C1093.999146,181.678268 1093.999634,181.850113 1093.998901,182.299866 
	C1093.994507,182.948227 1093.991089,183.318695 1093.687256,183.887939 
	C1093.941406,184.405716 1094.495972,184.724716 1095.061768,184.998383 
	C1095.072876,184.953049 1095.007446,184.886475 1094.667358,185.165466 
	C1098.370728,193.350372 1096.430908,197.941559 1089.134155,197.735214 
z"/>
<path fill="#E9E9E9" opacity="1.000000" stroke="none" 
	d="
M1028.645996,117.322830 
	C1026.906128,114.089851 1025.677856,116.677567 1024.361694,117.727600 
	C1023.352295,118.532982 1022.419006,119.433685 1021.501587,120.247894 
	C1022.139771,122.867325 1022.820251,125.660095 1023.500732,128.452881 
	C1023.095154,128.621338 1022.689636,128.789810 1022.284058,128.958282 
	C1021.460876,127.358772 1020.703857,125.720543 1019.797302,124.169754 
	C1018.707153,122.304909 1017.210510,120.624489 1016.432617,118.650352 
	C1015.968689,117.472992 1016.111694,115.610229 1016.776855,114.558304 
	C1017.457153,113.482445 1019.059998,112.517998 1020.344971,112.393616 
	C1023.107361,112.126198 1025.782593,113.918228 1028.418457,110.555122 
	C1030.351929,108.088150 1034.511963,110.510468 1034.697388,114.037636 
	C1034.867676,117.276321 1035.045776,120.322632 1031.868042,122.971481 
	C1030.656372,123.981453 1031.653931,127.781120 1031.842407,130.294601 
	C1032.056152,133.143188 1032.491333,135.975143 1032.830322,138.814346 
	C1032.266357,138.979919 1031.702393,139.145508 1031.138306,139.311096 
	C1029.736572,138.272354 1028.334839,137.233612 1026.525391,136.434509 
	C1026.022339,136.305725 1025.927002,135.937317 1025.883057,135.378754 
	C1026.805542,131.201691 1026.889771,126.774323 1028.796875,123.367317 
	C1030.320312,120.645691 1029.929565,119.517395 1028.532227,117.233185 
	C1028.766235,116.112968 1028.561157,115.636475 1028.355957,115.159981 
	C1027.994751,115.431145 1027.633423,115.702316 1027.272217,115.973480 
	C1027.730103,116.423256 1028.188110,116.873039 1028.645996,117.322830 
z"/>
<path fill="#E9E9E9" opacity="1.000000" stroke="none" 
	d="
M1025.050049,211.358398 
	C1024.097290,209.326843 1023.192810,207.646759 1022.053162,205.529877 
	C1022.124939,205.505585 1023.436829,205.061569 1024.748657,204.617569 
	C1024.811035,204.266174 1024.873413,203.914780 1024.935791,203.563385 
	C1023.371521,203.188477 1021.807251,202.813553 1020.173767,202.422058 
	C1020.700439,200.322403 1021.292664,197.961197 1021.814392,195.881058 
	C1024.518188,197.321274 1027.059204,198.674820 1029.779297,200.123764 
	C1029.462036,202.972748 1029.122192,206.024826 1028.782227,209.076904 
	C1028.544556,212.832687 1035.648071,213.053528 1032.946167,218.675949 
	C1030.208008,216.584503 1027.653198,214.147186 1025.050049,211.358398 
z"/>
<path fill="#232323" opacity="1.000000" stroke="none" 
	d="
M1111.024780,213.989594 
	C1105.456543,213.561279 1099.858521,213.353195 1094.333618,212.604584 
	C1091.856689,212.268967 1091.406006,210.679321 1094.585205,209.143372 
	C1095.505005,208.809418 1095.848755,208.628265 1096.192505,208.447098 
	C1095.789917,208.320801 1095.387451,208.194504 1094.984863,208.068207 
	C1094.984863,208.068207 1095.009033,208.005478 1095.059692,207.686996 
	C1096.323120,206.041290 1097.536011,204.714066 1098.880615,203.711807 
	C1099.498779,205.668793 1099.985352,207.300827 1100.727173,209.789398 
	C1102.000854,208.293640 1103.019653,207.097290 1104.038452,205.900940 
	C1104.575195,205.916245 1105.111816,205.931564 1105.941162,206.210968 
	C1106.105347,206.640030 1105.976929,206.805008 1105.562500,207.091064 
	C1103.048950,210.128769 1105.732666,209.583801 1107.529785,209.946350 
	C1108.928711,211.317566 1109.976807,212.653580 1111.024780,213.989594 
z"/>
<path fill="#444444" opacity="1.000000" stroke="none" 
	d="
M1087.974731,221.198151 
	C1090.421875,218.057053 1093.549683,216.705856 1097.734985,217.328323 
	C1099.472778,217.885773 1100.994873,218.683167 1102.519531,220.011932 
	C1102.931152,222.210587 1103.340210,223.877838 1103.749268,225.545105 
	C1103.493652,226.146667 1103.237915,226.748215 1102.987915,227.670135 
	C1102.993530,227.990524 1102.978516,228.081741 1103.127686,227.791992 
	C1102.806641,227.682495 1102.336426,227.862732 1101.512695,228.050690 
	C1100.219849,228.054749 1099.280396,228.051086 1098.339111,227.687256 
	C1098.713379,225.328140 1099.186035,223.339813 1099.407593,221.323883 
	C1099.476196,220.700470 1098.861206,220.001907 1098.559204,219.337738 
	C1098.202148,219.598068 1097.868530,220.040192 1097.484253,220.090057 
	C1094.319702,220.500626 1091.145752,220.838333 1087.974731,221.198151 
z"/>
<path fill="#232323" opacity="1.000000" stroke="none" 
	d="
M1089.116699,198.158691 
	C1096.430908,197.941559 1098.370728,193.350372 1094.966064,185.257080 
	C1096.225464,185.635757 1096.845947,186.201813 1097.466553,186.767853 
	C1097.466553,186.767853 1097.598511,186.972336 1097.750977,187.398239 
	C1097.968994,189.147263 1098.034424,190.470398 1098.056885,192.132416 
	C1098.033447,192.698242 1098.052979,192.925156 1098.079834,193.482117 
	C1098.362183,194.499054 1098.637085,195.185928 1099.047852,196.012177 
	C1099.183594,196.151566 1099.541870,196.303421 1099.359497,196.603317 
	C1097.199463,199.728897 1095.221680,202.554581 1093.243896,205.380249 
	C1092.205933,202.904739 1087.589111,202.611191 1089.116699,198.158691 
z"/>
<path fill="#383838" opacity="1.000000" stroke="none" 
	d="
M1098.072388,193.152069 
	C1098.052979,192.925156 1098.033447,192.698242 1098.437988,192.060211 
	C1098.926758,190.107559 1098.991699,188.566010 1099.056519,187.024475 
	C1099.982666,188.118057 1100.908813,189.211670 1101.786377,190.247879 
	C1108.816040,183.387970 1113.859375,183.126480 1119.176636,190.408585 
	C1117.336914,189.596100 1116.090820,189.045807 1114.188232,188.305466 
	C1107.880371,186.597092 1104.593628,189.719711 1101.944946,194.014648 
	C1101.975464,193.994675 1102.023438,193.939941 1101.729736,193.989807 
	C1100.804565,194.794266 1100.173218,195.548859 1099.541870,196.303436 
	C1099.541870,196.303421 1099.183594,196.151566 1099.056030,195.660919 
	C1098.643066,194.497528 1098.357666,193.824799 1098.072388,193.152069 
z"/>
<path fill="#232323" opacity="1.000000" stroke="none" 
	d="
M1075.963257,182.984589 
	C1075.503052,183.575424 1075.042969,184.166275 1074.323486,184.884460 
	C1074.064209,185.011826 1073.617920,185.064041 1073.394043,185.045395 
	C1074.633179,182.293198 1075.613037,179.110550 1077.654541,176.914825 
	C1082.700806,171.487411 1088.164551,172.150467 1093.017700,178.602448 
	C1091.691040,178.711884 1090.279419,180.467667 1089.049927,177.926880 
	C1087.808594,175.361786 1082.311890,176.047119 1079.438354,178.739243 
	C1078.611938,179.513428 1077.930542,180.442200 1076.819336,181.681946 
	C1076.291748,182.370712 1076.127563,182.677658 1075.963257,182.984589 
z"/>
<path fill="#444444" opacity="1.000000" stroke="none" 
	d="
M1259.173340,187.268616 
	C1258.744385,188.619781 1258.380249,189.610641 1257.987427,190.679840 
	C1256.620972,187.991287 1255.424805,185.637634 1254.094238,183.019592 
	C1255.004272,181.588013 1256.331665,179.499741 1257.645264,177.433075 
	C1259.126343,179.385895 1260.674561,181.427383 1262.267822,183.528229 
	C1261.495117,184.390396 1260.366577,185.649338 1259.173340,187.268616 
z"/>
<path fill="#EBEBEB" opacity="1.000000" stroke="none" 
	d="
M1101.914429,194.034622 
	C1104.593628,189.719711 1107.880371,186.597092 1113.797119,188.275635 
	C1112.870728,190.474747 1111.679199,192.513687 1110.513916,194.507492 
	C1109.224731,193.970093 1107.995850,193.457825 1106.766968,192.945541 
	C1106.566650,193.285904 1106.366333,193.626282 1106.166016,193.966644 
	C1107.001831,195.053024 1107.837646,196.139404 1108.673462,197.225800 
	C1108.401123,197.575226 1108.128906,197.924652 1107.856567,198.274078 
	C1106.814453,197.558029 1105.772461,196.841980 1104.365356,195.667892 
	C1103.305054,194.818115 1102.609741,194.426376 1101.914429,194.034622 
z"/>
<path fill="#EBEBEB" opacity="1.000000" stroke="none" 
	d="
M1111.364258,214.118744 
	C1109.976807,212.653580 1108.928711,211.317566 1107.607178,209.634537 
	C1108.154053,209.043121 1108.974731,208.798721 1109.795288,208.554321 
	C1111.555298,208.616302 1113.376709,208.989319 1115.058594,208.656418 
	C1116.893921,208.293137 1118.599854,207.275940 1120.914551,207.441757 
	C1119.197632,208.582718 1117.480713,209.723679 1114.857422,211.467010 
	C1116.878540,212.066467 1118.225830,212.466049 1119.910400,212.836792 
	C1117.787354,216.344788 1115.618774,216.710266 1111.364258,214.118744 
z"/>
<path fill="#232323" opacity="1.000000" stroke="none" 
	d="
M1098.340820,228.047409 
	C1099.280396,228.051086 1100.219849,228.054749 1101.788574,228.126129 
	C1102.604614,228.156494 1102.791626,228.119110 1102.978516,228.081741 
	C1102.978516,228.081741 1102.993530,227.990524 1102.949463,227.977631 
	C1105.311523,231.922485 1108.607544,229.831451 1111.576294,229.086075 
	C1112.648193,228.816925 1113.500732,227.673630 1114.807983,226.652115 
	C1113.626099,231.834412 1112.135010,232.828796 1105.397583,232.796509 
	C1104.374756,232.239883 1103.821533,231.807953 1103.252075,231.785751 
	C1101.877319,231.732132 1100.494995,231.869873 1098.874756,231.834122 
	C1098.467285,231.690002 1098.301025,231.642242 1098.129395,231.560257 
	C1098.124023,231.526047 1098.055664,231.514694 1098.111084,231.081131 
	C1098.224731,229.780838 1098.282837,228.914124 1098.340820,228.047409 
M1101.413818,230.451111 
	C1101.413818,230.451111 1101.525024,230.371597 1101.413818,230.451111 
z"/>
<path fill="#383838" opacity="1.000000" stroke="none" 
	d="
M1099.115723,231.930466 
	C1100.494995,231.869873 1101.877319,231.732132 1103.252075,231.785751 
	C1103.821533,231.807953 1104.374756,232.239883 1104.982910,232.801819 
	C1102.108276,237.650604 1097.645752,235.587570 1093.291260,235.560669 
	C1093.222412,234.187836 1093.568359,233.017075 1094.114136,231.237244 
	C1094.428467,230.002243 1094.543213,229.376328 1094.642822,228.832367 
	C1095.824829,229.761337 1096.940186,230.638031 1098.055664,231.514709 
	C1098.055664,231.514694 1098.124023,231.526047 1098.142090,231.797821 
	C1098.478760,232.023209 1098.797241,231.976837 1099.115723,231.930466 
z"/>
<path fill="#383838" opacity="1.000000" stroke="none" 
	d="
M1101.944946,194.014648 
	C1102.609741,194.426376 1103.305054,194.818115 1104.049805,195.612015 
	C1103.510498,197.316940 1102.921509,198.619705 1102.394043,200.320892 
	C1102.455322,200.719284 1102.463257,200.796936 1102.169922,200.984161 
	C1102.218750,201.591599 1102.561035,202.011841 1103.097412,202.686646 
	C1104.108887,203.151001 1104.926270,203.360779 1105.743774,203.570541 
	C1105.181763,204.175598 1104.619873,204.780670 1104.048096,205.643341 
	C1103.019653,207.097290 1102.000854,208.293640 1100.727173,209.789398 
	C1099.985352,207.300827 1099.498779,205.668793 1099.016479,203.399902 
	C1100.021606,199.822006 1101.022583,196.880981 1102.023438,193.939941 
	C1102.023438,193.939941 1101.975464,193.994675 1101.944946,194.014648 
z"/>
<path fill="#6F6F6F" opacity="1.000000" stroke="none" 
	d="
M1281.889893,197.712738 
	C1282.835083,196.419022 1283.556274,195.377914 1284.494385,194.023880 
	C1285.734741,195.711197 1286.765381,197.113312 1287.923828,198.689163 
	C1286.902344,200.387222 1285.854614,202.128723 1284.382324,204.576004 
	C1283.294067,201.927277 1282.480103,199.946320 1281.889893,197.712738 
z"/>
<path fill="#444444" opacity="1.000000" stroke="none" 
	d="
M1161.951416,206.470917 
	C1162.931641,208.083267 1163.779297,209.389297 1164.604004,210.660217 
	C1163.727539,211.735443 1162.723267,212.967361 1160.778320,215.353104 
	C1159.937744,213.812866 1159.010376,212.113586 1157.864868,210.014511 
	C1158.871826,209.034058 1160.345337,207.599335 1161.951416,206.470917 
z"/>
<path fill="#383838" opacity="1.000000" stroke="none" 
	d="
M1129.970703,195.847763 
	C1130.985718,197.177063 1133.092529,199.383011 1132.841431,199.695740 
	C1130.980347,202.013748 1134.239868,206.731964 1128.753662,207.761597 
	C1127.725342,208.115891 1127.201050,208.109528 1126.676636,208.103149 
	C1127.758301,204.662842 1128.839844,201.222549 1129.861694,197.106964 
	C1129.858276,196.237045 1129.914551,196.042404 1129.970703,195.847763 
z"/>
<path fill="#E4E4E4" opacity="1.000000" stroke="none" 
	d="
M1126.398926,208.199066 
	C1127.201050,208.109528 1127.725342,208.115891 1128.641113,208.091049 
	C1130.503662,210.039627 1130.143677,211.249039 1126.567139,214.700989 
	C1125.805908,214.278564 1125.463501,214.091446 1125.120972,213.904327 
	C1125.120972,213.904312 1125.026489,214.006073 1125.158081,213.708344 
	C1125.595093,213.004959 1125.900635,212.599319 1126.481445,212.025909 
	C1126.713013,211.481567 1126.669312,211.105011 1126.625610,210.728470 
	C1126.264160,210.901367 1125.902710,211.074249 1125.236816,211.385178 
	C1124.561646,212.273636 1124.190796,213.024048 1123.819946,213.774475 
	C1123.468140,213.864563 1123.225586,213.740707 1123.032715,212.832565 
	C1122.929565,211.794708 1122.886108,211.327194 1122.842529,210.859680 
	C1123.935425,210.004761 1125.028320,209.149872 1126.398926,208.199066 
z"/>
<path fill="#444444" opacity="1.000000" stroke="none" 
	d="
M1110.086548,208.383636 
	C1108.974731,208.798721 1108.154053,209.043121 1107.256104,209.599335 
	C1105.732666,209.583801 1103.048950,210.128769 1105.567627,207.360291 
	C1106.442261,207.283661 1107.026001,207.058853 1107.609619,206.834061 
	C1109.450317,205.914154 1111.291016,204.994232 1113.553955,204.411957 
	C1114.646973,204.844452 1115.317505,204.939285 1115.988037,205.034119 
	C1114.117920,206.093719 1112.247925,207.153336 1110.086548,208.383636 
z"/>
<path fill="#EBEBEB" opacity="1.000000" stroke="none" 
	d="
M1097.611328,186.398682 
	C1096.845947,186.201813 1096.225464,185.635757 1095.306152,184.978088 
	C1095.007446,184.886475 1095.072876,184.953049 1095.029297,184.679047 
	C1094.653076,184.166428 1094.320435,183.927795 1093.987793,183.689163 
	C1093.991089,183.318695 1093.994507,182.948227 1094.172119,182.208435 
	C1094.227783,181.556366 1094.109009,181.273636 1093.990234,180.990875 
	C1093.267944,181.214233 1092.545776,181.437576 1091.823486,181.660950 
	C1092.047729,181.187973 1092.271851,180.714996 1092.742188,180.128143 
	C1094.281616,179.883682 1095.574829,179.753082 1097.755981,179.532822 
	C1097.755981,181.810043 1097.755981,183.919769 1097.611328,186.398682 
z"/>
<path fill="#EBEBEB" opacity="1.000000" stroke="none" 
	d="
M1130.006104,195.495819 
	C1129.914551,196.042404 1129.858276,196.237045 1129.758545,196.732483 
	C1128.588745,196.609589 1127.462402,196.185898 1126.192993,195.120514 
	C1125.703613,193.650803 1125.357300,192.822815 1125.010986,191.994812 
	C1126.687744,193.044495 1128.364624,194.094177 1130.006104,195.495819 
z"/>
<path fill="#F4F4F4" opacity="1.000000" stroke="none" 
	d="
M1103.905029,225.194427 
	C1103.340210,223.877838 1102.931152,222.210587 1102.718628,220.273895 
	C1104.901489,220.393463 1106.887939,220.782425 1108.941162,221.583832 
	C1109.007935,221.996262 1108.947144,222.073837 1108.947144,222.073822 
	C1107.318359,222.997116 1105.689453,223.920441 1103.905029,225.194427 
z"/>
<path fill="#0B0B0B" opacity="1.000000" stroke="none" 
	d="
M1094.782471,150.804779 
	C1093.825073,152.200531 1092.652222,153.394455 1091.259644,154.349533 
	C1092.215698,152.941437 1093.391357,151.772171 1094.782471,150.804779 
z"/>
<path fill="#6F6F6F" opacity="1.000000" stroke="none" 
	d="
M1124.592285,192.024780 
	C1125.357300,192.822815 1125.703613,193.650803 1126.044189,194.835785 
	C1123.873779,193.931335 1121.709351,192.669891 1119.544922,191.408447 
	C1119.930420,190.797607 1120.315918,190.186752 1120.701416,189.575912 
	C1121.858887,190.402191 1123.016357,191.228470 1124.592285,192.024780 
z"/>
<path fill="#0B0B0B" opacity="1.000000" stroke="none" 
	d="
M1089.335449,161.931793 
	C1089.057007,160.856445 1089.140869,159.797272 1089.263916,158.242126 
	C1090.654419,158.963684 1091.660156,159.485550 1093.016113,160.074463 
	C1092.143555,160.743668 1090.920532,161.345825 1089.335449,161.931793 
z"/>
<path fill="#EBEBEB" opacity="1.000000" stroke="none" 
	d="
M1110.927612,199.307953 
	C1111.022461,200.077347 1110.804443,200.824905 1110.586426,201.572449 
	C1110.185059,201.426697 1109.783569,201.280945 1109.382202,201.135193 
	C1109.793091,200.518829 1110.203857,199.902451 1110.927612,199.307953 
z"/>
<path fill="#EBEBEB" opacity="1.000000" stroke="none" 
	d="
M1105.840820,203.191544 
	C1104.926270,203.360779 1104.108887,203.151001 1103.035400,202.264771 
	C1102.674194,201.324539 1102.568726,201.060745 1102.463257,200.796936 
	C1102.463257,200.796936 1102.455322,200.719284 1102.449463,200.681610 
	C1103.608398,201.366806 1104.773071,202.089676 1105.840820,203.191544 
z"/>
<path fill="#383838" opacity="1.000000" stroke="none" 
	d="
M1089.252441,235.122955 
	C1089.696655,234.910080 1090.391357,234.830093 1091.116943,234.996338 
	C1090.599365,235.246994 1090.051147,235.251419 1089.252441,235.122955 
z"/>
<path fill="#EBEBEB" opacity="1.000000" stroke="none" 
	d="
M1115.910645,193.353210 
	C1115.511108,193.940994 1115.082397,194.241257 1114.653687,194.541504 
	C1114.527344,194.273529 1114.401001,194.005554 1114.274658,193.737595 
	C1114.810181,193.513626 1115.345825,193.289658 1115.910645,193.353210 
z"/>
<path fill="#EBEBEB" opacity="1.000000" stroke="none" 
	d="
M1098.750977,187.020844 
	C1098.991699,188.566010 1098.926758,190.107559 1098.480957,191.721313 
	C1098.034424,190.470398 1097.968994,189.147263 1097.869141,187.427521 
	C1098.038330,187.026352 1098.241943,187.021774 1098.750977,187.020844 
z"/>
<path fill="#EBEBEB" opacity="1.000000" stroke="none" 
	d="
M1112.366577,196.954407 
	C1112.738403,196.652893 1113.107666,196.611420 1113.477051,196.569946 
	C1113.474365,196.834091 1113.471680,197.098221 1113.468994,197.362366 
	C1113.100830,197.313065 1112.732422,197.263763 1112.366577,196.954407 
z"/>
<path fill="#EBEBEB" opacity="1.000000" stroke="none" 
	d="
M1122.589600,210.924469 
	C1122.886108,211.327194 1122.929565,211.794708 1122.991943,212.613037 
	C1122.512207,212.857422 1122.013672,212.750961 1121.175537,212.463348 
	C1121.336304,211.851196 1121.836548,211.420242 1122.589600,210.924469 
z"/>
<path fill="#F4F4F4" opacity="1.000000" stroke="none" 
	d="
M1107.625732,227.264099 
	C1107.029907,227.667984 1106.502441,227.822479 1105.974854,227.976990 
	C1105.918091,227.745667 1105.861206,227.514343 1105.804443,227.283020 
	C1106.434326,227.193588 1107.064209,227.104156 1107.625732,227.264099 
z"/>
<path fill="#F4F4F4" opacity="1.000000" stroke="none" 
	d="
M1116.375000,223.147507 
	C1115.972900,223.221619 1115.545898,223.038910 1115.119019,222.856186 
	C1115.270752,222.508331 1115.422485,222.160477 1115.574341,221.812637 
	C1115.833008,222.171997 1116.091675,222.531342 1116.375000,223.147507 
z"/>
<path fill="#EBEBEB" opacity="1.000000" stroke="none" 
	d="
M1118.276611,203.618683 
	C1118.456909,203.941864 1118.415894,204.309814 1118.375000,204.677765 
	C1118.121094,204.587173 1117.867188,204.496597 1117.613281,204.406006 
	C1117.760742,204.158478 1117.908081,203.910980 1118.276611,203.618683 
z"/>
<path fill="#F4F4F4" opacity="1.000000" stroke="none" 
	d="
M1109.041016,221.959869 
	C1109.509155,222.086594 1109.944092,222.249695 1110.379028,222.412811 
	C1109.993652,222.437958 1109.608398,222.463089 1109.085083,222.281036 
	C1108.947144,222.073837 1109.007935,221.996262 1109.041016,221.959869 
z"/>
<path fill="#6F6F6F" opacity="1.000000" stroke="none" 
	d="
M1125.171387,214.267517 
	C1125.463501,214.091446 1125.805908,214.278564 1126.257690,214.756378 
	C1126.145752,215.383957 1125.924683,215.720840 1125.392334,216.072083 
	C1125.127808,215.601212 1125.174805,215.115967 1125.171387,214.267517 
z"/>
<path fill="#EBEBEB" opacity="1.000000" stroke="none" 
	d="
M1107.351318,206.559326 
	C1107.026001,207.058853 1106.442261,207.283661 1105.853638,207.239227 
	C1105.976929,206.805008 1106.105347,206.640030 1106.343140,206.180847 
	C1106.666260,206.019287 1106.879761,206.151947 1107.351318,206.559326 
z"/>
<path fill="#EBEBEB" opacity="1.000000" stroke="none" 
	d="
M1115.809082,204.774109 
	C1115.317505,204.939285 1114.646973,204.844452 1113.905151,204.413971 
	C1114.432617,204.223587 1115.031250,204.368851 1115.809082,204.774109 
z"/>
<path fill="#F4F4F4" opacity="1.000000" stroke="none" 
	d="
M1070.527100,111.185226 
	C1073.691895,110.258141 1076.820312,109.771538 1080.915283,109.134590 
	C1079.863770,115.614723 1083.640869,118.335403 1087.650024,121.299858 
	C1092.401489,124.813103 1092.097412,133.027893 1086.835327,135.625061 
	C1082.242798,137.891708 1079.328369,141.183609 1076.703735,145.195053 
	C1076.017334,146.244080 1074.849487,146.978088 1073.775146,147.975220 
	C1067.803223,136.068542 1071.760254,123.613708 1070.527100,111.185226 
z"/>
<path fill="#E4E4E4" opacity="1.000000" stroke="none" 
	d="
M1070.413696,203.851456 
	C1070.413696,199.345963 1070.413696,195.313858 1070.413696,190.398117 
	C1073.226440,194.588882 1075.894287,197.599625 1077.402466,201.108841 
	C1078.660767,204.036621 1078.559814,207.548630 1079.126831,211.229950 
	C1076.078735,211.229950 1073.400391,211.229950 1070.413696,211.229950 
	C1070.413696,208.582428 1070.413696,206.453644 1070.413696,203.851456 
z"/>
<path fill="#E9E9E9" opacity="1.000000" stroke="none" 
	d="
M1225.302979,151.209351 
	C1226.048828,149.677246 1226.646606,148.485489 1227.137451,147.251190 
	C1229.727295,140.739166 1231.041138,140.519318 1236.415039,146.132843 
	C1231.732178,152.016342 1227.008423,157.951233 1222.219360,163.968124 
	C1220.215210,160.455017 1220.215210,160.455017 1225.302979,151.209351 
z"/>
<path fill="#EBEBEB" opacity="1.000000" stroke="none" 
	d="
M1098.111084,231.081146 
	C1096.940186,230.638031 1095.824829,229.761337 1094.642822,228.832367 
	C1094.543213,229.376328 1094.428467,230.002243 1094.167969,230.928528 
	C1092.835938,231.112946 1091.484497,231.321594 1090.495850,230.818085 
	C1087.902100,229.496933 1085.466431,227.865341 1082.967773,226.357452 
	C1084.401733,224.649017 1085.835815,222.940598 1087.622314,221.215179 
	C1091.145752,220.838333 1094.319702,220.500626 1097.484253,220.090057 
	C1097.868530,220.040192 1098.202148,219.598068 1098.559204,219.337738 
	C1098.861206,220.001907 1099.476196,220.700470 1099.407593,221.323883 
	C1099.186035,223.339813 1098.713379,225.328140 1098.339111,227.687256 
	C1098.282837,228.914124 1098.224731,229.780838 1098.111084,231.081146 
z"/>
<path fill="#6F6F6F" opacity="1.000000" stroke="none" 
	d="
M1024.174927,165.884903 
	C1024.506470,165.834167 1024.710083,165.645416 1025.267578,165.099701 
	C1026.865112,162.564316 1027.980957,160.247894 1029.096680,157.931488 
	C1033.683472,162.075882 1034.532471,165.564545 1031.841553,170.557999 
	C1029.791138,174.362946 1026.835205,171.574905 1024.119385,170.562134 
	C1024.055420,168.499222 1024.115112,167.192062 1024.174927,165.884903 
z"/>
<path fill="#E4E4E4" opacity="1.000000" stroke="none" 
	d="
M1081.964111,230.974747 
	C1081.084595,231.828461 1080.351196,233.003220 1079.300781,233.481384 
	C1074.210693,235.798416 1070.321167,233.438080 1070.744385,228.830200 
	C1073.328247,227.541992 1075.732056,226.343567 1078.808350,224.809860 
	C1079.679077,226.545303 1080.664795,228.510010 1081.463867,230.529724 
	C1080.613647,230.835159 1079.950195,231.085602 1079.286621,231.336029 
	C1079.733887,231.924286 1080.181274,232.512558 1080.628540,233.100815 
	C1081.073730,232.392120 1081.518921,231.683426 1081.964111,230.974747 
z"/>
<path fill="#E4E4E4" opacity="1.000000" stroke="none" 
	d="
M1034.364502,183.584396 
	C1030.632690,184.523956 1027.280151,185.023102 1026.693481,180.034164 
	C1029.110107,179.697296 1031.730591,179.332001 1034.673828,178.921707 
	C1034.673828,180.726974 1034.673828,182.007126 1034.364502,183.584396 
z"/>
<path fill="#F4F4F4" opacity="1.000000" stroke="none" 
	d="
M1028.913818,157.597321 
	C1027.980957,160.247894 1026.865112,162.564316 1025.393066,164.918365 
	C1025.036743,163.810654 1025.036743,162.665283 1025.036743,161.180664 
	C1023.661682,161.180664 1022.454163,161.180664 1021.274292,161.180664 
	C1021.295105,155.240707 1021.935974,154.933014 1028.913818,157.597321 
z"/>
<path fill="#EBEBEB" opacity="1.000000" stroke="none" 
	d="
M1101.729736,193.989807 
	C1101.022583,196.880981 1100.021606,199.822006 1098.884766,203.074951 
	C1097.536011,204.714066 1096.323120,206.041290 1095.069092,207.719360 
	C1094.384033,207.377777 1093.740356,206.685349 1093.170288,205.686600 
	C1095.221680,202.554581 1097.199463,199.728897 1099.359497,196.603333 
	C1100.173218,195.548859 1100.804565,194.794266 1101.729736,193.989807 
z"/>
<path fill="#E9E9E9" opacity="1.000000" stroke="none" 
	d="
M1024.127075,165.505920 
	C1024.115112,167.192062 1024.055420,168.499222 1023.978210,170.199585 
	C1022.997253,169.608612 1021.838867,168.746857 1021.123413,167.607025 
	C1020.355774,166.384064 1020.004578,164.899689 1019.471680,163.529388 
	C1021.007507,164.061905 1022.543396,164.594421 1024.127075,165.505920 
z"/>
<path fill="#E4E4E4" opacity="1.000000" stroke="none" 
	d="
M1081.027832,202.373779 
	C1081.784180,200.367783 1082.569214,198.735107 1083.724854,197.071075 
	C1083.629517,200.190323 1083.163696,203.340927 1082.646973,206.834717 
	C1082.053345,205.309189 1081.554932,204.028152 1081.027832,202.373779 
z"/>
<path fill="#FFFFFF" opacity="1.000000" stroke="none" 
	d="
M1011.653320,207.658722 
	C1012.100952,206.595551 1012.762024,205.744415 1013.423035,204.893280 
	C1013.639587,205.011810 1013.856079,205.130341 1014.072571,205.248871 
	C1013.674011,206.146820 1013.275452,207.044785 1012.586792,208.117142 
	C1012.153381,208.151291 1012.010071,208.011032 1011.653320,207.658722 
z"/>
<path fill="#6F6F6F" opacity="1.000000" stroke="none" 
	d="
M1124.137207,213.850006 
	C1124.190796,213.024048 1124.561646,212.273636 1125.378906,211.638870 
	C1125.952148,211.900909 1126.079102,212.047302 1126.206177,212.193695 
	C1125.900635,212.599319 1125.595093,213.004959 1125.197998,213.652283 
	C1124.889038,213.904495 1124.671753,213.915024 1124.137207,213.850006 
z"/>
<path fill="#383838" opacity="1.000000" stroke="none" 
	d="
M1094.894409,208.297729 
	C1095.387451,208.194504 1095.789917,208.320801 1096.192505,208.447098 
	C1095.848755,208.628265 1095.505005,208.809418 1094.851074,208.967682 
	C1094.541016,208.944794 1094.803955,208.527267 1094.894409,208.297729 
z"/>
<path fill="#EBEBEB" opacity="1.000000" stroke="none" 
	d="
M1082.525879,222.525848 
	C1082.533691,222.489182 1082.517944,222.562515 1082.525879,222.525848 
z"/>
<path fill="#FEFEFE" opacity="1.000000" stroke="none" 
	d="
M1507.011230,239.981064 
	C1500.885132,246.777557 1493.421265,250.248337 1484.766235,250.337128 
	C1462.993164,250.560501 1441.216309,250.411011 1419.186035,250.411011 
	C1419.186035,230.028717 1419.186035,209.806488 1419.186035,189.073975 
	C1421.196899,189.073975 1423.139160,189.073715 1425.081421,189.074020 
	C1444.214722,189.076996 1463.349487,188.938416 1482.481079,189.126282 
	C1498.870728,189.287216 1510.697510,198.118988 1513.517212,212.542068 
	C1515.434692,222.349960 1514.108643,231.761490 1507.011230,239.981064 
z"/>
<path fill="#FDFDFD" opacity="1.000000" stroke="none" 
	d="
M1486.542480,158.882812 
	C1463.867920,158.962479 1441.604980,158.962479 1419.134277,158.962479 
	C1419.134277,141.114944 1419.134277,123.029236 1419.134277,104.500771 
	C1427.622070,104.500771 1435.921509,104.484871 1444.220947,104.504517 
	C1456.381470,104.533302 1468.557129,104.222008 1480.698608,104.724648 
	C1495.448730,105.335274 1505.440552,114.752327 1506.902344,128.505066 
	C1508.505859,143.590363 1501.435669,154.328690 1486.542480,158.882812 
z"/>
<path fill="#FDFDFD" opacity="1.000000" stroke="none" 
	d="
M226.999298,108.837502 
	C233.155792,108.917625 238.826889,108.769302 244.465744,109.127914 
	C254.578125,109.771019 263.198639,113.838379 267.415436,123.332924 
	C271.944427,133.530441 271.766418,144.147125 265.218414,153.752594 
	C259.803040,161.696518 251.200424,163.651703 242.413528,163.821701 
	C224.462418,164.169006 206.499893,163.925781 187.357773,163.925781 
	C195.477448,153.816711 194.769226,142.793060 194.895157,131.992630 
	C194.988388,123.997017 198.138763,117.156883 202.458893,110.765404 
	C203.168060,109.716209 205.127472,109.056297 206.534119,109.011978 
	C213.184448,108.802422 219.843460,108.869209 226.999298,108.837502 
z"/>
<path fill="#FFFFFF" opacity="1.000000" stroke="none" 
	d="
M169.012634,142.012863 
	C169.002441,141.285995 169.159576,140.712891 169.694870,138.760590 
	C169.821594,140.772263 169.858597,141.359695 169.710632,142.204422 
	C169.525665,142.461731 169.179962,142.166641 169.012634,142.012863 
z"/>
<path fill="#FBFBFB" opacity="1.000000" stroke="none" 
	d="
M649.999512,208.704803 
	C631.561646,208.704803 613.623657,208.704803 594.946655,208.704803 
	C607.640381,179.473724 620.059509,150.874939 632.912537,121.276955 
	C645.722778,150.767441 658.101868,179.265427 670.889893,208.704803 
	C663.590942,208.704803 657.045166,208.704803 649.999512,208.704803 
z"/>
<path fill="#232323" opacity="1.000000" stroke="none" 
	d="
M1077.052612,183.113907 
	C1081.027344,185.693314 1081.064697,189.876389 1082.139160,193.637070 
	C1081.654785,193.891678 1081.170410,194.146286 1080.685913,194.400894 
	C1079.495361,192.285980 1078.304810,190.171066 1077.422363,187.586609 
	C1077.551636,186.595108 1077.372803,186.073166 1077.193970,185.551239 
	C1077.178589,184.927505 1077.163086,184.303772 1077.068237,183.357208 
	C1076.988770,183.034378 1077.052612,183.113907 1077.052612,183.113907 
z"/>
<path fill="#232323" opacity="1.000000" stroke="none" 
	d="
M1093.687256,183.887939 
	C1094.320435,183.927795 1094.653076,184.166428 1095.018188,184.724396 
	C1094.495972,184.724716 1093.941406,184.405716 1093.687256,183.887939 
z"/>
<path fill="#E4E4E4" opacity="1.000000" stroke="none" 
	d="
M1077.152832,186.004517 
	C1077.372803,186.073166 1077.551636,186.595108 1077.444092,187.241989 
	C1077.142334,187.063873 1077.126953,186.760834 1077.152832,186.004517 
z"/>
<path fill="#E4E4E4" opacity="1.000000" stroke="none" 
	d="
M1076.244873,182.996063 
	C1076.127563,182.677658 1076.291748,182.370712 1076.722778,182.019562 
	C1077.006104,182.164337 1077.022827,182.353333 1077.046143,182.828125 
	C1077.052612,183.113907 1076.988770,183.034378 1077.038330,183.046112 
	C1076.900757,183.041092 1076.713623,183.024323 1076.244873,182.996063 
z"/>
<path fill="#FFFFFF" opacity="1.000000" stroke="none" 
	d="
M1093.994507,181.248657 
	C1094.109009,181.273636 1094.227783,181.556366 1094.173340,181.930542 
	C1093.999634,181.850113 1093.999146,181.678268 1093.994507,181.248657 
z"/>
<path fill="#060606" opacity="1.000000" stroke="none" 
	d="
M1028.622559,117.312393 
	C1028.188110,116.873039 1027.730103,116.423256 1027.272217,115.973480 
	C1027.633423,115.702316 1027.994751,115.431145 1028.355957,115.159981 
	C1028.561157,115.636475 1028.766235,116.112968 1028.769775,116.958755 
	C1028.568237,117.328033 1028.598999,117.301964 1028.622559,117.312393 
z"/>
<path fill="#FFFFFF" opacity="1.000000" stroke="none" 
	d="
M1103.127686,227.791992 
	C1102.791626,228.119110 1102.604614,228.156494 1102.141846,228.118423 
	C1102.336426,227.862732 1102.806641,227.682495 1103.127686,227.791992 
z"/>
<path fill="#EBEBEB" opacity="1.000000" stroke="none" 
	d="
M1098.079834,193.482117 
	C1098.357666,193.824799 1098.643066,194.497528 1098.920166,195.521545 
	C1098.637085,195.185928 1098.362183,194.499054 1098.079834,193.482117 
z"/>
<path fill="#444444" opacity="1.000000" stroke="none" 
	d="
M1101.469482,230.411346 
	C1101.525024,230.371597 1101.413818,230.451111 1101.469482,230.411346 
z"/>
<path fill="#444444" opacity="1.000000" stroke="none" 
	d="
M1098.874756,231.834122 
	C1098.797241,231.976837 1098.478760,232.023209 1098.147461,231.832031 
	C1098.301025,231.642242 1098.467285,231.690002 1098.874756,231.834122 
z"/>
<path fill="#FFFFFF" opacity="1.000000" stroke="none" 
	d="
M1102.169922,200.984161 
	C1102.568726,201.060745 1102.674194,201.324539 1102.841431,202.010208 
	C1102.561035,202.011841 1102.218750,201.591599 1102.169922,200.984161 
z"/>
<path fill="#6F6F6F" opacity="1.000000" stroke="none" 
	d="
M1125.683228,211.500824 
	C1125.902710,211.074249 1126.264160,210.901367 1126.625610,210.728470 
	C1126.669312,211.105011 1126.713013,211.481567 1126.481445,212.025909 
	C1126.079102,212.047302 1125.952148,211.900909 1125.683228,211.500824 
z"/>
<path fill="#060606" opacity="1.000000" stroke="none" 
	d="
M1081.989746,231.002579 
	C1081.518921,231.683426 1081.073730,232.392120 1080.628540,233.100815 
	C1080.181274,232.512558 1079.733887,231.924286 1079.286621,231.336029 
	C1079.950195,231.085602 1080.613647,230.835159 1081.666504,230.839630 
	C1082.055908,231.094513 1082.015503,231.030426 1081.989746,231.002579 
z"/>
</svg>