<svg version="1.1" id="Layer_1" xmlns="http://www.w3.org/2000/svg" xmlns:xlink="http://www.w3.org/1999/xlink" x="0px" y="0px"
	 width="100%" viewBox="0 0 2221 360" enable-background="new 0 0 2221 360" xml:space="preserve">
<path fill="#000000" opacity="1.000000" stroke="none" 
	d="
M1614.000000,361.000000 
	C1076.052002,361.000000 538.603943,361.000000 1.077947,361.000000 
	C1.077947,241.063614 1.077947,121.127151 1.077947,1.095350 
	C741.333313,1.095350 1481.666626,1.095350 2221.970215,1.095350 
	C2221.970215,121.063019 2221.970215,241.031509 2221.970215,361.000000 
	C2019.460083,361.000000 1816.980103,361.000000 1614.000000,361.000000 
M155.457367,264.022400 
	C153.805222,263.944275 152.123337,264.039185 150.505585,263.761047 
	C135.675934,261.211487 120.935669,257.916229 106.012756,256.200500 
	C92.119133,254.603134 78.040184,254.362305 64.032043,254.099823 
	C53.475319,253.902039 43.653938,256.898621 35.086178,263.396484 
	C30.123497,267.160248 25.764099,275.863525 26.609013,280.708374 
	C41.231640,269.076752 57.851643,263.749115 76.434464,265.045166 
	C87.198219,265.795868 97.996857,266.545990 108.660164,268.111328 
	C122.081657,270.081543 135.545532,272.220093 148.695633,275.478607 
	C170.175613,280.801086 191.908813,283.485291 213.951996,283.953735 
	C226.111633,284.212128 238.296829,284.377869 250.441299,283.877167 
	C259.702698,283.495331 269.047363,282.651855 278.125275,280.853973 
	C293.629486,277.783356 305.285919,269.327728 311.405243,254.160812 
	C315.528107,243.942200 316.195068,233.334290 316.097626,222.470139 
	C316.011536,212.874054 313.055908,204.289627 307.892242,196.557343 
	C301.627808,187.176697 293.089996,180.312332 283.297943,177.050049 
	C288.029724,172.479782 293.620239,168.131531 297.898315,162.741592 
	C308.684174,149.152466 309.526001,133.078094 305.758789,117.208237 
	C300.355103,94.444527 281.572937,80.223923 258.355042,80.064407 
	C222.694580,79.819412 187.031235,80.000000 151.369110,80.000000 
	C149.617142,80.000000 147.865189,80.000000 146.134216,80.000000 
	C146.134216,94.273636 146.134216,107.876823 146.134216,122.373901 
	C151.386978,116.281288 156.899826,111.800095 164.043640,110.984795 
	C159.815109,114.717163 155.085159,118.232109 151.151764,122.483932 
	C137.697083,137.027878 138.506012,149.939011 146.729752,165.029419 
	C151.107071,173.061707 156.498932,180.622498 162.087280,187.893097 
	C169.338409,197.327026 177.241333,206.259964 184.863693,215.408539 
	C185.341141,215.095505 185.818588,214.782455 186.296036,214.469406 
	C185.375046,211.986359 184.806564,209.293930 183.476196,207.054016 
	C174.445526,191.849121 165.014053,176.877594 156.206375,161.546677 
	C151.079941,152.623444 149.100189,143.055145 152.618164,132.695312 
	C155.583862,123.961891 161.093750,117.463585 168.142914,111.945572 
	C172.342072,108.658508 173.366669,108.417061 177.901489,109.566101 
	C173.053375,113.783669 167.887817,118.228485 162.776947,122.735336 
	C155.598343,129.065582 153.054459,137.063004 155.069595,146.296219 
	C156.468231,152.704742 158.833832,158.768967 164.412521,162.522415 
	C165.247025,156.674255 166.054611,151.014648 166.862198,145.355026 
	C167.278931,145.412079 167.695663,145.469131 168.112396,145.526199 
	C167.498764,149.145569 166.640945,152.743698 166.323608,156.388870 
	C165.710571,163.431229 164.150757,167.404877 174.527802,167.013535 
	C176.956451,166.921967 179.391510,167.000000 182.199921,167.000000 
	C182.199921,176.334686 182.199921,185.079880 182.199921,193.744385 
	C182.914978,193.872910 183.230240,193.979019 183.545563,193.979202 
	C204.042847,193.991592 224.540146,194.005234 245.037430,193.997055 
	C263.250061,193.989792 278.339569,205.908966 277.075531,225.936584 
	C276.152222,240.566055 268.028015,250.388214 254.831741,252.604111 
	C240.950821,254.934952 226.541092,254.116623 212.376907,254.673767 
	C211.564423,236.614120 204.333771,234.360916 194.756119,231.167084 
	C196.028687,233.918747 197.178391,236.313080 198.251480,238.741272 
	C202.433350,248.204010 200.365326,256.066864 191.888763,261.569214 
	C180.520813,268.948456 168.299225,266.210175 157.039948,264.005341 
	C161.630997,264.005341 166.222061,264.005341 170.999969,264.005341 
	C170.999969,255.942673 171.093475,248.472061 170.918472,241.007767 
	C170.884811,239.572235 170.168625,237.759705 169.135422,236.804825 
	C162.763214,230.915695 155.560074,226.979294 146.220200,228.174759 
	C146.220200,239.073273 146.220200,249.827499 146.220200,260.382599 
	C149.658081,261.714996 152.998718,263.009735 155.457367,264.022400 
M1013.724487,145.670349 
	C1013.843750,145.804398 1013.963013,145.938461 1014.006226,146.890976 
	C1017.486389,153.158447 1018.454590,153.366623 1024.047485,149.049850 
	C1025.992065,152.029831 1024.946777,157.133301 1022.593018,156.566895 
	C1017.367920,155.309616 1017.311157,159.841187 1015.242737,162.022461 
	C1014.805054,161.868179 1014.493591,161.795166 1014.216187,161.654938 
	C1010.674011,159.864639 1003.563049,160.546951 1002.485962,163.352249 
	C1001.146973,166.839783 1002.958496,169.657013 1005.923218,172.075058 
	C1010.316467,175.658340 1014.315674,179.724777 1018.481567,183.584534 
	C1015.758057,187.083069 1012.738831,189.691193 1014.892273,194.017471 
	C1015.079468,194.393387 1014.221619,195.700195 1013.578674,196.005966 
	C1011.062073,197.202988 1008.436829,198.171738 1005.350281,199.429703 
	C1005.511353,202.437531 997.668640,207.406189 1005.813599,210.399368 
	C1006.284363,212.213943 1006.641479,213.590591 1006.998596,214.967239 
	C1007.939697,213.899506 1008.880859,212.831787 1009.892334,211.684296 
	C1009.925659,212.046967 1009.849915,212.701340 1010.058167,213.247330 
	C1011.302368,216.508255 1011.816162,219.830627 1016.946594,216.298447 
	C1020.305115,213.986145 1025.001587,214.475586 1027.331665,219.615799 
	C1028.041382,221.181610 1029.571533,222.836670 1031.123535,223.458801 
	C1033.924683,224.581635 1034.060181,226.470367 1034.035156,228.928711 
	C1033.945435,237.759125 1034.000000,246.591003 1034.000000,255.422318 
	C1034.000000,264.526428 1034.000000,273.630554 1034.000000,282.739227 
	C1046.590698,282.739227 1058.661133,282.739227 1071.057617,282.739227 
	C1071.057617,268.037720 1071.057617,253.592911 1071.057617,238.908096 
	C1074.505371,239.589828 1077.596191,240.200974 1080.588379,240.792618 
	C1081.311646,239.401398 1081.956665,238.160797 1082.595825,236.931366 
	C1093.017700,241.930618 1105.222534,239.489395 1113.673340,230.802368 
	C1114.901733,229.539566 1115.864258,228.018036 1116.949951,226.616257 
	C1114.772827,225.744171 1112.635132,224.751404 1110.410278,224.025696 
	C1106.072266,222.610687 1101.685425,221.345108 1097.318848,220.017654 
	C1100.812012,219.436325 1104.007568,219.853027 1107.123047,220.602905 
	C1119.899048,223.677979 1125.596558,221.244980 1130.394653,209.879883 
	C1131.637695,206.935532 1130.841797,203.112427 1130.896362,199.691605 
	C1130.924927,197.905457 1131.462280,195.464569 1130.535645,194.475235 
	C1128.993408,192.828598 1126.555786,191.816879 1124.317017,191.077271 
	C1121.439331,190.126587 1118.252563,190.059784 1115.434204,188.991440 
	C1108.632935,186.413269 1103.809692,187.644180 1099.073364,193.886673 
	C1099.549805,184.195969 1092.554932,180.233459 1085.788940,176.590775 
	C1083.899170,175.573288 1080.166870,176.321167 1078.140381,177.611160 
	C1075.266357,179.440735 1073.189697,182.522675 1071.000000,184.829453 
	C1071.000000,183.899139 1071.000122,182.279922 1070.999878,180.660706 
	C1070.998901,174.348755 1077.056396,168.130005 1083.122314,166.826309 
	C1086.845215,166.026169 1090.258423,163.620499 1093.704346,161.740723 
	C1097.480957,159.680634 1094.742188,156.685791 1094.575806,154.068649 
	C1092.693970,154.229523 1090.742432,154.128723 1088.945557,154.608017 
	C1085.627319,155.493088 1082.870605,157.121063 1082.385254,161.078979 
	C1082.279175,161.945312 1081.620605,162.962723 1080.906982,163.497986 
	C1077.744141,165.870316 1074.468628,168.092377 1071.308960,170.316040 
	C1069.694214,152.293182 1079.006104,141.491669 1096.665771,140.942917 
	C1098.521973,140.885239 1100.353638,140.036209 1103.381348,139.244537 
	C1101.602051,138.394089 1101.210083,138.175156 1100.795044,138.017349 
	C1100.379272,137.859253 1099.940430,137.762177 1099.077271,137.513000 
	C1104.653442,134.940796 1104.653442,134.940796 1104.258667,131.239426 
	C1099.510010,133.995102 1095.040649,136.588745 1089.673706,139.703262 
	C1090.605225,136.582138 1091.302612,134.502670 1091.841309,132.382874 
	C1092.783081,128.678055 1090.696411,121.622948 1088.552734,121.008530 
	C1082.845947,119.372864 1080.958374,116.534904 1081.432495,110.000000 
	C1100.222778,110.000000 1119.035156,110.095284 1137.844971,109.914581 
	C1141.344849,109.880959 1143.211670,111.068275 1145.125366,113.938873 
	C1147.317871,117.228004 1150.087158,120.540604 1153.390747,122.557701 
	C1156.250977,124.304245 1160.186279,124.673431 1163.688599,124.860184 
	C1166.346802,125.001923 1166.857056,126.422127 1168.138062,128.188141 
	C1170.457642,131.385620 1173.548706,134.056107 1176.511963,136.731461 
	C1177.288696,137.432678 1179.584595,137.041229 1179.817627,137.663040 
	C1182.071167,143.678757 1187.593628,144.654678 1193.105469,146.532990 
	C1191.184204,149.443939 1189.416626,152.249161 1187.521362,154.965210 
	C1184.393066,159.448227 1181.260864,163.932556 1177.980103,168.303604 
	C1175.604370,171.468811 1174.524780,175.689423 1168.655762,175.280838 
	C1164.460815,174.988800 1160.084229,177.305679 1154.888550,178.700012 
	C1158.518188,180.845276 1160.946167,182.395905 1163.479614,183.748947 
	C1166.781006,185.512100 1175.623413,183.179352 1178.217529,180.538300 
	C1180.464722,178.250488 1183.235840,175.121658 1185.937744,174.952072 
	C1190.042114,174.694473 1190.593506,172.353134 1191.736694,169.721985 
	C1192.608276,167.716095 1193.665283,165.790710 1194.734375,163.639130 
	C1195.108276,164.235352 1195.432617,164.519379 1195.389404,164.727036 
	C1195.256592,165.366837 1195.055054,166.014832 1194.754028,166.593948 
	C1187.698730,180.165619 1189.194702,194.538132 1193.053589,208.145142 
	C1195.845093,217.988556 1196.922363,227.803711 1197.908325,237.740845 
	C1198.744751,246.169357 1200.562622,254.253998 1203.562256,262.149200 
	C1205.950684,268.435638 1206.672729,274.790833 1204.280029,281.397949 
	C1201.576294,288.864563 1204.321655,292.196320 1212.405029,291.834320 
	C1213.492065,289.273804 1215.210327,286.792023 1215.541504,284.137207 
	C1216.359497,277.578369 1217.075317,270.917877 1216.799194,264.341644 
	C1216.603516,259.682526 1214.722046,255.094193 1213.593018,250.474274 
	C1214.008179,250.358780 1214.423340,250.243286 1214.838501,250.127808 
	C1218.195557,256.996948 1221.556152,263.864319 1224.896118,270.741791 
	C1225.031006,271.019348 1225.018799,271.397156 1224.990234,271.720734 
	C1224.748657,274.463226 1225.696167,277.051331 1228.629272,275.731537 
	C1230.319946,274.970764 1231.536621,271.771637 1231.788452,269.537231 
	C1232.125977,266.544037 1231.352295,263.418793 1231.000122,260.356598 
	C1230.664551,257.437439 1231.301758,253.447403 1229.651245,251.850510 
	C1226.770508,249.063278 1227.441895,246.109680 1226.913452,243.043045 
	C1225.828125,236.745148 1225.496704,230.228806 1221.936523,224.559692 
	C1218.944824,219.795593 1220.188965,213.696320 1224.484497,210.038956 
	C1225.660156,209.037979 1226.315796,207.426331 1227.461182,205.721237 
	C1229.960571,206.368851 1229.729004,203.746216 1229.855347,201.510406 
	C1229.929077,200.205521 1229.697876,198.857620 1229.939453,197.593170 
	C1230.521362,194.547928 1231.455566,191.566238 1231.964844,188.511749 
	C1232.796875,183.521439 1229.635010,178.291092 1232.910767,173.351059 
	C1233.382935,172.639008 1233.117432,170.646790 1232.474243,170.112289 
	C1227.757202,166.192352 1230.169067,164.264267 1234.241455,162.327927 
	C1238.409302,160.346222 1242.431641,158.055740 1246.482300,155.835800 
	C1246.796997,155.663330 1246.798340,154.965103 1247.003662,154.539383 
	C1248.945801,150.512375 1250.277954,146.467529 1247.834595,143.196518 
	C1251.947998,140.815414 1255.856201,138.553101 1259.517700,136.433655 
	C1259.924561,135.161530 1260.313477,133.945587 1260.702393,132.729630 
	C1261.687256,133.200409 1262.631104,133.874268 1263.668701,134.083618 
	C1264.663818,134.284393 1265.756104,134.003281 1266.805786,133.933929 
	C1266.382690,133.552948 1265.959595,133.171951 1265.536621,132.790970 
	C1265.852295,131.916031 1265.929443,130.771683 1266.540649,130.230545 
	C1267.415161,129.456223 1268.994507,129.389648 1269.711548,128.544510 
	C1271.122925,126.880928 1272.147827,124.889641 1273.276367,123.121971 
	C1274.145386,124.683205 1274.867188,125.979782 1275.971558,127.963882 
	C1277.044678,125.958366 1277.477905,124.653465 1278.315308,123.705414 
	C1279.435181,122.437546 1280.722656,121.173546 1282.194214,120.387169 
	C1286.695190,117.981956 1288.571533,113.721985 1290.985229,109.583946 
	C1293.166870,105.844002 1294.483765,102.258949 1294.064331,98.002365 
	C1294.048218,97.839355 1294.349731,97.645042 1294.606445,97.344543 
	C1294.913940,98.167778 1295.174683,98.865768 1295.435425,99.563751 
	C1295.730591,95.087837 1294.772217,90.297882 1300.677246,88.621231 
	C1300.825317,88.579163 1300.633423,87.705589 1300.803955,87.307243 
	C1301.286133,86.181801 1301.733032,84.997910 1302.448486,84.024010 
	C1304.417236,81.343872 1306.515991,78.759254 1308.563354,76.136864 
	C1306.963867,75.630737 1306.372192,76.009323 1305.816650,75.961990 
	C1294.868286,75.029037 1285.343750,80.468529 1275.515869,83.617577 
	C1267.672363,86.130783 1260.572998,91.702820 1253.884155,96.875160 
	C1247.184204,102.056007 1241.393677,108.414909 1235.222168,114.276024 
	C1230.944214,118.338882 1228.791992,126.140549 1219.510132,122.146553 
	C1221.026123,119.544861 1222.640747,116.748619 1224.281738,113.967972 
	C1225.161621,112.477242 1226.764038,111.056862 1226.861938,109.529213 
	C1227.125122,105.421173 1226.438599,101.250465 1226.724731,97.146179 
	C1227.008057,93.082344 1227.588379,88.913811 1228.956543,85.122543 
	C1229.404175,83.882278 1232.730713,83.681023 1234.740601,83.004593 
	C1234.723511,82.603767 1234.706421,82.202950 1234.689331,81.802124 
	C1232.903564,81.368011 1231.117798,80.933891 1230.138062,80.695747 
	C1229.570679,77.927612 1229.059570,75.434319 1228.301880,71.738731 
	C1229.396606,71.115547 1231.367065,70.162651 1233.114136,68.900452 
	C1233.665649,68.501915 1233.895508,66.565247 1233.806274,66.530533 
	C1230.555176,65.265526 1227.325684,63.739635 1223.932617,63.092255 
	C1218.656372,62.085598 1216.179077,66.486053 1213.094116,69.570717 
	C1211.902832,70.762016 1210.800171,72.443703 1209.345215,72.893784 
	C1205.092407,74.209351 1203.370728,77.319969 1201.916626,81.116753 
	C1201.214355,82.950592 1199.646118,84.655487 1198.057251,85.885468 
	C1196.682861,86.949249 1194.724976,87.259148 1193.025024,87.902267 
	C1193.081055,88.296425 1193.137207,88.690575 1193.193359,89.084732 
	C1195.418945,89.659134 1197.644653,90.233528 1199.998535,90.841034 
	C1199.711914,91.516312 1199.476562,92.474167 1198.954468,93.235527 
	C1195.626831,98.088715 1194.939209,102.751968 1198.392456,108.103630 
	C1200.101685,110.752602 1200.307495,114.371628 1201.250854,117.757072 
	C1197.973877,114.747078 1194.620972,112.375114 1192.187988,109.279976 
	C1187.618530,103.466705 1182.100830,98.899643 1175.910034,95.035110 
	C1172.242188,92.745483 1168.512329,90.555260 1164.814331,88.313660 
	C1164.299927,88.001831 1163.808716,87.651688 1163.306763,87.319298 
	C1161.075928,91.273384 1159.761108,87.427338 1158.196533,86.642365 
	C1155.495605,85.287392 1153.032959,83.381210 1150.240234,82.302269 
	C1145.083496,80.310051 1139.753296,78.769211 1134.510742,76.994911 
	C1133.078613,76.510208 1131.701416,75.863647 1130.299072,75.291389 
	C1129.850098,76.788025 1129.401123,78.284660 1128.796875,80.299072 
	C1073.229736,80.299072 1017.164246,80.299072 961.347778,80.299072 
	C961.347778,90.434395 961.347778,100.175278 961.347778,110.077591 
	C975.007263,110.077591 988.319824,110.077591 1001.632385,110.077591 
	C1001.435364,110.448837 1001.238342,110.820084 1001.041260,111.191338 
	C1002.762939,112.272598 1004.484619,113.353867 1006.961670,114.909531 
	C1006.964233,114.947533 1007.062683,116.391670 1007.199707,118.402657 
	C1009.040039,117.792542 1010.469238,117.318741 1012.216309,116.739540 
	C1010.621582,121.380829 1009.059998,125.925507 1007.455017,130.596573 
	C1009.607849,130.956375 1010.792236,131.154312 1011.976624,131.352264 
	C1011.925476,131.895218 1011.874268,132.438156 1011.823120,132.981110 
	C1009.247314,132.711090 1006.671509,132.441086 1004.095764,132.171066 
	C1003.866028,132.702927 1003.636292,133.234802 1003.406494,133.766663 
	C1005.072754,134.779617 1006.738953,135.792572 1008.727844,137.001678 
	C1007.544434,137.001678 1006.349060,136.657593 1005.984558,137.062088 
	C1004.521606,138.685959 1003.247986,140.500229 1002.107971,142.368332 
	C1001.977234,142.582642 1003.051758,144.030823 1003.690613,144.132492 
	C1006.903931,144.643860 1010.158081,144.897995 1013.724487,145.670349 
M1407.500000,279.000000 
	C1436.650757,279.000000 1465.801636,279.045959 1494.952148,278.955078 
	C1499.859253,278.939789 1504.855103,278.814789 1509.653931,277.911530 
	C1525.696289,274.891876 1537.897095,266.176788 1545.982666,251.954758 
	C1552.845947,239.882553 1554.042847,226.987289 1552.109009,213.342255 
	C1549.490356,194.865173 1537.305298,178.624420 1519.974976,172.787186 
	C1524.834351,167.988174 1530.636841,163.499924 1534.860229,157.834457 
	C1544.356323,145.095184 1545.779663,130.397430 1542.993774,115.121849 
	C1538.886230,92.599892 1520.064087,76.727547 1497.832153,76.227814 
	C1460.704834,75.393280 1423.544922,75.997246 1386.398804,76.013908 
	C1385.303223,76.014404 1384.207764,76.219643 1383.289062,76.311699 
	C1383.289062,144.027573 1383.289062,211.406662 1383.289062,279.000000 
	C1391.217896,279.000000 1398.858887,279.000000 1407.500000,279.000000 
M1855.712158,82.028053 
	C1840.616821,89.185684 1827.571167,98.896317 1817.249878,112.200790 
	C1805.442139,127.421303 1798.731812,144.850525 1797.312622,163.727859 
	C1796.344971,176.596649 1797.054077,189.908249 1799.252197,202.635178 
	C1804.512451,233.090164 1822.013184,255.428192 1849.039307,269.887390 
	C1871.795654,282.062225 1896.427124,283.809296 1921.740112,281.091339 
	C1942.835938,278.826233 1960.997803,270.281189 1977.299438,257.174469 
	C1980.477173,254.619553 1982.208130,251.728851 1982.151978,247.104294 
	C1981.836792,221.110611 1982.000000,195.111115 1982.000000,169.113602 
	C1982.000000,167.505051 1982.000000,165.896484 1982.000000,164.250153 
	C1953.099487,164.250153 1924.696411,164.250153 1896.253662,164.250153 
	C1896.253662,174.240723 1896.253662,183.978989 1896.253662,194.113159 
	C1912.577515,194.113159 1928.652588,194.113159 1945.000000,194.113159 
	C1945.000000,207.979462 1944.863647,221.450180 1945.091431,234.914764 
	C1945.151855,238.489090 1943.632446,240.161301 1940.776001,241.734940 
	C1925.232910,250.297592 1908.641602,251.887253 1891.521362,248.951385 
	C1865.253418,244.446823 1848.138916,228.472382 1839.733643,203.941833 
	C1833.416138,185.504547 1833.772339,166.381241 1841.015503,147.915710 
	C1850.904175,122.705399 1869.635132,107.999130 1896.332764,105.236610 
	C1920.339355,102.752533 1942.480469,108.678635 1960.742798,125.975105 
	C1967.787842,118.437141 1974.797852,110.936790 1981.813843,103.429993 
	C1952.714966,72.757660 1899.013550,64.431305 1855.712158,82.028053 
M577.481934,162.013260 
	C559.722778,202.256042 541.963562,242.498825 524.090332,282.999969 
	C536.285217,282.999969 547.944580,283.072937 559.600586,282.908203 
	C561.068604,282.887451 563.340942,281.989990 563.851685,280.867004 
	C569.552246,268.332550 575.221680,255.770325 580.316284,242.983185 
	C581.648376,239.639633 583.060791,238.923035 586.286560,238.934509 
	C617.100159,239.044144 647.914673,239.060898 678.727966,238.911713 
	C682.037842,238.895691 683.787720,239.883575 685.028198,242.867798 
	C689.945496,254.697342 694.948486,266.493073 700.113525,278.215942 
	C700.916321,280.038025 702.688171,282.749329 704.078430,282.790283 
	C716.315186,283.150635 728.566956,282.999115 741.581665,282.999115 
	C711.435486,214.906784 681.608704,147.535919 651.708862,80.000000 
	C640.683289,80.000000 629.689636,80.248032 618.717346,79.872215 
	C614.598145,79.731133 613.021912,81.463448 611.567932,84.804756 
	C600.444397,110.366577 589.182373,135.868118 577.481934,162.013260 
M435.500000,110.000000 
	C457.260986,110.000000 479.021973,110.000000 500.711243,110.000000 
	C500.711243,99.687065 500.711243,89.948097 500.711243,80.286270 
	C451.021149,80.286270 401.620361,80.286270 352.281250,80.286270 
	C352.281250,147.971924 352.281250,215.370941 352.281250,282.721375 
	C402.963654,282.721375 453.364288,282.721375 503.718323,282.721375 
	C503.718323,272.701477 503.718323,262.962738 503.718323,252.834351 
	C465.368225,252.834351 427.298187,252.834351 389.282471,252.834351 
	C389.282471,233.366531 389.282471,214.295898 389.282471,194.832169 
	C423.633820,194.832169 457.704437,194.832169 491.714844,194.832169 
	C491.714844,184.694290 491.714844,174.955490 491.714844,164.826828 
	C457.360809,164.826828 423.290161,164.826828 389.286652,164.826828 
	C389.286652,146.358200 389.286652,128.287354 389.286652,110.000000 
	C404.548218,110.000000 419.524109,110.000000 435.500000,110.000000 
M936.000000,122.500000 
	C936.000000,108.407509 936.000000,94.315025 936.000000,80.279968 
	C923.365845,80.279968 911.297180,80.279968 899.000000,80.279968 
	C899.000000,82.200226 899.000000,83.842430 899.000000,85.484634 
	C899.000000,123.133286 898.904663,160.782364 899.073242,198.430267 
	C899.111023,206.855057 898.092896,215.014969 894.927795,222.746902 
	C889.749451,235.396912 880.950623,244.532501 868.224060,250.117050 
	C859.012817,254.159042 849.503296,254.344055 839.873840,253.947037 
	C826.698425,253.403839 815.238037,248.310150 806.348206,238.672195 
	C796.560303,228.060638 791.948425,215.175842 791.975708,200.621201 
	C792.047424,162.306335 792.000000,123.991257 792.000000,85.676262 
	C792.000000,83.895393 792.000000,82.114532 792.000000,80.223961 
	C779.479858,80.223961 767.412048,80.223961 755.000000,80.223961 
	C755.000000,82.070709 755.000000,83.698463 755.000000,85.326218 
	C755.000000,124.140976 754.763733,162.958282 755.182373,201.768524 
	C755.275574,210.414032 756.731079,219.312637 759.182556,227.615463 
	C766.999939,254.092133 785.189148,271.463745 810.619080,280.606598 
	C828.647949,287.088562 847.579224,287.691284 866.615234,284.077179 
	C886.304443,280.339020 903.028320,271.861603 916.197266,256.414703 
	C929.393188,240.936127 935.565430,222.909042 935.892822,202.960220 
	C936.327393,176.480026 936.000000,149.987320 936.000000,122.500000 
M1621.000000,140.500000 
	C1621.000000,119.070961 1621.000000,97.641922 1621.000000,76.291557 
	C1608.349731,76.291557 1596.277100,76.291557 1584.000000,76.291557 
	C1584.000000,78.394203 1584.000000,80.206863 1584.000000,82.019524 
	C1584.000000,120.517685 1583.912109,159.016251 1584.089355,197.513596 
	C1584.117798,203.671707 1584.808960,209.935928 1586.090698,215.960175 
	C1591.564697,241.687134 1606.333008,260.410034 1629.749634,272.290314 
	C1649.708130,282.416168 1671.085083,284.040802 1692.647217,280.779785 
	C1713.413086,277.639160 1731.533813,268.720184 1745.499878,252.144028 
	C1757.679321,237.688553 1764.359131,220.892166 1764.737671,202.528473 
	C1765.579102,161.714417 1765.001709,120.871101 1764.990723,80.039726 
	C1764.990356,78.766876 1764.857422,77.494057 1764.789429,76.278671 
	C1752.375854,76.278671 1740.303589,76.278671 1728.000000,76.278671 
	C1728.000000,78.197945 1728.000000,79.840515 1728.000000,81.483093 
	C1728.000000,118.981300 1728.031616,156.479568 1727.956055,193.977631 
	C1727.947510,198.222916 1727.552124,202.497238 1726.964233,206.706146 
	C1724.858276,221.781998 1717.561279,233.561813 1704.769287,242.079956 
	C1694.499878,248.918137 1683.216797,250.322021 1671.281738,250.074493 
	C1657.659058,249.791977 1645.876587,245.148636 1636.317383,235.669144 
	C1626.384155,225.818542 1621.379150,213.394073 1621.098267,199.495255 
	C1620.707764,180.170731 1621.000000,160.832413 1621.000000,140.500000 
M2154.500000,279.000000 
	C2162.598877,279.000000 2170.697754,279.000000 2178.707520,279.000000 
	C2178.707520,268.680847 2178.707520,258.941223 2178.707520,248.622772 
	C2139.623535,248.622772 2100.830078,248.622772 2061.173584,248.622772 
	C2062.733398,246.912720 2063.695801,246.022537 2064.465820,244.989029 
	C2080.914307,222.912430 2097.245605,200.747772 2113.797852,178.749283 
	C2132.613770,153.742355 2151.662109,128.910263 2170.507324,103.925034 
	C2173.292725,100.232353 2176.629150,96.395195 2177.705322,92.120132 
	C2178.955811,87.150734 2177.996826,81.625168 2177.996826,76.222443 
	C2122.155762,76.222443 2066.752197,76.222443 2011.226440,76.222443 
	C2011.226440,86.184258 2011.226440,95.922447 2011.226440,106.224472 
	C2049.266846,106.224472 2087.083984,106.224472 2125.483398,106.224472 
	C2115.399902,119.678307 2105.850586,132.526535 2096.187988,145.289139 
	C2078.274414,168.949753 2060.252441,192.528580 2042.357788,216.203506 
	C2031.520752,230.541138 2020.829712,244.989273 2010.109009,259.414429 
	C2009.566040,260.145020 2009.064697,261.123138 2009.049927,261.994629 
	C2008.955078,267.591858 2009.001465,273.191498 2009.001465,279.000000 
	C2057.548340,279.000000 2105.524170,279.000000 2154.500000,279.000000 
M135.998138,157.409302 
	C131.413666,145.895920 134.127945,135.611359 141.676315,126.105461 
	C124.001259,133.569809 122.302864,148.572006 123.046570,164.832886 
	C121.205353,164.966049 119.673637,165.076813 118.141930,165.187592 
	C117.985680,165.552567 117.829430,165.917526 117.673180,166.282486 
	C119.770195,167.725159 121.867210,169.167831 124.411957,170.918518 
	C122.896408,172.827377 121.623955,174.933884 119.875092,176.512665 
	C117.360779,178.782440 114.301300,180.455551 111.829048,182.763153 
	C107.114548,187.163605 107.429657,188.128342 113.652397,190.260315 
	C120.573730,192.631638 120.805069,193.577560 115.758575,198.755325 
	C115.432587,199.089767 115.217087,199.531906 114.717377,200.265961 
	C116.055901,201.421204 117.348160,202.536514 118.655945,203.665237 
	C117.820312,204.614014 116.850479,205.715164 115.880638,206.816330 
	C116.395874,206.851044 116.911102,206.885757 117.426338,206.920471 
	C117.619980,210.142548 118.256378,213.411743 117.919350,216.577316 
	C117.101524,224.258591 118.561462,226.132172 126.273125,225.977173 
	C127.562660,225.951248 128.866013,225.711502 130.129425,225.423355 
	C146.174026,221.763885 160.553070,225.141388 172.125595,236.870773 
	C178.847168,243.683441 184.330566,251.717728 190.414978,259.256622 
	C194.566528,247.609772 190.392593,236.575989 185.325272,225.961472 
	C178.904465,212.511826 167.637497,202.700317 158.134247,191.567825 
	C149.428268,181.369324 141.026276,170.917801 135.998138,157.409302 
M1264.806885,180.277115 
	C1263.684204,180.116119 1262.561523,179.955109 1262.185181,179.901138 
	C1260.740356,177.542786 1259.531616,175.569748 1258.056885,173.162598 
	C1255.442749,177.355637 1253.448730,180.554047 1251.446411,183.765656 
	C1255.809448,186.629059 1256.526489,190.808090 1255.526978,195.634094 
	C1260.257935,196.125824 1262.890869,194.325180 1261.705933,191.282440 
	C1260.443237,188.039886 1262.039673,184.172729 1265.070068,183.555145 
	C1265.954468,183.374908 1267.755493,184.362564 1267.855103,184.165863 
	C1269.181763,181.546722 1267.010010,181.365204 1264.806885,180.277115 
M1262.995117,230.000809 
	C1261.457642,234.043594 1264.104614,239.328186 1267.499146,239.554764 
	C1267.343872,240.593842 1267.185181,241.656464 1267.026367,242.719086 
	C1269.300293,238.004669 1270.070679,232.186935 1276.867920,232.582962 
	C1272.818848,228.467819 1269.175537,224.765091 1264.605103,220.119995 
	C1264.234497,224.083542 1263.968628,226.928635 1262.995117,230.000809 
M1164.038818,213.603088 
	C1165.092651,212.392899 1166.146606,211.182709 1166.794312,210.438904 
	C1165.685913,208.258377 1165.088135,206.340088 1163.871094,204.973358 
	C1163.167114,204.182816 1160.966675,203.613144 1160.306152,204.105789 
	C1158.389404,205.535233 1156.829590,207.487091 1155.317139,209.383469 
	C1154.946899,209.847687 1154.977051,211.290756 1155.362793,211.591400 
	C1157.924438,213.587616 1159.006348,216.105316 1159.083130,219.327225 
	C1159.113403,220.594452 1160.034302,221.840424 1160.549561,223.096069 
	C1161.068848,223.137680 1161.588135,223.179291 1162.107544,223.220917 
	C1162.749756,220.259766 1163.392090,217.298630 1164.038818,213.603088 
M1286.615112,191.075836 
	C1285.895630,190.420410 1285.176147,189.764984 1284.906006,189.518890 
	C1279.676514,194.347427 1278.267578,199.846161 1283.696167,206.872726 
	C1286.408691,203.848328 1289.141357,200.801620 1291.402832,198.280289 
	C1289.883423,195.938721 1288.489990,193.791183 1286.615112,191.075836 
M1178.709595,65.820084 
	C1178.822510,64.029495 1178.935303,62.238907 1179.040161,60.575859 
	C1177.009033,59.778900 1175.263306,59.093922 1173.398438,58.362213 
	C1167.835449,61.498974 1172.314941,65.808136 1172.252441,70.672066 
	C1174.575806,68.958542 1176.330566,67.664429 1178.709595,65.820084 
M1122.567383,173.716599 
	C1123.664062,171.632095 1124.760742,169.547607 1125.989746,167.211716 
	C1123.811035,165.643677 1121.769043,164.174026 1119.556274,162.581497 
	C1119.556274,168.541046 1119.556274,173.750443 1119.556274,178.959824 
	C1119.930420,178.968002 1120.304443,178.976196 1120.678589,178.984375 
	C1120.833740,176.816971 1120.988892,174.649567 1121.144165,172.482178 
	C1121.402832,172.554901 1121.683228,172.589554 1121.910034,172.718369 
	C1122.006470,172.773102 1121.990967,173.025146 1122.567383,173.716599 
z"/>
<path fill="#FFFFFF" opacity="1.000000" stroke="none" 
	d="
M1013.397949,145.242447 
	C1010.158081,144.897995 1006.903931,144.643860 1003.690613,144.132492 
	C1003.051758,144.030823 1001.977234,142.582642 1002.107971,142.368332 
	C1003.247986,140.500229 1004.521606,138.685959 1005.984558,137.062088 
	C1006.349060,136.657593 1007.544434,137.001678 1008.727844,137.001678 
	C1006.738953,135.792572 1005.072754,134.779617 1003.406494,133.766663 
	C1003.636292,133.234802 1003.866028,132.702927 1004.095764,132.171066 
	C1006.671509,132.441086 1009.247314,132.711090 1011.823120,132.981110 
	C1011.874268,132.438156 1011.925476,131.895218 1011.976624,131.352264 
	C1010.792236,131.154312 1009.607849,130.956375 1007.455017,130.596573 
	C1009.059998,125.925507 1010.621582,121.380829 1012.216309,116.739540 
	C1010.469238,117.318741 1009.040039,117.792542 1007.199707,118.402657 
	C1007.062683,116.391670 1006.964233,114.947533 1006.961670,114.909531 
	C1004.484619,113.353867 1002.762939,112.272598 1001.041260,111.191338 
	C1001.238342,110.820084 1001.435364,110.448837 1001.632385,110.077591 
	C988.319824,110.077591 975.007263,110.077591 961.347778,110.077591 
	C961.347778,100.175278 961.347778,90.434395 961.347778,80.299072 
	C1017.164246,80.299072 1073.229736,80.299072 1128.796875,80.299072 
	C1129.401123,78.284660 1129.850098,76.788025 1130.299072,75.291382 
	C1131.701416,75.863647 1133.078613,76.510208 1134.510742,76.994911 
	C1139.753296,78.769211 1145.083496,80.310051 1150.240234,82.302269 
	C1153.032959,83.381210 1155.495605,85.287392 1158.196533,86.642365 
	C1159.761108,87.427338 1161.075928,91.273384 1163.306763,87.319290 
	C1163.808716,87.651688 1164.299927,88.001831 1164.814331,88.313660 
	C1168.512329,90.555260 1172.242188,92.745483 1175.910034,95.035110 
	C1182.100830,98.899643 1187.618530,103.466705 1192.187988,109.279976 
	C1194.620972,112.375114 1197.973877,114.747078 1201.250854,117.757072 
	C1200.307495,114.371628 1200.101685,110.752602 1198.392456,108.103630 
	C1194.939209,102.751968 1195.626831,98.088715 1198.954468,93.235527 
	C1199.476562,92.474167 1199.711914,91.516312 1199.998535,90.841034 
	C1197.644653,90.233528 1195.418945,89.659134 1193.193359,89.084732 
	C1193.137207,88.690575 1193.081055,88.296425 1193.025024,87.902267 
	C1194.724976,87.259148 1196.682861,86.949249 1198.057251,85.885468 
	C1199.646118,84.655487 1201.214355,82.950592 1201.916626,81.116753 
	C1203.370728,77.319969 1205.092407,74.209351 1209.345215,72.893784 
	C1210.800171,72.443703 1211.902832,70.762016 1213.094116,69.570717 
	C1216.179077,66.486053 1218.656372,62.085598 1223.932617,63.092255 
	C1227.325684,63.739635 1230.555176,65.265526 1233.806274,66.530533 
	C1233.895508,66.565247 1233.665649,68.501915 1233.114136,68.900452 
	C1231.367065,70.162651 1229.396606,71.115547 1228.301880,71.738731 
	C1229.059570,75.434319 1229.570679,77.927612 1230.138062,80.695747 
	C1231.117798,80.933891 1232.903564,81.368011 1234.689331,81.802124 
	C1234.706421,82.202950 1234.723511,82.603767 1234.740601,83.004593 
	C1232.730713,83.681023 1229.404175,83.882278 1228.956543,85.122543 
	C1227.588379,88.913811 1227.008057,93.082344 1226.724731,97.146179 
	C1226.438599,101.250465 1227.125122,105.421173 1226.861938,109.529213 
	C1226.764038,111.056862 1225.161621,112.477242 1224.281738,113.967972 
	C1222.640747,116.748619 1221.026123,119.544861 1219.510132,122.146553 
	C1228.791992,126.140549 1230.944214,118.338882 1235.222168,114.276024 
	C1241.393677,108.414909 1247.184204,102.056007 1253.884155,96.875160 
	C1260.572998,91.702820 1267.672363,86.130783 1275.515869,83.617577 
	C1285.343750,80.468529 1294.868286,75.029037 1305.816650,75.961990 
	C1306.372192,76.009323 1306.963867,75.630737 1308.563354,76.136864 
	C1306.515991,78.759254 1304.417236,81.343872 1302.448486,84.024010 
	C1301.733032,84.997910 1301.286133,86.181801 1300.803955,87.307243 
	C1300.633423,87.705589 1300.825317,88.579163 1300.677246,88.621231 
	C1294.772217,90.297882 1295.730591,95.087837 1295.435425,99.563751 
	C1295.174683,98.865768 1294.913940,98.167778 1294.606445,97.344543 
	C1294.349731,97.645042 1294.048218,97.839355 1294.064331,98.002365 
	C1294.483765,102.258949 1293.166870,105.844002 1290.985229,109.583946 
	C1288.571533,113.721985 1286.695190,117.981956 1282.194214,120.387169 
	C1280.722656,121.173546 1279.435181,122.437546 1278.315308,123.705414 
	C1277.477905,124.653465 1277.044678,125.958366 1275.971558,127.963882 
	C1274.867188,125.979782 1274.145386,124.683205 1273.276367,123.121971 
	C1272.147827,124.889641 1271.122925,126.880928 1269.711548,128.544510 
	C1268.994507,129.389648 1267.415161,129.456223 1266.540649,130.230545 
	C1265.929443,130.771683 1265.852295,131.916031 1265.536621,132.790970 
	C1265.959595,133.171951 1266.382690,133.552948 1266.805786,133.933929 
	C1265.756104,134.003281 1264.663818,134.284393 1263.668701,134.083618 
	C1262.631104,133.874268 1261.687256,133.200409 1260.702393,132.729630 
	C1260.313477,133.945587 1259.924561,135.161530 1259.517700,136.433655 
	C1255.856201,138.553101 1251.947998,140.815414 1247.834595,143.196518 
	C1250.277954,146.467529 1248.945801,150.512375 1247.003662,154.539383 
	C1246.798340,154.965103 1246.796997,155.663330 1246.482300,155.835800 
	C1242.431641,158.055740 1238.409302,160.346222 1234.241455,162.327927 
	C1230.169067,164.264267 1227.757202,166.192352 1232.474243,170.112289 
	C1233.117432,170.646790 1233.382935,172.639008 1232.910767,173.351059 
	C1229.635010,178.291092 1232.796875,183.521439 1231.964844,188.511749 
	C1231.455566,191.566238 1230.521362,194.547928 1229.939453,197.593170 
	C1229.697876,198.857620 1229.929077,200.205521 1229.855347,201.510406 
	C1229.729004,203.746216 1229.960571,206.368851 1227.461182,205.721237 
	C1226.315796,207.426331 1225.660156,209.037979 1224.484497,210.038956 
	C1220.188965,213.696320 1218.944824,219.795593 1221.936523,224.559692 
	C1225.496704,230.228806 1225.828125,236.745148 1226.913452,243.043045 
	C1227.441895,246.109680 1226.770508,249.063278 1229.651245,251.850510 
	C1231.301758,253.447403 1230.664551,257.437439 1231.000122,260.356598 
	C1231.352295,263.418793 1232.125977,266.544037 1231.788452,269.537231 
	C1231.536621,271.771637 1230.319946,274.970764 1228.629272,275.731537 
	C1225.696167,277.051331 1224.748657,274.463226 1224.990234,271.720734 
	C1225.018799,271.397156 1225.031006,271.019348 1224.896118,270.741791 
	C1221.556152,263.864319 1218.195557,256.996948 1214.838501,250.127808 
	C1214.423340,250.243286 1214.008179,250.358780 1213.593018,250.474274 
	C1214.722046,255.094193 1216.603516,259.682526 1216.799194,264.341644 
	C1217.075317,270.917877 1216.359497,277.578369 1215.541504,284.137207 
	C1215.210327,286.792023 1213.492065,289.273804 1212.405029,291.834351 
	C1204.321655,292.196320 1201.576294,288.864563 1204.280029,281.397949 
	C1206.672729,274.790833 1205.950684,268.435638 1203.562256,262.149200 
	C1200.562622,254.253998 1198.744751,246.169357 1197.908325,237.740845 
	C1196.922363,227.803711 1195.845093,217.988556 1193.053589,208.145142 
	C1189.194702,194.538132 1187.698730,180.165619 1194.754028,166.593948 
	C1195.055054,166.014832 1195.256592,165.366837 1195.389404,164.727036 
	C1195.432617,164.519379 1195.108276,164.235352 1194.734375,163.639130 
	C1193.665283,165.790710 1192.608276,167.716095 1191.736694,169.721985 
	C1190.593506,172.353134 1190.042114,174.694473 1185.937744,174.952072 
	C1183.235840,175.121658 1180.464722,178.250488 1178.217529,180.538300 
	C1175.623413,183.179352 1166.781006,185.512100 1163.479614,183.748947 
	C1160.946167,182.395905 1158.518188,180.845276 1154.888550,178.700012 
	C1160.084229,177.305679 1164.460815,174.988800 1168.655762,175.280838 
	C1174.524780,175.689423 1175.604370,171.468811 1177.980103,168.303604 
	C1181.260864,163.932556 1184.393066,159.448227 1187.521362,154.965210 
	C1189.416626,152.249161 1191.184204,149.443939 1193.105469,146.532990 
	C1187.593628,144.654678 1182.071167,143.678757 1179.817627,137.663040 
	C1179.584595,137.041229 1177.288696,137.432678 1176.511963,136.731461 
	C1173.548706,134.056107 1170.457642,131.385620 1168.138062,128.188141 
	C1166.857056,126.422127 1166.346802,125.001923 1163.688599,124.860184 
	C1160.186279,124.673431 1156.250977,124.304245 1153.390747,122.557701 
	C1150.087158,120.540604 1147.317871,117.228004 1145.125366,113.938873 
	C1143.211670,111.068275 1141.344849,109.880959 1137.844971,109.914581 
	C1119.035156,110.095284 1100.222778,110.000000 1081.432495,110.000000 
	C1080.958374,116.534904 1082.845947,119.372864 1088.552734,121.008530 
	C1090.696411,121.622948 1092.783081,128.678055 1091.841309,132.382874 
	C1091.302612,134.502670 1090.605225,136.582138 1089.673706,139.703262 
	C1095.040649,136.588745 1099.510010,133.995102 1104.258667,131.239426 
	C1104.653442,134.940796 1104.653442,134.940796 1099.077271,137.513000 
	C1099.940430,137.762177 1100.379272,137.859253 1100.795044,138.017349 
	C1101.210083,138.175156 1101.602051,138.394089 1103.381348,139.244537 
	C1100.353638,140.036209 1098.521973,140.885239 1096.665771,140.942917 
	C1079.006104,141.491669 1069.694214,152.293182 1071.308960,170.316040 
	C1074.468628,168.092377 1077.744141,165.870316 1080.906982,163.497986 
	C1081.620605,162.962723 1082.279175,161.945312 1082.385254,161.078979 
	C1082.870605,157.121063 1085.627319,155.493088 1088.945557,154.608017 
	C1090.742432,154.128723 1092.693970,154.229523 1094.575806,154.068649 
	C1094.742188,156.685791 1097.480957,159.680634 1093.704346,161.740723 
	C1090.258423,163.620499 1086.845215,166.026169 1083.122314,166.826309 
	C1077.056396,168.130005 1070.998901,174.348755 1070.999878,180.660706 
	C1071.000122,182.279922 1071.000000,183.899139 1071.000000,184.829453 
	C1073.189697,182.522675 1075.266357,179.440735 1078.140381,177.611160 
	C1080.166870,176.321167 1083.899170,175.573288 1085.788940,176.590775 
	C1092.554932,180.233459 1099.549805,184.195969 1099.073364,193.886673 
	C1103.809692,187.644180 1108.632935,186.413269 1115.434204,188.991440 
	C1118.252563,190.059784 1121.439331,190.126587 1124.317017,191.077271 
	C1126.555786,191.816879 1128.993408,192.828598 1130.535645,194.475235 
	C1131.462280,195.464569 1130.924927,197.905457 1130.896362,199.691605 
	C1130.841797,203.112427 1131.637695,206.935532 1130.394653,209.879883 
	C1125.596558,221.244980 1119.899048,223.677979 1107.123047,220.602905 
	C1104.007568,219.853027 1100.812012,219.436325 1097.318848,220.017654 
	C1101.685425,221.345108 1106.072266,222.610687 1110.410278,224.025696 
	C1112.635132,224.751404 1114.772827,225.744171 1116.949951,226.616241 
	C1115.864258,228.018036 1114.901733,229.539566 1113.673340,230.802368 
	C1105.222534,239.489395 1093.017700,241.930618 1082.595825,236.931366 
	C1081.956665,238.160797 1081.311646,239.401398 1080.588379,240.792618 
	C1077.596191,240.200974 1074.505371,239.589828 1071.057617,238.908096 
	C1071.057617,253.592911 1071.057617,268.037720 1071.057617,282.739227 
	C1058.661133,282.739227 1046.590698,282.739227 1034.000000,282.739227 
	C1034.000000,273.630554 1034.000000,264.526428 1034.000000,255.422318 
	C1034.000000,246.591003 1033.945435,237.759125 1034.035156,228.928711 
	C1034.060181,226.470367 1033.924683,224.581635 1031.123535,223.458801 
	C1029.571533,222.836670 1028.041382,221.181610 1027.331665,219.615799 
	C1025.001587,214.475586 1020.305115,213.986145 1016.946594,216.298447 
	C1011.816162,219.830627 1011.302368,216.508255 1010.058167,213.247330 
	C1009.849915,212.701340 1009.925659,212.046967 1009.892334,211.684296 
	C1008.880859,212.831787 1007.939697,213.899506 1006.998596,214.967255 
	C1006.641479,213.590591 1006.284363,212.213943 1005.813599,210.399368 
	C997.668640,207.406189 1005.511353,202.437531 1005.350281,199.429703 
	C1008.436829,198.171738 1011.062073,197.202988 1013.578674,196.005966 
	C1014.221619,195.700195 1015.079468,194.393387 1014.892273,194.017471 
	C1012.738831,189.691193 1015.758057,187.083069 1018.481567,183.584534 
	C1014.315674,179.724777 1010.316467,175.658340 1005.923218,172.075058 
	C1002.958496,169.657013 1001.146973,166.839783 1002.485962,163.352249 
	C1003.563049,160.546951 1010.674011,159.864639 1014.216187,161.654938 
	C1014.493591,161.795166 1014.805054,161.868179 1015.242737,162.022461 
	C1017.311157,159.841187 1017.367920,155.309616 1022.593018,156.566895 
	C1024.946777,157.133301 1025.992065,152.029831 1024.047485,149.049850 
	C1018.454590,153.366623 1017.486389,153.158447 1014.365356,146.344452 
	C1015.420898,143.936844 1016.117371,142.075775 1016.932068,139.898636 
	C1019.098328,139.898636 1021.534790,139.898636 1023.971252,139.898636 
	C1023.158203,137.773605 1022.297668,136.772720 1021.245728,136.050812 
	C1016.431091,132.746765 1014.665894,133.598373 1013.998291,139.469574 
	C1013.779785,141.391785 1013.597046,143.318039 1013.397949,145.242447 
M1017.472839,124.032875 
	C1017.622192,124.380424 1017.771545,124.727974 1017.994385,125.830795 
	C1018.682983,127.509132 1019.371582,129.187485 1020.060181,130.865814 
	C1020.602417,130.608658 1021.144653,130.351486 1021.686890,130.094315 
	C1020.419067,128.049393 1019.151245,126.004463 1017.472839,124.032875 
M1097.856567,199.719452 
	C1096.851807,202.223221 1091.841187,203.072327 1095.310059,208.031708 
	C1096.704224,205.090057 1097.893311,202.581192 1099.710083,199.812866 
	C1099.753174,198.978699 1099.796265,198.144547 1099.894897,196.235077 
	C1099.068726,197.903229 1098.739502,198.567825 1097.856567,199.719452 
M1078.808350,203.255890 
	C1078.971313,203.797195 1079.134277,204.338501 1079.297241,204.879807 
	C1079.589600,204.775970 1079.881958,204.672134 1080.174316,204.568283 
	C1079.809448,203.687241 1079.444702,202.806183 1079.005859,201.139374 
	C1078.618164,199.598801 1078.402466,197.988113 1077.808105,196.531921 
	C1076.473145,193.260941 1074.950317,190.066650 1073.431641,186.679916 
	C1073.252686,188.160538 1072.257202,190.511017 1072.906006,192.246994 
	C1074.277588,195.917343 1076.508057,199.266708 1078.808350,203.255890 
M1116.335693,207.268845 
	C1116.482422,207.372314 1116.629150,207.475769 1116.291260,208.135193 
	C1113.555054,209.485550 1110.818970,210.835922 1108.082764,212.186279 
	C1108.250244,212.574677 1108.417847,212.963074 1108.585449,213.351456 
	C1111.995850,212.046204 1115.406250,210.740952 1118.816650,209.435699 
	C1118.981445,209.737839 1119.146240,210.039978 1119.311157,210.342117 
	C1117.354614,211.465134 1115.398071,212.588150 1113.475220,213.691818 
	C1115.222168,215.879044 1116.058472,215.897415 1119.224609,214.359375 
	C1124.658569,211.719727 1126.401733,208.346085 1126.547974,203.043777 
	C1126.562622,202.516281 1127.396851,202.011383 1127.820923,201.529907 
	C1122.577515,198.077637 1117.735840,194.889816 1112.582153,191.496597 
	C1110.268555,197.896957 1101.953735,201.318268 1104.937988,208.582779 
	C1108.859497,207.989349 1112.392334,207.454742 1116.335693,207.268845 
M1071.000000,145.943222 
	C1071.281494,147.217163 1071.562988,148.491104 1072.074463,150.805298 
	C1074.141724,148.069336 1075.411255,146.220444 1076.858398,144.523010 
	C1078.212036,142.935242 1079.700806,141.451309 1081.225586,140.023682 
	C1083.438477,137.951920 1086.824097,136.375732 1087.757690,133.862915 
	C1089.366089,129.534348 1087.166870,125.885796 1083.347778,122.891861 
	C1081.034424,121.078331 1078.351929,117.983055 1078.290039,115.404808 
	C1078.148682,109.509354 1075.530518,109.265427 1071.000000,110.547363 
	C1071.000000,122.103935 1071.000000,133.578079 1071.000000,145.943222 
M1091.970215,188.678665 
	C1089.495850,185.334259 1087.021362,181.989838 1084.530151,178.622726 
	C1082.856445,179.541046 1081.808472,180.433197 1080.616943,180.712189 
	C1076.493408,181.677734 1075.437866,183.603073 1077.731567,187.423309 
	C1080.142578,191.438705 1082.199341,195.666855 1084.485229,199.941177 
	C1085.247437,196.675827 1085.926880,193.764481 1086.606445,190.853149 
	C1087.092407,190.962357 1087.578369,191.071579 1088.064331,191.180801 
	C1087.719360,193.281311 1087.374390,195.381836 1087.045776,197.382416 
	C1088.352295,198.049240 1089.495239,198.632538 1090.464355,199.127121 
	C1095.314941,196.871384 1095.410522,193.418747 1091.970215,188.678665 
M1029.003906,123.680687 
	C1029.614624,123.934067 1030.225220,124.187447 1030.836060,124.440826 
	C1031.160034,121.078056 1031.501953,117.716316 1031.693726,114.346016 
	C1031.697998,114.270340 1029.947632,113.848076 1029.100708,114.015915 
	C1026.297852,114.571396 1023.432434,116.139999 1020.778564,115.810280 
	C1016.703857,115.304047 1014.846130,116.701958 1014.061707,120.356194 
	C1015.499023,121.364365 1016.929016,122.367439 1018.784363,123.668854 
	C1020.039490,122.132050 1021.091431,120.395699 1022.570557,119.178329 
	C1023.700134,118.248650 1025.349609,117.900879 1026.822632,117.490685 
	C1027.048950,117.427689 1027.942383,118.834274 1027.901611,118.871346 
	C1025.597900,120.960800 1028.824341,121.528671 1029.003906,123.680687 
M1095.533203,228.927582 
	C1095.697632,227.753937 1095.862183,226.580307 1095.940063,226.024109 
	C1091.765503,224.393402 1088.279419,224.219482 1087.296265,229.000610 
	C1085.050537,228.570923 1083.243286,228.225128 1081.083740,227.811935 
	C1083.769409,233.455475 1086.395630,234.508774 1090.883301,231.996033 
	C1092.289307,231.208771 1093.474365,230.027145 1095.533203,228.927582 
M1110.376709,231.082153 
	C1111.793945,229.817352 1113.211304,228.552551 1114.581665,227.329636 
	C1109.134644,224.911392 1103.896606,225.364670 1102.131470,228.498764 
	C1103.469360,228.904053 1104.799194,229.306900 1106.129028,229.709763 
	C1106.056885,230.126282 1105.984741,230.542786 1105.912720,230.959305 
	C1104.402344,230.959305 1102.892090,230.959305 1101.381836,230.959305 
	C1101.396362,231.410309 1101.410767,231.861328 1101.425293,232.312332 
	C1104.243774,232.091217 1107.062134,231.870102 1110.376709,231.082153 
M1024.369385,201.998276 
	C1022.959717,201.262756 1021.550049,200.527237 1020.175781,199.810196 
	C1019.792236,201.222870 1019.341553,202.882858 1018.847900,204.701202 
	C1020.392212,204.912842 1021.624207,205.081680 1022.447815,205.194565 
	C1024.241943,208.179764 1020.684387,212.700882 1025.797974,214.092529 
	C1026.201294,212.353943 1026.938232,210.859390 1026.786865,209.460953 
	C1026.515137,206.950363 1025.709839,204.497513 1024.369385,201.998276 
M1027.952637,126.748405 
	C1027.817993,126.652443 1027.693604,126.532181 1027.544800,126.470222 
	C1027.463745,126.436508 1027.250488,126.505310 1027.251099,126.522034 
	C1027.400391,130.458954 1023.001648,133.953674 1026.036011,138.122772 
	C1026.842896,139.231445 1028.078735,140.028061 1029.117554,140.967972 
	C1029.662598,139.434128 1030.847656,137.797119 1030.620483,136.387695 
	C1030.133057,133.363800 1028.916870,130.457352 1027.952637,126.748405 
M1023.016541,166.952209 
	C1023.067322,167.109558 1023.094299,167.281357 1023.177856,167.418808 
	C1023.227905,167.501221 1023.447693,167.584030 1023.453491,167.575226 
	C1024.741577,165.634796 1026.017578,163.686279 1027.659790,161.179321 
	C1025.064331,160.429443 1023.061279,159.850739 1020.826843,159.205185 
	C1020.255432,160.908737 1019.786133,162.307892 1019.182800,164.106506 
	C1020.668335,163.852188 1021.781067,163.661682 1023.001160,163.452805 
	C1023.001160,164.555695 1023.001160,165.376358 1023.016541,166.952209 
M1071.000000,203.495270 
	C1072.537598,205.841034 1074.075195,208.186783 1075.612793,210.532532 
	C1076.295532,210.087265 1076.978271,209.642014 1077.661011,209.196747 
	C1075.827515,206.102951 1073.994019,203.009140 1072.160400,199.915329 
	C1071.773682,200.080978 1071.386841,200.246643 1071.000000,200.412292 
	C1071.000000,201.180099 1071.000000,201.947891 1071.000000,203.495270 
M1031.002686,158.577805 
	C1031.655151,161.004776 1032.307617,163.431763 1032.960205,165.858749 
	C1033.268188,165.767654 1033.576050,165.676559 1033.884033,165.585464 
	C1033.884033,160.885254 1033.884033,156.185028 1033.884033,151.484818 
	C1033.704468,151.434082 1033.525024,151.383347 1033.345459,151.332611 
	C1032.575073,153.469528 1031.804688,155.606461 1031.002686,158.577805 
M1092.222778,208.306793 
	C1092.686890,208.469284 1093.148315,208.643005 1093.623169,208.762680 
	C1093.648315,208.769028 1093.788818,208.317581 1093.875610,208.079224 
	C1093.530396,207.985947 1093.185059,207.892670 1092.222778,208.306793 
M1196.825684,161.807602 
	C1196.896973,162.164307 1196.968262,162.520996 1197.039551,162.877701 
	C1197.282715,162.802841 1197.742310,162.685898 1197.737183,162.659332 
	C1197.640869,162.163956 1197.489014,161.679352 1196.825684,161.807602 
M1027.306885,215.777206 
	C1027.469360,215.313049 1027.643188,214.851746 1027.762695,214.376816 
	C1027.768921,214.351578 1027.317505,214.211182 1027.079224,214.124405 
	C1026.985962,214.469635 1026.892700,214.814865 1027.306885,215.777206 
z"/>
<path fill="#FFFFFF" opacity="1.000000" stroke="none" 
	d="
M1407.000000,279.000000 
	C1398.858887,279.000000 1391.217896,279.000000 1383.289062,279.000000 
	C1383.289062,211.406662 1383.289062,144.027573 1383.289062,76.311699 
	C1384.207764,76.219643 1385.303223,76.014404 1386.398804,76.013908 
	C1423.544922,75.997246 1460.704834,75.393280 1497.832153,76.227814 
	C1520.064087,76.727547 1538.886230,92.599892 1542.993774,115.121849 
	C1545.779663,130.397430 1544.356323,145.095184 1534.860229,157.834457 
	C1530.636841,163.499924 1524.834351,167.988174 1519.974976,172.787186 
	C1537.305298,178.624420 1549.490356,194.865173 1552.109009,213.342255 
	C1554.042847,226.987289 1552.845947,239.882553 1545.982666,251.954758 
	C1537.897095,266.176788 1525.696289,274.891876 1509.653931,277.911530 
	C1504.855103,278.814789 1499.859253,278.939789 1494.952148,278.955078 
	C1465.801636,279.045959 1436.650757,279.000000 1407.000000,279.000000 
M1455.500000,190.000000 
	C1443.410278,190.000000 1431.320435,190.000000 1419.262329,190.000000 
	C1419.262329,210.281494 1419.262329,230.007568 1419.262329,250.000000 
	C1440.974976,250.000000 1462.432129,250.304672 1483.876221,249.905930 
	C1501.806030,249.572525 1513.077881,237.595978 1513.885376,220.755798 
	C1514.729370,203.152924 1501.905884,189.729401 1483.974487,189.977753 
	C1474.817993,190.104584 1465.658325,190.000000 1455.500000,190.000000 
M1499.006348,112.511742 
	C1493.978638,107.376152 1487.632446,105.130074 1480.685425,105.063843 
	C1461.387817,104.879837 1442.087402,104.994270 1422.788086,105.013268 
	C1421.536865,105.014503 1420.285889,105.205940 1419.332520,105.284386 
	C1419.332520,123.442070 1419.332520,141.160522 1419.332520,158.999939 
	C1440.784546,158.999939 1461.916016,159.416779 1483.018677,158.814682 
	C1492.786011,158.536011 1501.757935,152.274536 1504.978882,142.405182 
	C1508.482666,131.668976 1506.620117,121.844688 1499.006348,112.511742 
z"/>
<path fill="#FFFFFF" opacity="1.000000" stroke="none" 
	d="
M156.182816,264.145782 
	C168.299225,266.210175 180.520813,268.948456 191.888763,261.569214 
	C200.365326,256.066864 202.433350,248.204010 198.251480,238.741272 
	C197.178391,236.313080 196.028687,233.918747 194.756119,231.167084 
	C204.333771,234.360916 211.564423,236.614120 212.376907,254.673767 
	C226.541092,254.116623 240.950821,254.934952 254.831741,252.604111 
	C268.028015,250.388214 276.152222,240.566055 277.075531,225.936584 
	C278.339569,205.908966 263.250061,193.989792 245.037430,193.997055 
	C224.540146,194.005234 204.042847,193.991592 183.545563,193.979202 
	C183.230240,193.979019 182.914978,193.872910 182.199921,193.744385 
	C182.199921,185.079880 182.199921,176.334686 182.199921,167.000000 
	C179.391510,167.000000 176.956451,166.921967 174.527802,167.013535 
	C164.150757,167.404877 165.710571,163.431229 166.323608,156.388870 
	C166.640945,152.743698 167.498764,149.145569 168.112396,145.526199 
	C167.695663,145.469131 167.278931,145.412079 166.862198,145.355026 
	C166.054611,151.014648 165.247025,156.674255 164.412521,162.522415 
	C158.833832,158.768967 156.468231,152.704742 155.069595,146.296219 
	C153.054459,137.063004 155.598343,129.065582 162.776947,122.735336 
	C167.887817,118.228485 173.053375,113.783669 177.901489,109.566101 
	C173.366669,108.417061 172.342072,108.658508 168.142914,111.945572 
	C161.093750,117.463585 155.583862,123.961891 152.618164,132.695312 
	C149.100189,143.055145 151.079941,152.623444 156.206375,161.546677 
	C165.014053,176.877594 174.445526,191.849121 183.476196,207.054016 
	C184.806564,209.293930 185.375046,211.986359 186.296036,214.469406 
	C185.818588,214.782455 185.341141,215.095505 184.863693,215.408539 
	C177.241333,206.259964 169.338409,197.327026 162.087280,187.893097 
	C156.498932,180.622498 151.107071,173.061707 146.729752,165.029419 
	C138.506012,149.939011 137.697083,137.027878 151.151764,122.483932 
	C155.085159,118.232109 159.815109,114.717163 164.043640,110.984795 
	C156.899826,111.800095 151.386978,116.281288 146.134216,122.373901 
	C146.134216,107.876823 146.134216,94.273636 146.134216,80.000000 
	C147.865189,80.000000 149.617142,80.000000 151.369110,80.000000 
	C187.031235,80.000000 222.694580,79.819412 258.355042,80.064407 
	C281.572937,80.223923 300.355103,94.444527 305.758789,117.208237 
	C309.526001,133.078094 308.684174,149.152466 297.898315,162.741592 
	C293.620239,168.131531 288.029724,172.479782 283.297943,177.050049 
	C293.089996,180.312332 301.627808,187.176697 307.892242,196.557343 
	C313.055908,204.289627 316.011536,212.874054 316.097626,222.470139 
	C316.195068,233.334290 315.528107,243.942200 311.405243,254.160812 
	C305.285919,269.327728 293.629486,277.783356 278.125275,280.853973 
	C269.047363,282.651855 259.702698,283.495331 250.441299,283.877167 
	C238.296829,284.377869 226.111633,284.212128 213.951996,283.953735 
	C191.908813,283.485291 170.175613,280.801086 148.695633,275.478607 
	C135.545532,272.220093 122.081657,270.081543 108.660164,268.111328 
	C97.996857,266.545990 87.198219,265.795868 76.434464,265.045166 
	C57.851643,263.749115 41.231640,269.076752 26.609013,280.708374 
	C25.764099,275.863525 30.123497,267.160248 35.086178,263.396484 
	C43.653938,256.898621 53.475319,253.902039 64.032043,254.099823 
	C78.040184,254.362305 92.119133,254.603134 106.012756,256.200500 
	C120.935669,257.916229 135.675934,261.211487 150.505585,263.761047 
	C152.123337,264.039185 153.805222,263.944275 155.856522,264.126404 
	C156.255676,264.230438 156.182816,264.145782 156.182816,264.145782 
M202.516861,163.000000 
	C216.667679,163.000000 230.821869,163.186951 244.968124,162.932831 
	C254.059189,162.769501 261.951782,159.390518 266.371429,151.014771 
	C271.427246,141.433426 271.481354,131.369446 266.206207,121.837433 
	C260.808929,112.084755 251.135849,109.533257 241.007324,109.108688 
	C229.708496,108.635048 218.373230,108.918671 207.057281,109.094666 
	C205.501007,109.118866 203.043808,110.042526 202.570526,111.193840 
	C199.789337,117.959435 196.156891,124.758789 195.309647,131.845444 
	C194.049347,142.386826 196.260483,153.420853 188.834610,163.000000 
	C193.536835,163.000000 197.531052,163.000000 202.516861,163.000000 
z"/>
<path fill="#FFFFFF" opacity="1.000000" stroke="none" 
	d="
M1856.107178,81.990700 
	C1899.013550,64.431305 1952.714966,72.757660 1981.813843,103.429993 
	C1974.797852,110.936790 1967.787842,118.437141 1960.742798,125.975105 
	C1942.480469,108.678635 1920.339355,102.752533 1896.332764,105.236610 
	C1869.635132,107.999130 1850.904175,122.705399 1841.015503,147.915710 
	C1833.772339,166.381241 1833.416138,185.504547 1839.733643,203.941833 
	C1848.138916,228.472382 1865.253418,244.446823 1891.521362,248.951385 
	C1908.641602,251.887253 1925.232910,250.297592 1940.776001,241.734940 
	C1943.632446,240.161301 1945.151855,238.489090 1945.091431,234.914764 
	C1944.863647,221.450180 1945.000000,207.979462 1945.000000,194.113159 
	C1928.652588,194.113159 1912.577515,194.113159 1896.253662,194.113159 
	C1896.253662,183.978989 1896.253662,174.240723 1896.253662,164.250153 
	C1924.696411,164.250153 1953.099487,164.250153 1982.000000,164.250153 
	C1982.000000,165.896484 1982.000000,167.505051 1982.000000,169.113602 
	C1982.000000,195.111115 1981.836792,221.110611 1982.151978,247.104294 
	C1982.208130,251.728851 1980.477173,254.619553 1977.299438,257.174469 
	C1960.997803,270.281189 1942.835938,278.826233 1921.740112,281.091339 
	C1896.427124,283.809296 1871.795654,282.062225 1849.039307,269.887390 
	C1822.013184,255.428192 1804.512451,233.090164 1799.252197,202.635178 
	C1797.054077,189.908249 1796.344971,176.596649 1797.312622,163.727859 
	C1798.731812,144.850525 1805.442139,127.421303 1817.249878,112.200790 
	C1827.571167,98.896317 1840.616821,89.185684 1856.107178,81.990700 
z"/>
<path fill="#FFFFFF" opacity="1.000000" stroke="none" 
	d="
M577.722717,161.700836 
	C589.182373,135.868118 600.444397,110.366577 611.567932,84.804756 
	C613.021912,81.463448 614.598145,79.731133 618.717346,79.872215 
	C629.689636,80.248032 640.683289,80.000000 651.708862,80.000000 
	C681.608704,147.535919 711.435486,214.906784 741.581665,282.999115 
	C728.566956,282.999115 716.315186,283.150635 704.078430,282.790283 
	C702.688171,282.749329 700.916321,280.038025 700.113525,278.215942 
	C694.948486,266.493073 689.945496,254.697342 685.028198,242.867798 
	C683.787720,239.883575 682.037842,238.895691 678.727966,238.911713 
	C647.914673,239.060898 617.100159,239.044144 586.286560,238.934509 
	C583.060791,238.923035 581.648376,239.639633 580.316284,242.983185 
	C575.221680,255.770325 569.552246,268.332550 563.851685,280.867004 
	C563.340942,281.989990 561.068604,282.887451 559.600586,282.908203 
	C547.944580,283.072937 536.285217,282.999969 524.090332,282.999969 
	C541.963562,242.498825 559.722778,202.256042 577.722717,161.700836 
M667.038818,201.426605 
	C655.738892,175.294876 644.438965,149.163132 632.910828,122.503769 
	C620.303162,151.502136 608.131531,179.497696 595.823181,207.807648 
	C620.657593,207.807648 645.071777,207.807648 669.579590,207.807648 
	C668.918884,205.930038 668.233887,203.983307 667.038818,201.426605 
z"/>
<path fill="#FFFFFF" opacity="1.000000" stroke="none" 
	d="
M435.000000,110.000000 
	C419.524109,110.000000 404.548218,110.000000 389.286652,110.000000 
	C389.286652,128.287354 389.286652,146.358200 389.286652,164.826828 
	C423.290161,164.826828 457.360809,164.826828 491.714844,164.826828 
	C491.714844,174.955490 491.714844,184.694290 491.714844,194.832169 
	C457.704437,194.832169 423.633820,194.832169 389.282471,194.832169 
	C389.282471,214.295898 389.282471,233.366531 389.282471,252.834351 
	C427.298187,252.834351 465.368225,252.834351 503.718323,252.834351 
	C503.718323,262.962738 503.718323,272.701477 503.718323,282.721375 
	C453.364288,282.721375 402.963654,282.721375 352.281250,282.721375 
	C352.281250,215.370941 352.281250,147.971924 352.281250,80.286270 
	C401.620361,80.286270 451.021149,80.286270 500.711243,80.286270 
	C500.711243,89.948097 500.711243,99.687065 500.711243,110.000000 
	C479.021973,110.000000 457.260986,110.000000 435.000000,110.000000 
z"/>
<path fill="#FFFFFF" opacity="1.000000" stroke="none" 
	d="
M936.000000,123.000000 
	C936.000000,149.987320 936.327393,176.480026 935.892822,202.960220 
	C935.565430,222.909042 929.393188,240.936127 916.197266,256.414703 
	C903.028320,271.861603 886.304443,280.339020 866.615234,284.077179 
	C847.579224,287.691284 828.647949,287.088562 810.619080,280.606598 
	C785.189148,271.463745 766.999939,254.092133 759.182556,227.615463 
	C756.731079,219.312637 755.275574,210.414032 755.182373,201.768524 
	C754.763733,162.958282 755.000000,124.140976 755.000000,85.326218 
	C755.000000,83.698463 755.000000,82.070709 755.000000,80.223961 
	C767.412048,80.223961 779.479858,80.223961 792.000000,80.223961 
	C792.000000,82.114532 792.000000,83.895393 792.000000,85.676262 
	C792.000000,123.991257 792.047424,162.306335 791.975708,200.621201 
	C791.948425,215.175842 796.560303,228.060638 806.348206,238.672195 
	C815.238037,248.310150 826.698425,253.403839 839.873840,253.947037 
	C849.503296,254.344055 859.012817,254.159042 868.224060,250.117050 
	C880.950623,244.532501 889.749451,235.396912 894.927795,222.746902 
	C898.092896,215.014969 899.111023,206.855057 899.073242,198.430267 
	C898.904663,160.782364 899.000000,123.133286 899.000000,85.484634 
	C899.000000,83.842430 899.000000,82.200226 899.000000,80.279968 
	C911.297180,80.279968 923.365845,80.279968 936.000000,80.279968 
	C936.000000,94.315025 936.000000,108.407509 936.000000,123.000000 
z"/>
<path fill="#FFFFFF" opacity="1.000000" stroke="none" 
	d="
M1621.000000,141.000000 
	C1621.000000,160.832413 1620.707764,180.170731 1621.098267,199.495255 
	C1621.379150,213.394073 1626.384155,225.818542 1636.317383,235.669144 
	C1645.876587,245.148636 1657.659058,249.791977 1671.281738,250.074493 
	C1683.216797,250.322021 1694.499878,248.918137 1704.769287,242.079956 
	C1717.561279,233.561813 1724.858276,221.781998 1726.964233,206.706146 
	C1727.552124,202.497238 1727.947510,198.222916 1727.956055,193.977631 
	C1728.031616,156.479568 1728.000000,118.981300 1728.000000,81.483093 
	C1728.000000,79.840515 1728.000000,78.197945 1728.000000,76.278671 
	C1740.303589,76.278671 1752.375854,76.278671 1764.789429,76.278671 
	C1764.857422,77.494057 1764.990356,78.766876 1764.990723,80.039726 
	C1765.001709,120.871101 1765.579102,161.714417 1764.737671,202.528473 
	C1764.359131,220.892166 1757.679321,237.688553 1745.499878,252.144028 
	C1731.533813,268.720184 1713.413086,277.639160 1692.647217,280.779785 
	C1671.085083,284.040802 1649.708130,282.416168 1629.749634,272.290314 
	C1606.333008,260.410034 1591.564697,241.687134 1586.090698,215.960175 
	C1584.808960,209.935928 1584.117798,203.671707 1584.089355,197.513596 
	C1583.912109,159.016251 1584.000000,120.517685 1584.000000,82.019524 
	C1584.000000,80.206863 1584.000000,78.394203 1584.000000,76.291557 
	C1596.277100,76.291557 1608.349731,76.291557 1621.000000,76.291557 
	C1621.000000,97.641922 1621.000000,119.070961 1621.000000,141.000000 
z"/>
<path fill="#FFFFFF" opacity="1.000000" stroke="none" 
	d="
M2154.000000,279.000000 
	C2105.524170,279.000000 2057.548340,279.000000 2009.001465,279.000000 
	C2009.001465,273.191498 2008.955078,267.591858 2009.049927,261.994629 
	C2009.064697,261.123138 2009.566040,260.145020 2010.109009,259.414429 
	C2020.829712,244.989273 2031.520752,230.541138 2042.357788,216.203506 
	C2060.252441,192.528580 2078.274414,168.949753 2096.187988,145.289139 
	C2105.850586,132.526535 2115.399902,119.678307 2125.483398,106.224472 
	C2087.083984,106.224472 2049.266846,106.224472 2011.226440,106.224472 
	C2011.226440,95.922447 2011.226440,86.184258 2011.226440,76.222443 
	C2066.752197,76.222443 2122.155762,76.222443 2177.996826,76.222443 
	C2177.996826,81.625168 2178.955811,87.150734 2177.705322,92.120132 
	C2176.629150,96.395195 2173.292725,100.232353 2170.507324,103.925034 
	C2151.662109,128.910263 2132.613770,153.742355 2113.797852,178.749283 
	C2097.245605,200.747772 2080.914307,222.912430 2064.465820,244.989029 
	C2063.695801,246.022537 2062.733398,246.912720 2061.173584,248.622772 
	C2100.830078,248.622772 2139.623535,248.622772 2178.707520,248.622772 
	C2178.707520,258.941223 2178.707520,268.680847 2178.707520,279.000000 
	C2170.697754,279.000000 2162.598877,279.000000 2154.000000,279.000000 
z"/>
<path fill="#FFFFFF" opacity="1.000000" stroke="none" 
	d="
M136.013794,157.822678 
	C141.026276,170.917801 149.428268,181.369324 158.134247,191.567825 
	C167.637497,202.700317 178.904465,212.511826 185.325272,225.961472 
	C190.392593,236.575989 194.566528,247.609772 190.414978,259.256622 
	C184.330566,251.717728 178.847168,243.683441 172.125595,236.870773 
	C160.553070,225.141388 146.174026,221.763885 130.129425,225.423355 
	C128.866013,225.711502 127.562660,225.951248 126.273125,225.977173 
	C118.561462,226.132172 117.101524,224.258591 117.919350,216.577316 
	C118.256378,213.411743 117.619980,210.142548 117.426338,206.920471 
	C116.911102,206.885757 116.395874,206.851044 115.880638,206.816330 
	C116.850479,205.715164 117.820312,204.614014 118.655945,203.665237 
	C117.348160,202.536514 116.055901,201.421204 114.717377,200.265961 
	C115.217087,199.531906 115.432587,199.089767 115.758575,198.755325 
	C120.805069,193.577560 120.573730,192.631638 113.652397,190.260315 
	C107.429657,188.128342 107.114548,187.163605 111.829048,182.763153 
	C114.301300,180.455551 117.360779,178.782440 119.875092,176.512665 
	C121.623955,174.933884 122.896408,172.827377 124.411957,170.918518 
	C121.867210,169.167831 119.770195,167.725159 117.673180,166.282486 
	C117.829430,165.917526 117.985680,165.552567 118.141930,165.187592 
	C119.673637,165.076813 121.205353,164.966049 123.046570,164.832886 
	C122.302864,148.572006 124.001259,133.569809 141.676315,126.105461 
	C134.127945,135.611359 131.413666,145.895920 136.013794,157.822678 
z"/>
<path fill="#FFFFFF" opacity="1.000000" stroke="none" 
	d="
M156.297516,264.267456 
	C152.998718,263.009735 149.658081,261.714996 146.220200,260.382599 
	C146.220200,249.827499 146.220200,239.073273 146.220200,228.174759 
	C155.560074,226.979294 162.763214,230.915695 169.135422,236.804825 
	C170.168625,237.759705 170.884811,239.572235 170.918472,241.007767 
	C171.093475,248.472061 170.999969,255.942673 170.999969,264.005341 
	C166.222061,264.005341 161.630997,264.005341 156.611389,264.075562 
	C156.182816,264.145782 156.255676,264.230438 156.297516,264.267456 
z"/>
<path fill="#FFFFFF" opacity="1.000000" stroke="none" 
	d="
M1265.075684,180.569397 
	C1267.010010,181.365204 1269.181763,181.546722 1267.855103,184.165863 
	C1267.755493,184.362564 1265.954468,183.374908 1265.070068,183.555145 
	C1262.039673,184.172729 1260.443237,188.039886 1261.705933,191.282440 
	C1262.890869,194.325180 1260.257935,196.125824 1255.526978,195.634094 
	C1256.526489,190.808090 1255.809448,186.629059 1251.446411,183.765656 
	C1253.448730,180.554047 1255.442749,177.355637 1258.056885,173.162598 
	C1259.531616,175.569748 1260.740356,177.542786 1262.185181,179.901138 
	C1262.561523,179.955109 1263.684204,180.116119 1265.075684,180.569397 
z"/>
<path fill="#FFFFFF" opacity="1.000000" stroke="none" 
	d="
M1263.348877,229.887268 
	C1263.968628,226.928635 1264.234497,224.083542 1264.605103,220.119995 
	C1269.175537,224.765091 1272.818848,228.467819 1276.867920,232.582962 
	C1270.070679,232.186935 1269.300293,238.004669 1267.026367,242.719086 
	C1267.185181,241.656464 1267.343872,240.593842 1267.499146,239.554764 
	C1264.104614,239.328186 1261.457642,234.043594 1263.348877,229.887268 
z"/>
<path fill="#FFFFFF" opacity="1.000000" stroke="none" 
	d="
M1164.036621,213.970276 
	C1163.392090,217.298630 1162.749756,220.259766 1162.107544,223.220917 
	C1161.588135,223.179291 1161.068848,223.137680 1160.549561,223.096069 
	C1160.034302,221.840424 1159.113403,220.594452 1159.083130,219.327225 
	C1159.006348,216.105316 1157.924438,213.587616 1155.362793,211.591400 
	C1154.977051,211.290756 1154.946899,209.847687 1155.317139,209.383469 
	C1156.829590,207.487091 1158.389404,205.535233 1160.306152,204.105789 
	C1160.966675,203.613144 1163.167114,204.182816 1163.871094,204.973358 
	C1165.088135,206.340088 1165.685913,208.258377 1166.794312,210.438904 
	C1166.146606,211.182709 1165.092651,212.392899 1164.036621,213.970276 
z"/>
<path fill="#FFFFFF" opacity="1.000000" stroke="none" 
	d="
M1286.855835,191.359741 
	C1288.489990,193.791183 1289.883423,195.938721 1291.402832,198.280289 
	C1289.141357,200.801620 1286.408691,203.848328 1283.696167,206.872726 
	C1278.267578,199.846161 1279.676514,194.347427 1284.906006,189.518890 
	C1285.176147,189.764984 1285.895630,190.420410 1286.855835,191.359741 
z"/>
<path fill="#FFFFFF" opacity="1.000000" stroke="none" 
	d="
M1178.397461,66.095200 
	C1176.330566,67.664429 1174.575806,68.958542 1172.252441,70.672066 
	C1172.314941,65.808136 1167.835449,61.498974 1173.398438,58.362213 
	C1175.263306,59.093922 1177.009033,59.778900 1179.040161,60.575859 
	C1178.935303,62.238907 1178.822510,64.029495 1178.397461,66.095200 
z"/>
<path fill="#FFFFFF" opacity="1.000000" stroke="none" 
	d="
M1122.296875,173.452057 
	C1121.990967,173.025146 1122.006470,172.773102 1121.910034,172.718369 
	C1121.683228,172.589554 1121.402832,172.554901 1121.144043,172.482178 
	C1120.988892,174.649567 1120.833740,176.816971 1120.678589,178.984375 
	C1120.304443,178.976196 1119.930420,178.968002 1119.556274,178.959824 
	C1119.556274,173.750443 1119.556274,168.541046 1119.556274,162.581497 
	C1121.769043,164.174026 1123.811035,165.643677 1125.989746,167.211716 
	C1124.760742,169.547607 1123.664062,171.632095 1122.296875,173.452057 
z"/>
<path fill="#000000" opacity="1.000000" stroke="none" 
	d="
M1071.000000,145.497726 
	C1071.000000,133.578079 1071.000000,122.103935 1071.000000,110.547363 
	C1075.530518,109.265427 1078.148682,109.509354 1078.290039,115.404808 
	C1078.351929,117.983055 1081.034424,121.078331 1083.347778,122.891861 
	C1087.166870,125.885796 1089.366089,129.534348 1087.757690,133.862915 
	C1086.824097,136.375732 1083.438477,137.951920 1081.225586,140.023682 
	C1079.700806,141.451309 1078.212036,142.935242 1076.858398,144.523010 
	C1075.411255,146.220444 1074.141724,148.069336 1072.074463,150.805298 
	C1071.562988,148.491104 1071.281494,147.217163 1071.000000,145.497726 
z"/>
<path fill="#000000" opacity="1.000000" stroke="none" 
	d="
M1115.925171,206.920135 
	C1112.392334,207.454742 1108.859497,207.989349 1104.937988,208.582779 
	C1101.953735,201.318268 1110.268555,197.896957 1112.582153,191.496597 
	C1117.735840,194.889816 1122.577515,198.077637 1127.820923,201.529907 
	C1127.396851,202.011383 1126.562622,202.516281 1126.547974,203.043777 
	C1126.401733,208.346085 1124.658569,211.719727 1119.224609,214.359375 
	C1116.058472,215.897415 1115.222168,215.879044 1113.475220,213.691818 
	C1115.398071,212.588150 1117.354614,211.465134 1119.311157,210.342117 
	C1119.146240,210.039978 1118.981445,209.737839 1118.816650,209.435699 
	C1115.406250,210.740952 1111.995850,212.046204 1108.585449,213.351456 
	C1108.417847,212.963074 1108.250244,212.574677 1108.082764,212.186279 
	C1110.818970,210.835922 1113.555054,209.485550 1116.756348,207.666000 
	C1117.352905,206.861511 1117.484375,206.526230 1117.615967,206.190948 
	C1117.052368,206.434021 1116.488770,206.677078 1115.925171,206.920135 
M1114.338135,195.004425 
	C1112.737671,196.794205 1111.137207,198.583969 1109.536743,200.373734 
	C1110.069458,200.754929 1110.602173,201.136124 1111.134888,201.517319 
	C1112.450439,199.352081 1113.765991,197.186829 1114.338135,195.004425 
M1110.020874,202.336670 
	C1108.545898,203.304382 1107.070923,204.272110 1105.595947,205.239822 
	C1105.992798,205.718094 1106.389648,206.196350 1106.786499,206.674606 
	C1107.848999,205.507538 1108.911499,204.340469 1110.020874,202.336670 
z"/>
<path fill="#000000" opacity="1.000000" stroke="none" 
	d="
M1092.003906,189.053909 
	C1095.410522,193.418747 1095.314941,196.871384 1090.464355,199.127121 
	C1089.495239,198.632538 1088.352295,198.049240 1087.045776,197.382416 
	C1087.374390,195.381836 1087.719360,193.281311 1088.064331,191.180801 
	C1087.578369,191.071579 1087.092407,190.962357 1086.606445,190.853149 
	C1085.926880,193.764481 1085.247437,196.675827 1084.485229,199.941177 
	C1082.199341,195.666855 1080.142578,191.438705 1077.731567,187.423309 
	C1075.437866,183.603073 1076.493408,181.677734 1080.616943,180.712189 
	C1081.808472,180.433197 1082.856445,179.541046 1084.530151,178.622726 
	C1087.021362,181.989838 1089.495850,185.334259 1092.003906,189.053909 
z"/>
<path fill="#000000" opacity="1.000000" stroke="none" 
	d="
M1028.992920,123.290176 
	C1028.824341,121.528671 1025.597900,120.960800 1027.901611,118.871346 
	C1027.942383,118.834274 1027.048950,117.427689 1026.822632,117.490685 
	C1025.349609,117.900879 1023.700134,118.248650 1022.570557,119.178329 
	C1021.091431,120.395699 1020.039490,122.132050 1018.784363,123.668854 
	C1016.929016,122.367439 1015.499023,121.364365 1014.061707,120.356194 
	C1014.846130,116.701958 1016.703857,115.304047 1020.778564,115.810280 
	C1023.432434,116.139999 1026.297852,114.571396 1029.100708,114.015915 
	C1029.947632,113.848076 1031.697998,114.270340 1031.693726,114.346016 
	C1031.501953,117.716316 1031.160034,121.078056 1030.835938,124.440826 
	C1030.225220,124.187447 1029.614624,123.934067 1028.992920,123.290176 
z"/>
<path fill="#000000" opacity="1.000000" stroke="none" 
	d="
M1095.146973,228.976822 
	C1093.474365,230.027145 1092.289307,231.208771 1090.883301,231.996033 
	C1086.395630,234.508774 1083.769409,233.455475 1081.083740,227.811935 
	C1083.243286,228.225128 1085.050537,228.570923 1087.296265,229.000610 
	C1088.279419,224.219482 1091.765503,224.393402 1095.940063,226.024109 
	C1095.862183,226.580307 1095.697632,227.753937 1095.146973,228.976822 
z"/>
<path fill="#000000" opacity="1.000000" stroke="none" 
	d="
M1013.561218,145.456390 
	C1013.597046,143.318039 1013.779785,141.391785 1013.998291,139.469574 
	C1014.665894,133.598373 1016.431091,132.746765 1021.245728,136.050812 
	C1022.297668,136.772720 1023.158203,137.773605 1023.971252,139.898636 
	C1021.534790,139.898636 1019.098328,139.898636 1016.932068,139.898636 
	C1016.117371,142.075775 1015.420898,143.936844 1014.403320,145.935211 
	C1013.963013,145.938461 1013.843750,145.804398 1013.561218,145.456390 
z"/>
<path fill="#000000" opacity="1.000000" stroke="none" 
	d="
M1110.128662,231.365570 
	C1107.062134,231.870102 1104.243774,232.091217 1101.425293,232.312332 
	C1101.410767,231.861328 1101.396362,231.410309 1101.381836,230.959305 
	C1102.892090,230.959305 1104.402344,230.959305 1105.912720,230.959305 
	C1105.984741,230.542786 1106.056885,230.126282 1106.129028,229.709763 
	C1104.799194,229.306900 1103.469360,228.904053 1102.131470,228.498764 
	C1103.896606,225.364670 1109.134644,224.911392 1114.581665,227.329636 
	C1113.211304,228.552551 1111.793945,229.817352 1110.128662,231.365570 
z"/>
<path fill="#000000" opacity="1.000000" stroke="none" 
	d="
M1024.748535,202.009399 
	C1025.709839,204.497513 1026.515137,206.950363 1026.786865,209.460953 
	C1026.938232,210.859390 1026.201294,212.353943 1025.797974,214.092529 
	C1020.684387,212.700882 1024.241943,208.179764 1022.447815,205.194565 
	C1021.624207,205.081680 1020.392212,204.912842 1018.847900,204.701202 
	C1019.341553,202.882858 1019.792236,201.222870 1020.175781,199.810196 
	C1021.550049,200.527237 1022.959717,201.262756 1024.748535,202.009399 
z"/>
<path fill="#000000" opacity="1.000000" stroke="none" 
	d="
M1027.975830,127.125610 
	C1028.916870,130.457352 1030.133057,133.363800 1030.620483,136.387695 
	C1030.847656,137.797119 1029.662598,139.434128 1029.117554,140.967957 
	C1028.078735,140.028061 1026.842896,139.231445 1026.036011,138.122772 
	C1023.001648,133.953674 1027.400391,130.458954 1027.251099,126.522034 
	C1027.250488,126.505310 1027.463745,126.436508 1027.544800,126.470222 
	C1027.693604,126.532181 1027.817993,126.652443 1027.975830,127.125610 
z"/>
<path fill="#000000" opacity="1.000000" stroke="none" 
	d="
M1078.386230,202.747711 
	C1076.508057,199.266708 1074.277588,195.917343 1072.906006,192.246994 
	C1072.257202,190.511017 1073.252686,188.160538 1073.431641,186.679916 
	C1074.950317,190.066650 1076.473145,193.260941 1077.808105,196.531921 
	C1078.402466,197.988113 1078.618164,199.598801 1078.861938,201.731583 
	C1078.607422,202.465118 1078.496826,202.606430 1078.386230,202.747711 
z"/>
<path fill="#000000" opacity="1.000000" stroke="none" 
	d="
M1023.008850,166.574615 
	C1023.001160,165.376358 1023.001160,164.555695 1023.001160,163.452805 
	C1021.781067,163.661682 1020.668335,163.852188 1019.182800,164.106506 
	C1019.786133,162.307892 1020.255432,160.908737 1020.826843,159.205185 
	C1023.061279,159.850739 1025.064331,160.429443 1027.659790,161.179321 
	C1026.017578,163.686279 1024.741577,165.634796 1023.453491,167.575226 
	C1023.447693,167.584030 1023.227905,167.501221 1023.177856,167.418808 
	C1023.094299,167.281357 1023.067322,167.109558 1023.008850,166.574615 
z"/>
<path fill="#000000" opacity="1.000000" stroke="none" 
	d="
M1071.000000,203.105484 
	C1071.000000,201.947891 1071.000000,201.180099 1071.000000,200.412292 
	C1071.386841,200.246643 1071.773682,200.080978 1072.160400,199.915329 
	C1073.994019,203.009140 1075.827515,206.102951 1077.661011,209.196747 
	C1076.978271,209.642014 1076.295532,210.087265 1075.612793,210.532532 
	C1074.075195,208.186783 1072.537598,205.841034 1071.000000,203.105484 
z"/>
<path fill="#000000" opacity="1.000000" stroke="none" 
	d="
M1031.018555,158.160583 
	C1031.804688,155.606461 1032.575073,153.469528 1033.345459,151.332611 
	C1033.525024,151.383347 1033.704468,151.434082 1033.884033,151.484818 
	C1033.884033,156.185028 1033.884033,160.885254 1033.884033,165.585464 
	C1033.576050,165.676559 1033.268188,165.767654 1032.960205,165.858749 
	C1032.307617,163.431763 1031.655151,161.004776 1031.018555,158.160583 
z"/>
<path fill="#000000" opacity="1.000000" stroke="none" 
	d="
M1099.082397,200.072327 
	C1097.893311,202.581192 1096.704224,205.090057 1095.310059,208.031708 
	C1091.841187,203.072327 1096.851807,202.223221 1098.292847,199.692780 
	C1098.846924,199.801514 1098.964600,199.936920 1099.082397,200.072327 
z"/>
<path fill="#000000" opacity="1.000000" stroke="none" 
	d="
M1017.883423,123.959541 
	C1019.151245,126.004463 1020.419067,128.049393 1021.686890,130.094315 
	C1021.144653,130.351486 1020.602417,130.608658 1020.060181,130.865814 
	C1019.371582,129.187485 1018.682983,127.509132 1018.011841,125.172035 
	C1017.980591,124.328690 1017.932007,124.144112 1017.883423,123.959541 
z"/>
<path fill="#000000" opacity="1.000000" stroke="none" 
	d="
M1078.898926,202.124451 
	C1079.444702,202.806183 1079.809448,203.687241 1080.174316,204.568283 
	C1079.881958,204.672134 1079.589600,204.775970 1079.297241,204.879807 
	C1079.134277,204.338501 1078.971313,203.797195 1078.597290,203.001801 
	C1078.496826,202.606430 1078.607422,202.465118 1078.898926,202.124451 
z"/>
<path fill="#000000" opacity="1.000000" stroke="none" 
	d="
M1098.569702,199.449265 
	C1098.739502,198.567825 1099.068726,197.903229 1099.894897,196.235077 
	C1099.796265,198.144547 1099.753174,198.978699 1099.396240,199.942596 
	C1098.964600,199.936920 1098.846924,199.801514 1098.569702,199.449265 
z"/>
<path fill="#000000" opacity="1.000000" stroke="none" 
	d="
M1092.531250,208.053101 
	C1093.185059,207.892670 1093.530396,207.985947 1093.875610,208.079224 
	C1093.788818,208.317581 1093.648315,208.769028 1093.623169,208.762680 
	C1093.148315,208.643005 1092.686890,208.469284 1092.531250,208.053101 
z"/>
<path fill="#000000" opacity="1.000000" stroke="none" 
	d="
M1197.087402,161.500046 
	C1197.489014,161.679352 1197.640869,162.163956 1197.737183,162.659332 
	C1197.742310,162.685898 1197.282715,162.802841 1197.039551,162.877701 
	C1196.968262,162.520996 1196.896973,162.164307 1197.087402,161.500046 
z"/>
<path fill="#000000" opacity="1.000000" stroke="none" 
	d="
M1027.053223,215.468643 
	C1026.892700,214.814865 1026.985962,214.469635 1027.079102,214.124405 
	C1027.317505,214.211182 1027.768921,214.351578 1027.762695,214.376816 
	C1027.643188,214.851746 1027.469360,215.313049 1027.053223,215.468643 
z"/>
<path fill="#000000" opacity="1.000000" stroke="none" 
	d="
M1017.975098,124.794403 
	C1017.771545,124.727974 1017.622192,124.380424 1017.678101,123.996208 
	C1017.932007,124.144112 1017.980591,124.328690 1017.975098,124.794403 
z"/>
<path fill="#000000" opacity="1.000000" stroke="none" 
	d="
M1456.000000,190.000000 
	C1465.658325,190.000000 1474.817993,190.104584 1483.974487,189.977753 
	C1501.905884,189.729401 1514.729370,203.152924 1513.885376,220.755798 
	C1513.077881,237.595978 1501.806030,249.572525 1483.876221,249.905930 
	C1462.432129,250.304672 1440.974976,250.000000 1419.262329,250.000000 
	C1419.262329,230.007568 1419.262329,210.281494 1419.262329,190.000000 
	C1431.320435,190.000000 1443.410278,190.000000 1456.000000,190.000000 
z"/>
<path fill="#000000" opacity="1.000000" stroke="none" 
	d="
M1499.273926,112.769012 
	C1506.620117,121.844688 1508.482666,131.668976 1504.978882,142.405182 
	C1501.757935,152.274536 1492.786011,158.536011 1483.018677,158.814682 
	C1461.916016,159.416779 1440.784546,158.999939 1419.332520,158.999939 
	C1419.332520,141.160522 1419.332520,123.442070 1419.332520,105.284386 
	C1420.285889,105.205940 1421.536865,105.014503 1422.788086,105.013268 
	C1442.087402,104.994270 1461.387817,104.879837 1480.685425,105.063843 
	C1487.632446,105.130074 1493.978638,107.376152 1499.273926,112.769012 
z"/>
<path fill="#000000" opacity="1.000000" stroke="none" 
	d="
M202.021057,163.000000 
	C197.531052,163.000000 193.536835,163.000000 188.834610,163.000000 
	C196.260483,153.420853 194.049347,142.386826 195.309647,131.845444 
	C196.156891,124.758789 199.789337,117.959435 202.570526,111.193840 
	C203.043808,110.042526 205.501007,109.118866 207.057281,109.094666 
	C218.373230,108.918671 229.708496,108.635048 241.007324,109.108688 
	C251.135849,109.533257 260.808929,112.084755 266.206207,121.837433 
	C271.481354,131.369446 271.427246,141.433426 266.371429,151.014771 
	C261.951782,159.390518 254.059189,162.769501 244.968124,162.932831 
	C230.821869,163.186951 216.667679,163.000000 202.021057,163.000000 
z"/>
<path fill="#000000" opacity="1.000000" stroke="none" 
	d="
M667.293823,201.731598 
	C668.233887,203.983307 668.918884,205.930038 669.579590,207.807648 
	C645.071777,207.807648 620.657593,207.807648 595.823181,207.807648 
	C608.131531,179.497696 620.303162,151.502136 632.910828,122.503769 
	C644.438965,149.163132 655.738892,175.294876 667.293823,201.731598 
z"/>
<path fill="#FFFFFF" opacity="1.000000" stroke="none" 
	d="
M1114.709839,195.013000 
	C1113.765991,197.186829 1112.450439,199.352081 1111.134888,201.517319 
	C1110.602173,201.136124 1110.069458,200.754929 1109.536743,200.373734 
	C1111.137207,198.583969 1112.737671,196.794205 1114.709839,195.013000 
z"/>
<path fill="#FFFFFF" opacity="1.000000" stroke="none" 
	d="
M1109.997437,202.755035 
	C1108.911499,204.340469 1107.848999,205.507538 1106.786499,206.674606 
	C1106.389648,206.196350 1105.992798,205.718094 1105.595947,205.239822 
	C1107.070923,204.272110 1108.545898,203.304382 1109.997437,202.755035 
z"/>
<path fill="#FFFFFF" opacity="1.000000" stroke="none" 
	d="
M1116.130371,207.094482 
	C1116.488770,206.677078 1117.052368,206.434021 1117.615967,206.190948 
	C1117.484375,206.526230 1117.352905,206.861511 1116.998657,207.388031 
	C1116.629150,207.475769 1116.482422,207.372314 1116.130371,207.094482 
z"/>
</svg>